<?xml version="1.0" standalone="no"?>
<!DOCTYPE svg PUBLIC "-//W3C//DTD SVG 1.1//EN" "http://www.w3.org/Graphics/SVG/1.1/DTD/svg11.dtd" >
<svg>
<metadata>
Created by FontForge 20090622 at Wed Jan  6 12:35:40 2016
 By deploy user
&#194;&#169; 2002 Microsoft Corporation. All rights reserved.
</metadata>
<defs>
<font id="Kartika" horiz-adv-x="718" >
  <font-face 
    font-family="Kartika"
    font-weight="400"
    font-stretch="normal"
    units-per-em="2048"
    panose-1="2 2 5 3 3 4 4 6 2 3"
    ascent="1408"
    descent="-640"
    x-height="669"
    cap-height="923"
    bbox="-1333 -645 3224 1434"
    underline-thickness="72"
    underline-position="-320"
    unicode-range="U+0020-U+25CC"
  />
<missing-glyph horiz-adv-x="717" 
d="M90 0v1434h537v-1434h-537zM179 90h359v1254h-359v-1254z" />
    <glyph glyph-name=".notdef" horiz-adv-x="717" 
d="M90 0v1434h537v-1434h-537zM179 90h359v1254h-359v-1254z" />
    <glyph glyph-name=".null" horiz-adv-x="0" 
 />
    <glyph glyph-name="nonmarkingreturn" horiz-adv-x="924" 
 />
    <glyph glyph-name="space" unicode=" " horiz-adv-x="924" 
 />
    <glyph glyph-name="exclam" unicode="!" horiz-adv-x="358" 
d="M244 0h-129v129h129v-129zM244 923v-693h-105v693h105z" />
    <glyph glyph-name="quotedbl" unicode="&#x22;" horiz-adv-x="458" 
d="M404 773l-29 -177h-70l-31 327h130v-150zM182 773l-28 -177h-70l-31 327h129v-150z" />
    <glyph glyph-name="numbersign" unicode="#" 
d="M703 575h-125l-46 -229h120v-93h-140l-51 -253h-96l52 253h-201l-52 -253h-95l51 253h-105v93h124l47 229h-120v94h139l52 254h95l-52 -254h202l52 254h95l-52 -254h106v-94zM482 575h-201l-46 -229h201z" />
    <glyph glyph-name="dollar" unicode="$" 
d="M391 526q79 -16 130.5 -38.5t82 -54t43 -73t12.5 -94.5q0 -56 -18.5 -105t-53 -87t-84 -61.5t-112.5 -27.5v-97h-67v96q-257 29 -275 277h123q13 -157 152 -181v352q-255 51 -255 249q0 113 68.5 180t186.5 78v97h67v-97q224 -16 247 -228h-124q-9 117 -123 133v-318z
M324 540v305q-133 -24 -133 -155q0 -35 9 -59.5t26.5 -42t42 -29t55.5 -19.5zM391 80q146 18 146 178q0 32 -6 56.5t-22.5 43.5t-44.5 33t-73 26v-337z" />
    <glyph glyph-name="percent" unicode="%" horiz-adv-x="1147" 
d="M501 694q0 -58 -15.5 -103.5t-43.5 -77t-67 -48t-85 -16.5q-47 0 -85 17t-66 49t-43 77.5t-15 101.5t15 101t43 77t66 49.5t85 17.5q46 0 85 -17t67 -48.5t43.5 -77t15.5 -102.5zM400 694q0 168 -110 168q-108 0 -108 -168t108 -168q110 0 110 168zM871 923l-504 -923
h-93l505 923h92zM1066 230q0 -56 -15.5 -101.5t-43.5 -77.5t-67 -49.5t-85 -17.5q-47 0 -85 17t-66 49t-43 77.5t-15 102.5q0 55 15 100.5t42.5 77.5t66 49.5t85.5 17.5q46 0 85 -17.5t67 -49.5t43.5 -77t15.5 -101zM965 230q0 168 -110 168q-108 0 -108 -168t108 -168
q110 0 110 168z" />
    <glyph glyph-name="ampersand" unicode="&#x26;" horiz-adv-x="860" 
d="M774 435q-4 -75 -22.5 -137t-50.5 -119l94 -117l-92 -78l-80 101q-109 -101 -274 -101q-63 0 -117 21t-93.5 58t-61.5 86t-22 105q0 43 13 79.5t39.5 70t67 64t94.5 61.5q-97 124 -97 204q0 44 17 82t47.5 65.5t72.5 43t92 15.5q47 0 86 -16t67.5 -43t44.5 -62.5
t16 -75.5q0 -36 -10.5 -67t-33 -59t-56.5 -53.5t-80 -52.5l185 -231q14 34 22 72.5t10 83.5h122zM500 740q0 24 -9 43.5t-23.5 33.5t-33.5 21.5t-39 7.5q-22 0 -41.5 -7.5t-34 -20.5t-23 -32t-8.5 -41q0 -49 56 -123l31 -38q67 37 96 72t29 84zM556 170l-225 282
q-39 -23 -67.5 -44t-47 -43t-28 -47t-9.5 -56q0 -35 13 -67t35.5 -56.5t54 -39t67.5 -14.5q128 0 207 85z" />
    <glyph glyph-name="quotesingle" unicode="'" horiz-adv-x="246" 
d="M187 773l-28 -177h-70l-31 177v150h129v-150z" />
    <glyph glyph-name="parenleft" unicode="(" horiz-adv-x="430" 
d="M383 -271h-81q-224 293 -224 605q0 315 224 605h81q-188 -302 -188 -605t188 -605z" />
    <glyph glyph-name="parenright" unicode=")" horiz-adv-x="430" 
d="M128 939q224 -290 224 -605q0 -312 -224 -605h-81q188 302 188 605t-188 605h81z" />
    <glyph glyph-name="asterisk" unicode="*" horiz-adv-x="502" 
d="M459 753l-154 -34l104 -120l-78 -57l-81 138l-81 -138l-78 57l105 120l-155 34l30 91l146 -63l-14 158h95l-14 -158l146 63z" />
    <glyph glyph-name="plus" unicode="+" horiz-adv-x="753" 
d="M683 403h-253v-253h-106v253h-253v105h253v253h106v-253h253v-105z" />
    <glyph glyph-name="comma" unicode="," horiz-adv-x="358" 
d="M244 0q0 -40 -8 -73.5t-24 -57.5t-40.5 -37.5t-56.5 -13.5v60q64 0 64 122h-64v129h129v-129z" />
    <glyph glyph-name="hyphen" unicode="-" horiz-adv-x="430" 
d="M388 277h-347v114h347v-114z" />
    <glyph glyph-name="period" unicode="." horiz-adv-x="358" 
d="M244 0h-129v129h129v-129z" />
    <glyph glyph-name="slash" unicode="/" horiz-adv-x="358" 
d="M358 923l-267 -923h-91l267 923h91z" />
    <glyph glyph-name="zero" unicode="0" 
d="M659 461q0 -477 -301 -477q-300 0 -300 477q0 478 300 478q301 0 301 -478zM537 461q0 107 -11.5 180.5t-34 119t-56 65.5t-77.5 20q-43 0 -76 -19.5t-55.5 -64.5t-34 -118.5t-11.5 -182.5t11.5 -182.5t34 -118t55.5 -63.5t76 -19q44 0 77.5 20t56 65t34 118t11.5 180z
" />
    <glyph glyph-name="one" unicode="1" 
d="M484 0h-119v727q-70 -49 -222 -49v93q217 0 250 168h91v-939z" />
    <glyph glyph-name="two" unicode="2" 
d="M652 0h-612q0 85 52 161q26 38 73.5 85t117.5 104q72 57 119 101.5t73 78.5q51 66 51 153q0 76 -43.5 119.5t-124.5 43.5q-72 0 -119.5 -44.5t-53.5 -129.5h-123q5 62 28.5 111.5t62.5 84t91.5 53t116.5 18.5q70 0 124 -20t90.5 -55t55 -82.5t18.5 -101.5
q0 -103 -55 -179q-29 -39 -84.5 -92t-136.5 -122q-165 -138 -168 -177h447v-110z" />
    <glyph glyph-name="three" unicode="3" 
d="M662 272q0 -64 -23.5 -117t-65 -91t-97 -59t-119.5 -21q-65 0 -118.5 18.5t-93 53t-62.5 82t-26 106.5h122q0 -34 12 -64.5t34.5 -53t55.5 -35.5t76 -13q41 0 74.5 14t57.5 39t37 60.5t13 77.5q0 88 -50.5 134.5t-150.5 46.5h-45v93h27q173 0 173 159q0 70 -37.5 107
t-106.5 37q-142 0 -158 -147h-122q7 60 30.5 105t60.5 75t84.5 45t101.5 15q61 0 110.5 -17.5t85 -49.5t54.5 -76t19 -97q0 -61 -32 -112t-96 -80q40 -10 72.5 -31.5t55 -52t35 -69t12.5 -82.5z" />
    <glyph glyph-name="four" unicode="4" 
d="M658 221h-125v-221h-119v221h-394v104l420 610h93v-610h125v-104zM414 325v423l-284 -423h284z" />
    <glyph glyph-name="five" unicode="5" 
d="M666 314q0 -71 -22.5 -131t-64 -104.5t-99.5 -69.5t-129 -25q-58 0 -109 16t-90.5 48.5t-65 80.5t-32.5 113h123q11 -84 57.5 -124t116.5 -40q43 0 78 17.5t60.5 48t39.5 71.5t14 88q0 48 -14 86.5t-39.5 66t-61.5 42t-79 14.5q-99 0 -168 -76h-93l39 487h495v-109h-394
l-20 -257q68 56 171 56q56 0 108 -21t91.5 -59.5t63.5 -94t24 -124.5z" />
    <glyph glyph-name="six" unicode="6" 
d="M664 300q0 -63 -20.5 -120.5t-58 -101t-91 -69t-119.5 -25.5q-150 0 -233.5 115t-83.5 333q0 507 326 507q51 0 96 -14t79.5 -42.5t57.5 -72t31 -101.5h-122q-18 137 -148 137q-85 0 -137.5 -89t-61.5 -259q90 101 209 101q57 0 107 -22.5t87.5 -62.5t59.5 -95t22 -119z
M540 293q0 47 -12 86t-34.5 67.5t-54.5 44t-71 15.5q-98 0 -191 -100q3 -158 54 -243t141 -85q39 0 70 16.5t52.5 46t33.5 68.5t12 84z" />
    <glyph glyph-name="seven" unicode="7" 
d="M659 840l-335 -840h-133l344 814h-473v109h597v-83z" />
    <glyph glyph-name="eight" unicode="8" 
d="M664 245q0 -57 -22 -105t-62.5 -82.5t-96.5 -54t-125 -19.5q-68 0 -123.5 19t-96 53t-62.5 82t-22 107q0 151 192 240q-156 90 -156 226q0 49 19.5 91t54.5 72.5t84.5 47.5t109.5 17t110 -17t85 -47.5t54.5 -72.5t19.5 -91q0 -136 -156 -226q193 -88 193 -240zM358 534
q147 64 147 177q0 64 -39 99.5t-108 35.5t-107 -35.5t-38 -99.5q0 -113 145 -177zM540 245q0 60 -43 103t-139 85q-50 -23 -84 -44t-56 -43.5t-31.5 -47t-9.5 -53.5q0 -78 50 -122.5t131 -44.5q40 0 73.5 11t57.5 32.5t37.5 52.5t13.5 71z" />
    <glyph glyph-name="nine" unicode="9" 
d="M659 491q0 -507 -326 -507q-51 0 -96 14.5t-79.5 43.5t-57.5 72t-30 100h122q15 -136 148 -136q85 0 137 88.5t62 259.5q-92 -101 -210 -101q-58 0 -108.5 22.5t-87.5 62.5t-58 94.5t-21 118.5q0 63 20 120.5t57.5 101t91 69t120.5 25.5q151 0 233.5 -114t82.5 -334z
M540 517q-3 162 -54.5 245.5t-139.5 83.5q-39 0 -70 -16.5t-53 -46t-34 -68.5t-12 -84q0 -46 11.5 -84.5t34 -67t54 -44.5t72.5 -16q99 0 191 98z" />
    <glyph glyph-name="colon" unicode=":" horiz-adv-x="358" 
d="M244 0h-129v129h129v-129zM244 539h-129v130h129v-130z" />
    <glyph glyph-name="semicolon" unicode=";" horiz-adv-x="358" 
d="M244 0q0 -40 -8 -73.5t-24 -57.5t-40.5 -37.5t-56.5 -13.5v60q64 0 64 122h-64v129h129v-129zM244 539h-129v130h129v-130z" />
    <glyph glyph-name="less" unicode="&#x3c;" horiz-adv-x="753" 
d="M683 143l-612 260v105l612 260v-113l-486 -199l486 -200v-113z" />
    <glyph glyph-name="equal" unicode="=" horiz-adv-x="753" 
d="M683 543h-612v106h612v-106zM683 262h-612v106h612v-106z" />
    <glyph glyph-name="greater" unicode="&#x3e;" horiz-adv-x="753" 
d="M683 403l-612 -260v113l485 200l-485 199v113l612 -260v-105z" />
    <glyph glyph-name="question" unicode="?" 
d="M655 688q0 -32 -6 -59.5t-21.5 -55t-41.5 -56t-65 -61.5t-61.5 -55.5t-34 -45.5t-14 -52t-2.5 -76h-111q0 58 5 96t19 68t38.5 57.5t62.5 64.5l47.5 44.5t34.5 35.5t21 37t7 50q0 36 -13 66.5t-36 52.5t-55 34.5t-69 12.5q-151 0 -178 -174h-122q4 60 27.5 109t62.5 84.5
t92 54.5t116 19q67 0 122 -19t94 -53t60 -79.5t21 -99.5zM422 0h-129v129h129v-129z" />
    <glyph glyph-name="at" unicode="@" horiz-adv-x="1310" 
d="M1235 449q0 -106 -28.5 -189.5t-79.5 -141.5t-120.5 -88.5t-151.5 -30.5q-54 0 -86 29.5t-35 75.5q-75 -105 -194 -105q-50 0 -91.5 18t-72 51.5t-47.5 81.5t-17 107q0 55 13 108t36.5 100.5t54.5 87t67.5 68.5t76 45.5t79.5 16.5q136 0 198 -81l15 62h112l-97 -422
q-16 -67 -16 -106q0 -45 34 -45q54 0 100.5 25t81.5 72t55 114t20 150q0 86 -32.5 159.5t-91.5 127t-141.5 84t-182.5 30.5q-117 0 -214 -44.5t-167 -120.5t-109 -177.5t-39 -215.5t37 -203t107 -150t170.5 -93t228.5 -32q158 0 265 49l46 -77q-137 -60 -310 -60
q-149 0 -267 39t-200 112.5t-126 178.5t-44 236q0 277 177 462q178 184 447 184q123 0 222.5 -37.5t170 -103.5t108.5 -156t38 -195zM816 510q-52 79 -168 79q-44 0 -83.5 -29t-70 -76t-48.5 -105.5t-18 -117.5q0 -170 135 -170q33 0 65 14.5t59.5 41.5t48 64.5t31.5 83.5z
" />
    <glyph glyph-name="A" unicode="A" horiz-adv-x="860" 
d="M581 378l-162 428l-156 -428h318zM862 0h-138l-107 281h-387l-102 -281h-129l355 923h131z" />
    <glyph glyph-name="B" unicode="B" horiz-adv-x="860" 
d="M794 268q0 -132 -87.5 -200t-257.5 -68h-345v923h328q75 0 133.5 -16.5t99 -47t62 -74t21.5 -97.5q0 -134 -133 -198q45 -11 79 -33t56 -51.5t33 -65t11 -72.5zM225 537h206q103 0 150 32t47 108q0 33 -10.5 59t-34.5 43t-64 26t-100 9h-194v-277zM225 110h223
q219 0 219 158q0 41 -12 71t-39.5 49.5t-72.5 29t-111 9.5h-207v-317z" />
    <glyph glyph-name="C" unicode="C" horiz-adv-x="932" 
d="M866 644h-126q-5 43 -24.5 78t-51.5 60t-76 38.5t-97 13.5q-71 0 -127.5 -25t-95.5 -73t-60 -117t-21 -157q0 -90 21 -159.5t60.5 -117t95.5 -72t125 -24.5q113 0 177.5 54t73.5 150h126q-7 -75 -38 -132.5t-80.5 -97t-115.5 -59.5t-142 -20q-98 0 -177.5 33.5t-135.5 96
t-86.5 150.5t-30.5 198q0 109 30.5 197.5t86.5 150.5t135.5 95.5t177.5 33.5q75 0 140.5 -21.5t115.5 -60t81.5 -93t38.5 -120.5z" />
    <glyph glyph-name="D" unicode="D" horiz-adv-x="932" 
d="M104 923h292q471 0 471 -456q0 -467 -471 -467h-292v923zM225 110h168q104 0 171.5 25t106.5 71t54.5 112t15.5 149q0 81 -15.5 145t-55 109t-107 69t-170.5 24h-168v-704z" />
    <glyph glyph-name="E" unicode="E" horiz-adv-x="860" 
d="M792 0h-688v923h667v-109h-546v-282h510v-110h-510v-312h567v-110z" />
    <glyph glyph-name="F" unicode="F" horiz-adv-x="788" 
d="M727 814h-502v-286h434v-109h-434v-419h-121v923h623v-109z" />
    <glyph glyph-name="G" unicode="G" horiz-adv-x="1004" 
d="M507 -16q-99 0 -181.5 34.5t-141.5 97.5t-91.5 151t-32.5 195q0 106 31.5 193.5t89.5 150.5t140 98t182 35q82 0 153 -21t124 -59.5t85.5 -93t38.5 -121.5h-126q-8 87 -78.5 138.5t-194.5 51.5q-71 0 -129.5 -24.5t-100.5 -72t-65 -117t-23 -158.5q0 -87 22.5 -156
t64.5 -117.5t101 -74t131 -25.5q199 0 297 132v140h-244v110h362v-471h-87l-31 97q-95 -113 -296 -113z" />
    <glyph glyph-name="H" unicode="H" horiz-adv-x="932" 
d="M828 0h-122v435h-481v-435h-121v923h121v-378h481v378h122v-923z" />
    <glyph glyph-name="I" unicode="I" horiz-adv-x="358" 
d="M242 0h-124v923h124v-923z" />
    <glyph glyph-name="J" unicode="J" horiz-adv-x="645" 
d="M542 295q0 -84 -16.5 -143t-49 -96.5t-81 -54.5t-112.5 -17q-57 0 -103 18.5t-78.5 52.5t-50 80.5t-17.5 103.5v24h124q0 -168 125 -168q33 0 58 7.5t42.5 28.5t26.5 59t9 99v634h123v-628z" />
    <glyph glyph-name="K" unicode="K" horiz-adv-x="860" 
d="M858 0h-161l-328 461l-144 -141v-320h-121v923h121v-457l451 457h165l-387 -378z" />
    <glyph glyph-name="L" unicode="L" 
d="M675 0h-571v923h121v-813h450v-110z" />
    <glyph glyph-name="M" unicode="M" horiz-adv-x="1074" 
d="M972 0h-117v785l-263 -785h-110l-263 785v-785h-115v923h182l251 -769l251 769h184v-923z" />
    <glyph glyph-name="N" unicode="N" horiz-adv-x="932" 
d="M828 0h-125l-484 729v-729h-115v923h124l484 -728v728h116v-923z" />
    <glyph glyph-name="O" unicode="O" horiz-adv-x="1004" 
d="M503 939q97 0 178 -34t139.5 -96.5t91 -150.5t32.5 -196q0 -109 -33 -197t-91.5 -150.5t-139.5 -96.5t-177 -34q-97 0 -178 34.5t-140 97.5t-92 151t-33 195q0 105 32 193t90.5 151t140 98t180.5 35zM502 89q70 0 128.5 26t100 74.5t64.5 117.5t23 155q0 87 -23 156
t-64.5 117t-99 73.5t-126.5 25.5q-70 0 -128.5 -25t-100.5 -73t-65.5 -117t-23.5 -157q0 -87 23.5 -156t65 -117.5t99.5 -74t127 -25.5z" />
    <glyph glyph-name="P" unicode="P" horiz-adv-x="860" 
d="M104 923h386q61 0 118 -12.5t100.5 -43.5t69.5 -83t26 -130q0 -141 -87.5 -213t-258.5 -72h-233v-369h-121v923zM225 479h234q119 0 168.5 44t49.5 127q0 48 -16 79.5t-44.5 50.5t-66.5 26.5t-81 7.5h-244v-335z" />
    <glyph glyph-name="Q" unicode="Q" horiz-adv-x="1004" 
d="M960 13l-72 -87l-153 121q-104 -63 -232 -63q-97 0 -178 34.5t-140 97.5t-92 151t-33 195q0 105 32 193t90.5 151t140 98t180.5 35q97 0 178 -34t139.5 -96.5t91 -150.5t32.5 -196q0 -207 -119 -344zM733 191q85 100 85 271q0 87 -23 156t-64.5 117t-99 73.5t-126.5 25.5
q-70 0 -128.5 -25t-100.5 -73t-65.5 -117t-23.5 -157q0 -87 23.5 -156t65 -117.5t99.5 -74t127 -25.5q76 0 139 31l-92 72l73 87z" />
    <glyph glyph-name="R" unicode="R" horiz-adv-x="932" 
d="M873 0h-132l-87 246q-12 33 -32 60t-46 47t-57.5 31t-66.5 11h-227v-395h-121v923h408q75 0 135.5 -13t103.5 -43t66.5 -80t23.5 -123q0 -49 -15 -89.5t-42.5 -71.5t-65.5 -52t-84 -32q96 -32 147 -168zM225 505h273q56 0 97 8t67.5 26.5t39.5 49t13 75.5q0 158 -198 158
h-292v-317z" />
    <glyph glyph-name="S" unicode="S" horiz-adv-x="860" 
d="M452 -16q-99 0 -172.5 23.5t-122 65.5t-73 99.5t-26.5 124.5h118q4 -52 26.5 -90t58.5 -63t83.5 -37t102.5 -12q50 0 92 10.5t72 30.5t47 49t17 66q0 39 -15 65.5t-49.5 46t-89.5 35.5t-135 33q-81 17 -137.5 40t-91.5 53.5t-51 69.5t-16 89q0 56 23.5 103t66 81
t103.5 53t136 19q78 0 141.5 -18.5t109.5 -54t72.5 -87t28.5 -117.5h-119q-17 168 -228 168q-104 0 -159.5 -39t-55.5 -101q0 -29 9 -50t33 -37t65.5 -29.5t105.5 -27.5q63 -14 111.5 -27.5t84.5 -25.5q34 -12 65.5 -32t56 -48.5t39.5 -66t15 -85.5q0 -60 -25.5 -110.5
t-70.5 -87.5t-108 -58t-138 -21z" />
    <glyph glyph-name="T" unicode="T" horiz-adv-x="788" 
d="M760 814h-306v-814h-123v814h-303v109h732v-109z" />
    <glyph glyph-name="U" unicode="U" horiz-adv-x="932" 
d="M466 -16q-82 0 -141 16t-99 44t-64 66.5t-37 83.5t-17 94.5t-4 100.5v534h121v-532q0 -92 15.5 -150t46 -90.5t75.5 -44t104 -11.5q58 0 103 12t75.5 44.5t46 90t15.5 149.5v532h122v-534q0 -95 -16.5 -170.5t-57.5 -127.5t-111 -79.5t-177 -27.5z" />
    <glyph glyph-name="V" unicode="V" horiz-adv-x="860" 
d="M852 923l-359 -923h-126l-359 923h130l292 -791l291 791h131z" />
    <glyph glyph-name="W" unicode="W" horiz-adv-x="1218" 
d="M1205 923l-256 -923h-117l-222 803l-222 -803h-117l-256 923h129l185 -751l208 751h146l208 -751l185 751h129z" />
    <glyph glyph-name="X" unicode="X" horiz-adv-x="860" 
d="M854 0h-150l-273 391l-275 -391h-150l355 487l-320 436h150l239 -341l240 341h149l-321 -436z" />
    <glyph glyph-name="Y" unicode="Y" horiz-adv-x="860" 
d="M854 923l-363 -532v-391h-122v391l-363 532h149l276 -425l275 425h148z" />
    <glyph glyph-name="Z" unicode="Z" horiz-adv-x="788" 
d="M753 0h-730v115l574 699h-521v109h662v-114l-574 -699h589v-110z" />
    <glyph glyph-name="bracketleft" unicode="[" horiz-adv-x="358" 
d="M338 -257h-250v1180h250v-93h-131v-992h131v-95z" />
    <glyph glyph-name="backslash" unicode="\" horiz-adv-x="358" 
d="M358 0h-91l-267 923h91z" />
    <glyph glyph-name="bracketright" unicode="]" horiz-adv-x="358" 
d="M271 -257h-250v95h132v992h-132v93h250v-1180z" />
    <glyph glyph-name="asciicircum" unicode="^" horiz-adv-x="606" 
d="M557 535h-116l-139 274l-140 -274h-115l210 388h90z" />
    <glyph glyph-name="underscore" unicode="_" horiz-adv-x="712" 
d="M720 -203h-728v64h728v-64z" />
    <glyph glyph-name="grave" unicode="`" horiz-adv-x="430" 
d="M286 762h-93l-139 177h149z" />
    <glyph glyph-name="a" unicode="a" 
d="M511 176v148h-81q-258 0 -258 -141q0 -51 37 -78t103 -27q29 0 57.5 6.5t54.5 19.5t48.5 31t38.5 41zM511 69q-92 -85 -234 -85q-49 0 -91 14t-72.5 39.5t-47.5 61t-17 78.5q0 235 404 235h58q0 46 -4 80t-19.5 56t-47.5 32.5t-89 10.5q-160 0 -164 -114h-118
q14 206 288 206q64 0 114.5 -10.5t85.5 -38.5t53.5 -77t18.5 -125v-432h-118v69z" />
    <glyph glyph-name="b" unicode="b" 
d="M207 589q79 94 191 94q65 0 116 -24.5t86 -69t53.5 -108t18.5 -141.5q0 -81 -21 -147t-59 -112.5t-90 -71.5t-113 -25q-108 0 -182 68v-52h-119v923h119v-334zM207 159q75 -81 175 -81q78 0 122.5 65t44.5 197q0 125 -42 188t-120 63q-98 0 -180 -115v-317z" />
    <glyph glyph-name="c" unicode="c" horiz-adv-x="645" 
d="M358 -16q-69 0 -126.5 22.5t-99 67t-64 109.5t-22.5 151q0 85 22.5 150.5t64 109.5t99 66.5t126.5 22.5q57 0 104 -15t82 -42.5t56.5 -67.5t27.5 -90h-122q-2 30 -14.5 53t-32.5 38.5t-46.5 23.5t-54.5 8q-43 0 -78 -17t-60 -49.5t-39 -80.5t-14 -110q0 -125 51.5 -190.5
t139.5 -65.5q28 0 54.5 7t46.5 22t32.5 38t14.5 55h122q-6 -53 -29 -93.5t-59 -67.5t-82.5 -41t-99.5 -14z" />
    <glyph glyph-name="d" unicode="d" 
d="M511 192v318q-78 81 -176 81q-76 0 -122 -65t-46 -197q0 -125 43.5 -188t119.5 -63q98 0 181 114zM511 80q-80 -96 -191 -96q-65 0 -115.5 24t-86 68.5t-54 108.5t-18.5 144q0 82 21 147.5t58.5 111.5t89 70.5t113.5 24.5q109 0 183 -66v306h118v-923h-118v80z" />
    <glyph glyph-name="e" unicode="e" 
d="M372 -16q-73 0 -133 23.5t-103 68t-66.5 109.5t-23.5 149q0 82 23 147t64.5 110t98.5 68.5t126 23.5q72 0 130 -23.5t99 -68t63 -109.5t22 -148v-29h-503q4 -59 21 -102t44 -71t62.5 -41t75.5 -13q30 0 59 7.5t52 23t37.5 38.5t16.5 53h122q-7 -53 -32 -93.5t-63 -67.5
t-87.5 -41t-104.5 -14zM547 399q-15 97 -64.5 144.5t-124.5 47.5q-35 0 -65.5 -11.5t-55 -35t-41.5 -60t-24 -85.5h375z" />
    <glyph glyph-name="f" unicode="f" horiz-adv-x="358" 
d="M227 575v-575h-118v575h-99v94h99v58q0 212 186 212q62 0 89 -7v-104q-17 4 -35 5t-37 1q-43 0 -64 -23.5t-21 -83.5v-58h127v-94h-127z" />
    <glyph glyph-name="g" unicode="g" 
d="M629 52q0 -323 -291 -323q-63 0 -113 14.5t-85.5 40.5t-54.5 63.5t-19 83.5h124q0 -110 147 -110q39 0 71.5 9.5t55 34.5t35 69t12.5 113v33q-80 -96 -191 -96q-65 0 -115.5 24t-86 68.5t-54 108.5t-18.5 144q0 82 21 147.5t58.5 111.5t89 70.5t113.5 24.5q109 0 183 -66
v52h118v-617zM511 192v318q-78 81 -176 81q-76 0 -122 -65t-46 -197q0 -125 43.5 -188t119.5 -63q98 0 181 114z" />
    <glyph glyph-name="h" unicode="h" 
d="M207 583q88 100 199 100q227 0 227 -245v-438h-120v432q0 82 -29 118t-96 36q-91 0 -181 -107v-479h-119v923h119v-340z" />
    <glyph glyph-name="i" unicode="i" horiz-adv-x="294" 
d="M207 0h-119v669h119v-669zM207 795h-119v128h119v-128z" />
    <glyph glyph-name="j" unicode="j" horiz-adv-x="294" 
d="M207 -36q0 -74 -12.5 -120t-35 -71.5t-54.5 -34t-71 -8.5q-23 0 -43.5 1.5t-36.5 5.5v101q34 -10 67 -10q19 0 31.5 6t20.5 21.5t11.5 42.5t3.5 68v703h119v-705zM207 795h-119v128h119v-128z" />
    <glyph glyph-name="k" unicode="k" horiz-adv-x="645" 
d="M640 0h-142l-217 340l-74 -74v-266h-119v923h119v-523l257 269h150l-253 -250z" />
    <glyph glyph-name="l" unicode="l" horiz-adv-x="294" 
d="M207 0h-119v923h119v-923z" />
    <glyph glyph-name="m" unicode="m" horiz-adv-x="1074" 
d="M991 0h-119v432q0 84 -23.5 119t-80.5 35q-86 0 -169 -107v-479h-119v432q0 83 -24 118.5t-81 35.5q-87 0 -168 -107v-479h-119v669h119v-86q82 100 186 100q147 0 188 -120q34 40 62 64t52 36.5t45.5 16t44.5 3.5q206 0 206 -245v-438z" />
    <glyph glyph-name="n" unicode="n" 
d="M207 583q88 100 199 100q227 0 227 -245v-438h-120v432q0 82 -29 118t-96 36q-91 0 -181 -107v-479h-119v669h119v-86z" />
    <glyph glyph-name="o" unicode="o" 
d="M358 683q72 0 130 -23.5t99 -68t63 -109.5t22 -148q0 -86 -23 -151t-64.5 -109.5t-99 -67t-127.5 -22.5q-69 0 -126.5 22.5t-99 67t-64 109.5t-22.5 151q0 85 22.5 150.5t64 109.5t99 66.5t126.5 22.5zM358 78q88 0 139.5 64.5t51.5 191.5q0 65 -14 113t-39.5 80
t-60.5 48t-77 16q-43 0 -78 -17t-60 -49.5t-39 -80.5t-14 -110q0 -125 51.5 -190.5t139.5 -65.5z" />
    <glyph glyph-name="p" unicode="p" 
d="M207 589q79 94 191 94q65 0 116 -24.5t86 -69t53.5 -108t18.5 -141.5q0 -81 -21 -147t-59 -112.5t-90 -71.5t-113 -25q-108 0 -182 68v-309h-119v926h119v-80zM207 159q75 -81 175 -81q78 0 122.5 65t44.5 197q0 125 -42 188t-120 63q-98 0 -180 -115v-317z" />
    <glyph glyph-name="q" unicode="q" 
d="M629 -257h-118v337q-80 -96 -191 -96q-65 0 -115.5 24t-86 68.5t-54 108.5t-18.5 144q0 82 21 147.5t58.5 111.5t89 70.5t113.5 24.5q109 0 183 -66v52h118v-926zM511 192v318q-78 81 -176 81q-76 0 -122 -65t-46 -197q0 -125 43.5 -188t119.5 -63q98 0 181 114z" />
    <glyph glyph-name="r" unicode="r" horiz-adv-x="430" 
d="M435 560q-29 8 -73 8q-90 0 -155 -95v-473h-119v669h119v-94q72 108 174 108q13 0 26 -1t28 -4v-118z" />
    <glyph glyph-name="s" unicode="s" horiz-adv-x="645" 
d="M326 -16q-274 0 -286 216h119q2 -122 166 -122q75 0 113 29.5t38 77.5q0 22 -7.5 36.5t-28.5 26t-59 23t-99 26.5q-60 15 -102.5 29.5t-70.5 36t-41 52t-13 76.5q0 42 17.5 77t50 60.5t79 40t103.5 14.5q262 0 268 -187h-119q-6 95 -142 95q-28 0 -53 -5.5t-44 -16.5
t-30 -28t-11 -39q0 -20 4 -32.5t22 -23t54.5 -21t101.5 -26.5q60 -15 105 -30.5t74.5 -38t44.5 -54.5t15 -80q0 -44 -18.5 -83t-53.5 -67.5t-85 -45t-112 -16.5z" />
    <glyph glyph-name="t" unicode="t" horiz-adv-x="358" 
d="M347 -1q-20 -4 -41 -6t-44 -2q-56 0 -88 14t-47.5 40.5t-19 64.5t-3.5 86v379h-82v94h82v165h119v-165h108v-94h-108v-385q0 -35 4.5 -56t12.5 -32t20.5 -14.5t27.5 -3.5q16 0 30.5 1t28.5 4v-90z" />
    <glyph glyph-name="u" unicode="u" 
d="M511 85q-89 -101 -199 -101q-227 0 -227 247v438h119v-433q0 -82 29 -117.5t96 -35.5q99 0 182 107v479h118v-669h-118v85z" />
    <glyph glyph-name="v" unicode="v" horiz-adv-x="645" 
d="M628 669l-253 -669h-106l-252 669h129l177 -523l177 523h128z" />
    <glyph glyph-name="w" unicode="w" horiz-adv-x="932" 
d="M925 669l-201 -669h-114l-144 491l-145 -491h-113l-202 669h132l123 -510l151 510h107l152 -510l123 510h131z" />
    <glyph glyph-name="x" unicode="x" horiz-adv-x="645" 
d="M636 0h-147l-166 261l-167 -261h-147l247 347l-228 322h148l147 -234l146 234h148l-228 -320z" />
    <glyph glyph-name="y" unicode="y" horiz-adv-x="645" 
d="M125 -161q88 0 144 161l-252 669h129l177 -523l177 523h128l-253 -669q-26 -69 -49 -119.5t-48.5 -84.5t-57 -50.5t-74.5 -16.5q-46 0 -77 9v109q30 -8 56 -8z" />
    <glyph glyph-name="z" unicode="z" horiz-adv-x="645" 
d="M618 0h-592v101l416 467h-392v101h547v-101l-416 -467h437v-101z" />
    <glyph glyph-name="braceleft" unicode="{" horiz-adv-x="431" 
d="M400 -271h-35q-35 0 -66 4.5t-55.5 19.5t-42.5 44t-28 78q-2 13 -3 36.5t-2 52t-1.5 59.5t-1.5 59.5t-2.5 51.5t-2.5 35q-7 47 -35 79.5t-89 34.5v103q44 0 69.5 15.5t38.5 43t17 65.5t4.5 83.5t1 96.5t6.5 104q9 45 26 73.5t41 44t55.5 21.5t69.5 6h35v-98h-19
q-66 0 -81 -35q-14 -33 -14 -186q0 -68 -9 -116.5t-27 -82.5t-45 -54.5t-64 -32.5q36 -11 63 -31t45 -53.5t27.5 -82.5t9.5 -118q0 -154 14 -187q15 -35 81 -35h19v-98z" />
    <glyph glyph-name="bar" unicode="|" horiz-adv-x="335" 
d="M217 -271h-99v1194h99v-1194z" />
    <glyph glyph-name="braceright" unicode="}" horiz-adv-x="431" 
d="M31 939h35q39 0 71.5 -7t57.5 -23.5t41 -44.5t21 -70q3 -22 4.5 -64l3 -87t3 -85t4.5 -59q3 -23 11 -43.5t23 -36t37 -24.5t52 -9v-103q-45 -1 -70.5 -17t-38.5 -43.5t-16 -65t-3 -82.5t-1 -96t-9 -104q-5 -42 -20.5 -70t-40.5 -45t-58 -24t-72 -7h-35v98h19q65 0 80 35
q8 17 12.5 63t3.5 124q0 68 8.5 116.5t26 82t44.5 54t65 32.5q-38 12 -65 32.5t-44.5 54t-26 82.5t-8.5 117q0 78 -4 123.5t-12 62.5t-26.5 26t-53.5 9h-19v98z" />
    <glyph glyph-name="asciitilde" unicode="~" horiz-adv-x="753" 
d="M699 796q-66 -76 -173 -76q-69 0 -165 42t-143 42q-80 0 -163 -86v129q67 76 175 76q68 0 163 -42q96 -42 144 -42q82 0 162 86v-129z" />
    <glyph glyph-name="quotesinglbase" unicode="&#x201a;" horiz-adv-x="358" 
d="M244 0q0 -40 -8 -73.5t-24 -57.5t-40.5 -37.5t-56.5 -13.5v60q63 0 63 122h-63v129h129v-129z" />
    <glyph glyph-name="florin" unicode="&#x192;" 
d="M664 808q-26 7 -49.5 10.5t-46.5 3.5q-15 0 -27 -2.5t-21.5 -13t-17 -30.5t-14.5 -55l-13 -66h128l-14 -87h-130l-119 -675q-16 -87 -56.5 -125.5t-113.5 -38.5q-67 0 -129 13v100q35 -7 61.5 -10.5t44.5 -3.5q21 0 34.5 5t22 16.5t13.5 30t10 45.5l113 643h-127l14 87
h128l14 86q9 56 24.5 92.5t38 57.5t51.5 29t65 8q33 0 62 -2.5t54 -7.5v-110z" />
    <glyph glyph-name="quotedblbase" unicode="&#x201e;" horiz-adv-x="505" 
d="M414 0q0 -84 -32 -133t-96 -49v60q63 0 63 122h-63v129h128v-129zM220 0q0 -40 -8 -73.5t-24 -57.5t-40.5 -37.5t-56.5 -13.5v60q63 0 63 122h-63v129h129v-129z" />
    <glyph glyph-name="ellipsis" unicode="&#x2026;" horiz-adv-x="729" 
d="M672 0h-128v129h128v-129zM429 0h-129v129h129v-129zM186 0h-129v129h129v-129z" />
    <glyph glyph-name="dagger" unicode="&#x2020;" 
d="M667 545h-248v-816h-120v816h-249v101h249v277h120v-277h248v-101z" />
    <glyph glyph-name="daggerdbl" unicode="&#x2021;" 
d="M667 6h-248v-277h-120v277h-249v101h249v438h-249v101h249v277h120v-277h247v-101h-247v-438h248v-101z" />
    <glyph glyph-name="perthousand" unicode="&#x2030;" horiz-adv-x="1290" 
d="M404 694q0 -115 -51.5 -180t-143.5 -65q-94 0 -144 66t-50 179q0 115 51 180t143 65q90 0 142.5 -65t52.5 -180zM303 694q0 168 -94 168q-93 0 -93 -168t93 -168q94 0 94 168zM715 923l-492 -923h-91l491 923h92zM832 230q0 -118 -51.5 -182t-142.5 -64q-90 0 -142 63.5
t-52 182.5q0 117 51.5 181t142.5 64q43 0 79 -16t61.5 -46.5t39.5 -76.5t14 -106zM732 230q0 168 -94 168q-93 0 -93 -168t93 -168q94 0 94 168zM1275 230q0 -57 -13.5 -102.5t-38.5 -77.5t-61 -49t-82 -17q-91 0 -142.5 65t-51.5 181q0 115 51 180t143 65q45 0 81 -17
t61.5 -48.5t39 -77t13.5 -102.5zM1175 230q0 168 -95 168q-93 0 -93 -168t93 -168q95 0 95 168z" />
    <glyph glyph-name="guilsinglleft" unicode="&#x2039;" horiz-adv-x="430" 
d="M349 46h-92l-200 287l200 287h92l-163 -287z" />
    <glyph glyph-name="OE" unicode="&#x152;" horiz-adv-x="1290" 
d="M1222 0h-518v122q-20 -31 -48.5 -56.5t-62.5 -43.5t-71.5 -28t-74.5 -10q-92 0 -164 34t-121.5 96t-75.5 150.5t-26 197.5t26 197t76 150.5t121.5 96t163.5 33.5q37 0 74.5 -10t71 -28t62.5 -43t49 -55v120h496v-109h-373v-282h338v-110h-338v-312h395v-110zM445 89
q259 0 259 373q0 372 -256 372q-63 0 -112 -25t-82 -73t-50 -117t-17 -157q0 -92 18 -161.5t52 -116.5t81.5 -71t106.5 -24z" />
    <glyph glyph-name="quoteleft" unicode="&#x2018;" horiz-adv-x="286" 
d="M205 628h-129v129q0 40 8 73.5t23.5 57.5t40 37.5t57.5 13.5v-60q-64 0 -64 -122h64v-129z" />
    <glyph glyph-name="quoteright" unicode="&#x2019;" horiz-adv-x="286" 
d="M208 795q0 -85 -32 -133.5t-98 -48.5v60q63 0 63 122h-63v128h130v-128z" />
    <glyph glyph-name="quotedblleft" unicode="&#x201c;" horiz-adv-x="430" 
d="M377 628h-129v129q0 84 31.5 133t97.5 49v-60q-63 0 -63 -122h63v-129zM182 628h-129v129q0 40 8 73.5t23.5 57.5t40 37.5t57.5 13.5v-60q-64 0 -64 -122h64v-129z" />
    <glyph glyph-name="quotedblright" unicode="&#x201d;" horiz-adv-x="430" 
d="M377 795q0 -85 -32.5 -133.5t-96.5 -48.5v60q64 0 64 122h-64v128h129v-128zM182 795q0 -85 -32.5 -133.5t-96.5 -48.5v60q63 0 63 122h-63v128h129v-128z" />
    <glyph glyph-name="bullet" unicode="&#x2022;" horiz-adv-x="452" 
d="M225 612q33 0 62 -13t51 -35t35 -51t13 -61q0 -33 -13 -62t-34.5 -50.5t-51 -34.5t-62.5 -13q-32 0 -61 12.5t-51 34.5t-34.5 51t-12.5 62q0 32 12.5 61t34.5 51t51 35t61 13z" />
    <glyph glyph-name="endash" unicode="&#x2013;" horiz-adv-x="378" 
d="M386 288h-394v93h394v-93z" />
    <glyph glyph-name="emdash" unicode="&#x2014;" horiz-adv-x="756" 
d="M764 288h-772v93h772v-93z" />
    <glyph glyph-name="trademark" unicode="&#x2122;" horiz-adv-x="882" 
d="M816 473h-77v368l-85 -368h-78l-85 368v-368h-78v450h124l78 -347l78 347h123v-450zM361 848h-122v-375h-85v375h-122v75h329v-75z" />
    <glyph glyph-name="guilsinglright" unicode="&#x203a;" horiz-adv-x="430" 
d="M373 333l-200 -287h-93l164 287l-164 287h93z" />
    <glyph glyph-name="oe" unicode="&#x153;" horiz-adv-x="1218" 
d="M1173 305h-503q3 -56 19.5 -98.5t43 -71t62 -43t77.5 -14.5q30 0 59.5 8t52.5 23t37.5 38t15.5 53h123q-7 -53 -32 -93t-63.5 -67.5t-88 -41.5t-104.5 -14q-170 0 -262 122q-84 -122 -252 -122q-69 0 -126.5 22.5t-99 67t-64 109.5t-22.5 151q0 85 22.5 150.5t64 109.5
t99 66.5t126.5 22.5q168 0 252 -120q87 120 250 120q71 0 128.5 -23.5t98.5 -68t63.5 -109.5t22.5 -148v-29zM1048 399q-15 97 -65.5 144.5t-122.5 47.5q-73 0 -122 -47t-66 -145h376zM358 78q88 0 139.5 64.5t51.5 191.5q0 65 -14 113t-39.5 80t-60.5 48t-77 16
q-43 0 -78 -17t-60 -49.5t-39 -80.5t-14 -110q0 -125 51.5 -190.5t139.5 -65.5z" />
    <glyph glyph-name="Ydieresis" unicode="&#x178;" horiz-adv-x="860" 
d="M854 923l-363 -532v-391h-122v391l-363 532h149l276 -425l275 425h148zM603 1008h-115v129h115v-129zM370 1008h-116v129h116v-129z" />
    <glyph glyph-name="uni00A0" unicode="&#xa0;" horiz-adv-x="645" 
 />
    <glyph glyph-name="exclamdown" unicode="&#xa1;" horiz-adv-x="358" 
d="M244 539h-129v130h129v-130zM230 437v-693h-105v693h105z" />
    <glyph glyph-name="cent" unicode="&#xa2;" 
d="M654 200q-7 -52 -29.5 -92.5t-58 -68t-82 -41.5t-100.5 -14q-17 0 -33.5 2t-35.5 5l-41 -149l-66 19l41 149q-178 81 -178 324q0 83 22 148t63 109.5t99 68t129 23.5q14 0 26.5 -0.5t25.5 -2.5l40 146l66 -18l-40 -144q136 -51 152 -196h-122q-2 66 -57 100l-134 -485
q11 -3 21.5 -4t21.5 -1q29 0 55 7.5t46.5 22.5t32.5 38t14 54h122zM410 589q-10 2 -26 2q-42 0 -77.5 -16.5t-60.5 -48.5t-39 -80t-14 -112q0 -161 84 -222z" />
    <glyph glyph-name="sterling" unicode="&#xa3;" 
d="M666 13q-64 -29 -134 -29q-19 0 -57 9l-80.5 19.5l-81.5 19.5t-59 9q-102 0 -223 -57v114q32 17 56.5 38.5t41.5 50t26 65.5t9 86q0 40 -10 79h-123v93h97q-17 54 -24.5 95.5t-7.5 70.5q0 61 21 110t58.5 83t90.5 52t116 18q58 0 107.5 -15.5t86 -45.5t58.5 -74.5
t27 -102.5h-123q-12 145 -159 145q-36 0 -65.5 -12.5t-51 -34.5t-33 -50.5t-11.5 -61.5q0 -69 35 -177h197v-93h-176q10 -27 10 -56q0 -40 -6 -72.5t-19.5 -60t-35 -52.5t-53.5 -51q23 8 45.5 11t46.5 3q23 0 62 -6.5t79.5 -14l74.5 -14t48 -6.5q72 0 140 35v-120z" />
    <glyph glyph-name="currency" unicode="&#xa4;" 
d="M670 222l-74 -74l-88 87q-34 -23 -71 -34t-79 -11q-82 0 -149 46l-87 -88l-74 74l87 88q-44 71 -44 146q0 76 44 147l-87 89l74 73l87 -88q68 47 149 47q82 0 150 -47l88 88l74 -73l-88 -89q44 -71 44 -147t-45 -146zM358 293q33 0 63 13t52.5 35t35.5 51.5t13 63.5
t-13 63.5t-35.5 52t-52 35.5t-63.5 13t-63.5 -13t-51.5 -35.5t-35 -52t-13 -63.5q0 -33 13 -62.5t35 -52t51.5 -35.5t63.5 -13z" />
    <glyph glyph-name="yen" unicode="&#xa5;" 
d="M718 923l-242 -421h200v-88h-259v-114h259v-87h-259v-213h-114v213h-262v87h262v114h-262v88h201l-241 421h134l223 -409l225 409h135z" />
    <glyph glyph-name="section" unicode="&#xa7;" 
d="M485 721q-12 125 -134 125q-57 0 -88.5 -27.5t-31.5 -72.5q0 -21 7 -39t29.5 -39.5t66 -50t116.5 -71.5q69 -41 111 -73.5t64.5 -62t29.5 -57.5t7 -60q0 -113 -143 -182q99 -65 99 -175q0 -45 -19 -83t-53 -65.5t-79.5 -43t-98.5 -15.5q-56 0 -103 14.5t-83 43t-59.5 71
t-30.5 98.5h124q12 -132 152 -132q32 0 57 9t41.5 24.5t25 35.5t8.5 41q0 22 -9.5 41t-35.5 41.5t-72.5 52l-120.5 73.5q-71 43 -112.5 77t-62.5 64.5t-27 59.5t-6 62q0 115 142 179q-84 73 -84 157q0 38 16 73.5t46 63.5t73 44.5t97 16.5q118 0 185.5 -57.5t78.5 -160.5
h-123zM463 155q85 42 85 116q0 22 -8 42t-27 41t-49.5 43.5t-75.5 49.5q-47 28 -80.5 52l-56.5 41q-84 -41 -84 -121q0 -24 6.5 -44t24 -40t48.5 -42.5t81 -53.5l83.5 -50t52.5 -34z" />
    <glyph glyph-name="dieresis" unicode="&#xa8;" horiz-adv-x="430" 
d="M389 788h-115v129h115v-129zM156 788h-116v129h116v-129z" />
    <glyph glyph-name="circumflex" unicode="&#x2c6;" horiz-adv-x="509" 
d="M454 762h-128l-72 107l-71 -107h-128l139 177h121z" />
    <glyph glyph-name="tilde" unicode="&#x2dc;" horiz-adv-x="532" 
d="M477 925q0 -68 -35.5 -106t-91.5 -38q-13 0 -38.5 8.5l-52 18l-48.5 18t-28 8.5q-39 0 -45 -55h-83q0 66 36 105t92 39q15 0 40.5 -8t52 -18l47.5 -18t27 -8q39 0 45 54h82z" />
    <glyph glyph-name="copyright" unicode="&#xa9;" horiz-adv-x="951" 
d="M476 939q97 0 183 -38t151 -102.5t103 -151t38 -183.5q0 -96 -37 -182t-101.5 -151t-151 -103.5t-185.5 -38.5q-98 0 -184.5 37.5t-151 102.5t-102.5 151t-38 184t38 184.5t103 151t151.5 102t183.5 37.5zM475 66q80 0 152 31.5t126.5 85.5t86.5 126.5t32 154.5
q0 80 -31 152t-85 126t-126.5 86t-154.5 32t-154.5 -32t-126.5 -86t-85 -126t-31 -152q0 -81 31.5 -153.5t85.5 -126.5t126.5 -86t153.5 -32zM702 364q-44 -173 -225 -173q-54 0 -100 18.5t-79.5 53.5t-52 85.5t-18.5 114.5q0 63 18 112.5t51 84t80 52.5t106 18q41 0 77 -11
t64.5 -31t47.5 -50t26 -67h-88q-20 90 -130 90q-40 0 -71 -14.5t-52 -41t-31.5 -63t-10.5 -81.5q0 -44 11.5 -79.5t32.5 -61.5t51 -40t67 -14q117 0 138 98h88z" />
    <glyph glyph-name="ordfeminine" unicode="&#xaa;" horiz-adv-x="477" 
d="M340 612v78h-57q-161 0 -161 -87q0 -58 82 -58q15 0 34 5t38 14t36 21t28 27zM340 482v44q-61 -55 -159 -55q-33 0 -61.5 9.5t-49 26.5t-32 40.5t-11.5 52.5q0 157 271 157h42q0 36 -7.5 57.5t-21 32.5t-33 14.5t-43.5 3.5q-99 0 -102 -63h-92q12 137 199 137
q98 0 144 -39t46 -129v-289h-90zM422 326h-372v74h372v-74z" />
    <glyph glyph-name="guillemotleft" unicode="&#xab;" 
d="M628 46h-93l-200 287l200 287h93l-164 -287zM382 46h-93l-200 287l200 287h93l-164 -287z" />
    <glyph glyph-name="logicalnot" unicode="&#xac;" horiz-adv-x="753" 
d="M683 262h-107v281h-505v106h612v-387z" />
    <glyph glyph-name="registered" unicode="&#xae;" horiz-adv-x="951" 
d="M476 939q97 0 183 -38t151 -102.5t103 -151t38 -183.5q0 -96 -37 -182t-101.5 -151t-151 -103.5t-185.5 -38.5q-98 0 -184.5 37.5t-151 102.5t-102.5 151t-38 184t38 184.5t103 151t151.5 102t183.5 37.5zM475 66q80 0 152 31.5t126.5 85.5t86.5 126.5t32 154.5
q0 80 -31 152t-85 126t-126.5 86t-154.5 32t-154.5 -32t-126.5 -86t-85 -126t-31 -152q0 -81 31.5 -153.5t85.5 -126.5t126.5 -86t153.5 -32zM690 201h-95l-40 111q-36 100 -136 100h-64v-211h-83v511h192q203 0 203 -141q0 -135 -133 -145q68 -21 101 -97zM355 484h103
q122 0 122 79q0 80 -126 80h-99v-159z" />
    <glyph glyph-name="macron" unicode="&#xaf;" horiz-adv-x="430" 
d="M412 805h-394v94h394v-94z" />
    <glyph glyph-name="degree" unicode="&#xb0;" horiz-adv-x="516" 
d="M258 935q36 0 67.5 -14t55 -37.5t37.5 -55t14 -67.5t-14 -68t-37.5 -56t-55 -37.5t-67.5 -13.5t-67.5 13.5t-55 37.5t-37.5 56t-14 68q0 37 14 68.5t38 55t55.5 37t66.5 13.5zM258 654q22 0 41 8.5t33.5 23t23 34t8.5 41.5t-8.5 41.5t-23 34t-34 22.5t-40.5 8
q-20 0 -39 -7.5t-33.5 -21.5t-23.5 -33.5t-9 -43.5t8.5 -43.5t23 -34t33.5 -22t40 -7.5z" />
    <glyph glyph-name="plusminus" unicode="&#xb1;" horiz-adv-x="753" 
d="M683 430h-253v-253h-106v253h-253v105h253v253h106v-253h253v-105zM683 0h-612v106h612v-106z" />
    <glyph glyph-name="acute" unicode="&#xb4;" horiz-adv-x="430" 
d="M375 939l-139 -177h-93l84 177h148z" />
    <glyph glyph-name="mu" unicode="&#xb5;" 
d="M703 -13q-11 -3 -33 -3q-126 0 -156 106q-85 -106 -200 -106q-60 0 -109 31l2 -272h-119v926h119v-455q0 -131 131 -131q25 0 46 4.5t41 16.5t41 32.5t45 53.5v479h118v-518q0 -68 54 -68q14 0 20 2v-98z" />
    <glyph glyph-name="paragraph" unicode="&#xb6;" horiz-adv-x="693" 
d="M696 831h-90v-1088h-106v1088h-142v-1088h-105v658q-61 4 -108.5 25t-79.5 54.5t-49 79t-17 98.5q0 63 20.5 112t59 83t94 52t124.5 18h399v-92z" />
    <glyph glyph-name="periodcentered" unicode="&#xb7;" horiz-adv-x="358" 
d="M244 389h-129v130h129v-130z" />
    <glyph glyph-name="cedilla" unicode="&#xb8;" horiz-adv-x="430" 
d="M234 -48q106 -13 106 -100q0 -123 -192 -123q-28 0 -64 3v73q17 -2 34 -3t35 -1q81 0 81 52q0 48 -88 48v99h88v-48z" />
    <glyph glyph-name="ordmasculine" unicode="&#xba;" horiz-adv-x="471" 
d="M236 939q46 0 84.5 -16t66 -46.5t42.5 -74.5t15 -99q0 -56 -15 -100t-42.5 -74.5t-66 -46.5t-84.5 -16t-84.5 16t-66 46t-42.5 74t-15 101q0 55 15 99t42.5 74.5t66 46.5t84.5 16zM236 549q113 0 113 154q0 152 -113 152t-113 -152q0 -154 113 -154zM422 326h-372v74h372
v-74z" />
    <glyph glyph-name="guillemotright" unicode="&#xbb;" 
d="M628 333l-200 -287h-93l165 287l-165 287h93zM382 333l-200 -287h-93l164 287l-164 287h93z" />
    <glyph glyph-name="questiondown" unicode="&#xbf;" 
d="M658 -4q-5 -61 -29 -110.5t-63 -84t-92 -53.5t-116 -19q-65 0 -119.5 18.5t-93.5 52t-61 79.5t-22 101q0 32 6.5 60t21.5 55.5t41 55.5t65 61q40 34 62.5 57t33.5 46t13.5 52t2.5 74h111q0 -118 -27 -172q-14 -27 -39 -55.5t-60 -59.5q-35 -30 -56.5 -52t-33 -40.5
t-15 -35.5t-3.5 -37q0 -38 13.5 -69t37 -53t54.5 -34t67 -12q153 0 178 175h123zM425 539h-130v130h130v-130z" />
    <glyph glyph-name="Agrave" unicode="&#xc0;" horiz-adv-x="860" 
d="M581 378l-162 428l-156 -428h318zM862 0h-138l-107 281h-387l-102 -281h-129l355 923h131zM486 1022h-93l-139 177h149z" />
    <glyph glyph-name="Aacute" unicode="&#xc1;" horiz-adv-x="860" 
d="M581 378l-162 428l-156 -428h318zM862 0h-138l-107 281h-387l-102 -281h-129l355 923h131zM578 1199l-139 -177h-93l84 177h148z" />
    <glyph glyph-name="Acircumflex" unicode="&#xc2;" horiz-adv-x="860" 
d="M581 378l-162 428l-156 -428h318zM862 0h-138l-107 281h-387l-102 -281h-129l355 923h131zM620 1022h-128l-72 107l-71 -107h-128l139 177h121z" />
    <glyph glyph-name="Atilde" unicode="&#xc3;" horiz-adv-x="860" 
d="M581 378l-162 428l-156 -428h318zM862 0h-138l-107 281h-387l-102 -281h-129l355 923h131zM636 1145q0 -68 -35.5 -106t-91.5 -38q-13 0 -38.5 8.5l-52 18l-48.5 18t-28 8.5q-39 0 -45 -55h-83q0 66 36 105t92 39q15 0 40.5 -8t52 -18l47.5 -18t27 -8q39 0 45 54h82z" />
    <glyph glyph-name="Adieresis" unicode="&#xc4;" horiz-adv-x="860" 
d="M581 378l-162 428l-156 -428h318zM862 0h-138l-107 281h-387l-102 -281h-129l355 923h131zM594 1048h-115v129h115v-129zM361 1048h-116v129h116v-129z" />
    <glyph glyph-name="Aring" unicode="&#xc5;" horiz-adv-x="860" 
d="M581 378l-162 428l-156 -428h318zM862 0h-138l-107 281h-387l-102 -281h-129l355 923h131zM533 1037q0 -24 -9 -45t-24.5 -36t-36 -24t-43.5 -9q-24 0 -44.5 9t-35.5 24.5t-24 36.5t-9 44t9 43.5t24 36.5t35.5 25t44.5 9q23 0 43.5 -9t36 -24.5t24.5 -36t9 -44.5z
M488 1037q0 30 -22 49t-46 19q-27 0 -46.5 -19.5t-19.5 -48.5t19 -49t47 -20q13 0 25.5 5.5t22 15t15 22t5.5 26.5z" />
    <glyph glyph-name="AE" unicode="&#xc6;" horiz-adv-x="1290" 
d="M1219 0h-604v267h-326l-148 -267h-141l532 923h666v-109h-460v-282h424v-110h-424v-312h481v-110zM615 375v439h-26l-240 -439h266z" />
    <glyph glyph-name="Ccedilla" unicode="&#xc7;" horiz-adv-x="932" 
d="M866 644h-126q-5 43 -24.5 78t-51.5 60t-76 38.5t-97 13.5q-71 0 -127.5 -25t-95.5 -73t-60 -117t-21 -157q0 -90 21 -159.5t60.5 -117t95.5 -72t125 -24.5q113 0 177.5 54t73.5 150h126q-7 -75 -38 -132.5t-80.5 -97t-115.5 -59.5t-142 -20q-98 0 -177.5 33.5t-135.5 96
t-86.5 150.5t-30.5 198q0 109 30.5 197.5t86.5 150.5t135.5 95.5t177.5 33.5q75 0 140.5 -21.5t115.5 -60t81.5 -93t38.5 -120.5zM517 -48q106 -13 106 -100q0 -123 -192 -123q-28 0 -64 3v73q17 -2 34 -3t35 -1q81 0 81 52q0 48 -88 48v99h88v-48z" />
    <glyph glyph-name="Egrave" unicode="&#xc8;" horiz-adv-x="860" 
d="M792 0h-688v923h667v-109h-546v-282h510v-110h-510v-312h567v-110zM512 1022h-93l-139 177h149z" />
    <glyph glyph-name="Eacute" unicode="&#xc9;" horiz-adv-x="860" 
d="M792 0h-688v923h667v-109h-546v-282h510v-110h-510v-312h567v-110zM591 1199l-139 -177h-93l84 177h148z" />
    <glyph glyph-name="Ecircumflex" unicode="&#xca;" horiz-adv-x="860" 
d="M792 0h-688v923h667v-109h-546v-282h510v-110h-510v-312h567v-110zM645 1022h-128l-72 107l-71 -107h-128l139 177h121z" />
    <glyph glyph-name="Edieresis" unicode="&#xcb;" horiz-adv-x="860" 
d="M792 0h-688v923h667v-109h-546v-282h510v-110h-510v-312h567v-110zM618 1048h-115v129h115v-129zM385 1048h-116v129h116v-129z" />
    <glyph glyph-name="Igrave" unicode="&#xcc;" horiz-adv-x="358" 
d="M242 0h-124v923h124v-923zM253 1022h-93l-139 177h149z" />
    <glyph glyph-name="Iacute" unicode="&#xcd;" horiz-adv-x="358" 
d="M242 0h-124v923h124v-923zM325 1199l-139 -177h-93l84 177h148z" />
    <glyph glyph-name="Icircumflex" unicode="&#xce;" horiz-adv-x="358" 
d="M242 0h-124v923h124v-923zM380 1022h-128l-72 107l-71 -107h-128l139 177h121z" />
    <glyph glyph-name="Idieresis" unicode="&#xcf;" horiz-adv-x="358" 
d="M355 1048h-115v129h115v-129zM122 1048h-116v129h116v-129zM242 0h-124v923h124v-923z" />
    <glyph glyph-name="Ntilde" unicode="&#xd1;" horiz-adv-x="932" 
d="M828 0h-125l-484 729v-729h-115v923h124l484 -728v728h116v-923zM691 1185q0 -68 -35.5 -106t-91.5 -38q-13 0 -38.5 8.5l-52 18l-48.5 18t-28 8.5q-39 0 -45 -55h-83q0 66 36 105t92 39q15 0 40.5 -8t52 -18l47.5 -18t27 -8q39 0 45 54h82z" />
    <glyph glyph-name="Ograve" unicode="&#xd2;" horiz-adv-x="1004" 
d="M503 939q97 0 178 -34t139.5 -96.5t91 -150.5t32.5 -196q0 -109 -33 -197t-91.5 -150.5t-139.5 -96.5t-177 -34q-97 0 -178 34.5t-140 97.5t-92 151t-33 195q0 105 32 193t90.5 151t140 98t180.5 35zM502 89q70 0 128.5 26t100 74.5t64.5 117.5t23 155q0 87 -23 156
t-64.5 117t-99 73.5t-126.5 25.5q-70 0 -128.5 -25t-100.5 -73t-65.5 -117t-23.5 -157q0 -87 23.5 -156t65 -117.5t99.5 -74t127 -25.5zM590 1022h-93l-139 177h149z" />
    <glyph glyph-name="Oacute" unicode="&#xd3;" horiz-adv-x="1004" 
d="M503 939q97 0 178 -34t139.5 -96.5t91 -150.5t32.5 -196q0 -109 -33 -197t-91.5 -150.5t-139.5 -96.5t-177 -34q-97 0 -178 34.5t-140 97.5t-92 151t-33 195q0 105 32 193t90.5 151t140 98t180.5 35zM502 89q70 0 128.5 26t100 74.5t64.5 117.5t23 155q0 87 -23 156
t-64.5 117t-99 73.5t-126.5 25.5q-70 0 -128.5 -25t-100.5 -73t-65.5 -117t-23.5 -157q0 -87 23.5 -156t65 -117.5t99.5 -74t127 -25.5zM663 1199l-139 -177h-93l84 177h148z" />
    <glyph glyph-name="Ocircumflex" unicode="&#xd4;" horiz-adv-x="1004" 
d="M503 939q97 0 178 -34t139.5 -96.5t91 -150.5t32.5 -196q0 -109 -33 -197t-91.5 -150.5t-139.5 -96.5t-177 -34q-97 0 -178 34.5t-140 97.5t-92 151t-33 195q0 105 32 193t90.5 151t140 98t180.5 35zM502 89q70 0 128.5 26t100 74.5t64.5 117.5t23 155q0 87 -23 156
t-64.5 117t-99 73.5t-126.5 25.5q-70 0 -128.5 -25t-100.5 -73t-65.5 -117t-23.5 -157q0 -87 23.5 -156t65 -117.5t99.5 -74t127 -25.5zM702 1022h-128l-72 107l-71 -107h-128l139 177h121z" />
    <glyph glyph-name="Otilde" unicode="&#xd5;" horiz-adv-x="1004" 
d="M503 939q97 0 178 -34t139.5 -96.5t91 -150.5t32.5 -196q0 -109 -33 -197t-91.5 -150.5t-139.5 -96.5t-177 -34q-97 0 -178 34.5t-140 97.5t-92 151t-33 195q0 105 32 193t90.5 151t140 98t180.5 35zM502 89q70 0 128.5 26t100 74.5t64.5 117.5t23 155q0 87 -23 156
t-64.5 117t-99 73.5t-126.5 25.5q-70 0 -128.5 -25t-100.5 -73t-65.5 -117t-23.5 -157q0 -87 23.5 -156t65 -117.5t99.5 -74t127 -25.5zM712 1185q0 -68 -35.5 -106t-91.5 -38q-13 0 -38.5 8.5l-52 18l-48.5 18t-28 8.5q-39 0 -45 -55h-83q0 66 36 105t92 39q15 0 40.5 -8
t52 -18l47.5 -18t27 -8q39 0 45 54h82z" />
    <glyph glyph-name="Odieresis" unicode="&#xd6;" horiz-adv-x="1004" 
d="M503 939q97 0 178 -34t139.5 -96.5t91 -150.5t32.5 -196q0 -109 -33 -197t-91.5 -150.5t-139.5 -96.5t-177 -34q-97 0 -178 34.5t-140 97.5t-92 151t-33 195q0 105 32 193t90.5 151t140 98t180.5 35zM502 89q70 0 128.5 26t100 74.5t64.5 117.5t23 155q0 87 -23 156
t-64.5 117t-99 73.5t-126.5 25.5q-70 0 -128.5 -25t-100.5 -73t-65.5 -117t-23.5 -157q0 -87 23.5 -156t65 -117.5t99.5 -74t127 -25.5zM677 1048h-115v129h115v-129zM444 1048h-116v129h116v-129z" />
    <glyph glyph-name="Oslash" unicode="&#xd8;" horiz-adv-x="1004" 
d="M955 906l-111 -124q100 -127 100 -320q0 -109 -33 -197t-91.5 -150.5t-139.5 -96.5t-177 -34q-164 0 -284 99l-106 -118l-63 53l111 123q-101 134 -101 321q0 105 32 193t90.5 151t140 98t180.5 35q167 0 282 -98l106 118zM709 756q-81 78 -204 78q-70 0 -128.5 -25
t-100.5 -73t-65.5 -117t-23.5 -157q0 -139 55 -230zM295 167q85 -78 207 -78q70 0 128.5 26t100 74.5t64.5 117.5t23 155q0 135 -56 230z" />
    <glyph glyph-name="Ugrave" unicode="&#xd9;" horiz-adv-x="932" 
d="M466 -16q-82 0 -141 16t-99 44t-64 66.5t-37 83.5t-17 94.5t-4 100.5v534h121v-532q0 -92 15.5 -150t46 -90.5t75.5 -44t104 -11.5q58 0 103 12t75.5 44.5t46 90t15.5 149.5v532h122v-534q0 -95 -16.5 -170.5t-57.5 -127.5t-111 -79.5t-177 -27.5zM542 1022h-93l-139 177
h149z" />
    <glyph glyph-name="Uacute" unicode="&#xda;" horiz-adv-x="932" 
d="M466 -16q-82 0 -141 16t-99 44t-64 66.5t-37 83.5t-17 94.5t-4 100.5v534h121v-532q0 -92 15.5 -150t46 -90.5t75.5 -44t104 -11.5q58 0 103 12t75.5 44.5t46 90t15.5 149.5v532h122v-534q0 -95 -16.5 -170.5t-57.5 -127.5t-111 -79.5t-177 -27.5zM627 1199l-139 -177
h-93l84 177h148z" />
    <glyph glyph-name="Ucircumflex" unicode="&#xdb;" horiz-adv-x="932" 
d="M466 -16q-82 0 -141 16t-99 44t-64 66.5t-37 83.5t-17 94.5t-4 100.5v534h121v-532q0 -92 15.5 -150t46 -90.5t75.5 -44t104 -11.5q58 0 103 12t75.5 44.5t46 90t15.5 149.5v532h122v-534q0 -95 -16.5 -170.5t-57.5 -127.5t-111 -79.5t-177 -27.5zM664 1022h-128l-72 107
l-71 -107h-128l139 177h121z" />
    <glyph glyph-name="Udieresis" unicode="&#xdc;" horiz-adv-x="932" 
d="M466 -16q-82 0 -141 16t-99 44t-64 66.5t-37 83.5t-17 94.5t-4 100.5v534h121v-532q0 -92 15.5 -150t46 -90.5t75.5 -44t104 -11.5q58 0 103 12t75.5 44.5t46 90t15.5 149.5v532h122v-534q0 -95 -16.5 -170.5t-57.5 -127.5t-111 -79.5t-177 -27.5zM589 1048h-115v129h115
v-129zM356 1048h-116v129h116v-129z" />
    <glyph glyph-name="germandbls" unicode="&#xdf;" horiz-adv-x="788" 
d="M88 0v629q0 310 273 310q55 0 99 -14t74.5 -38.5t46.5 -57.5t16 -70q0 -62 -65 -178q-30 -54 -30 -79q0 -15 3.5 -26t15.5 -23t35.5 -28l62.5 -42q37 -25 61.5 -47.5t38.5 -45t20 -45.5t6 -49q0 -44 -17 -83t-48 -67.5t-73 -45t-93 -16.5q-45 0 -85 12t-70 34.5
t-48.5 54.5t-20.5 71h114q10 -78 108 -78q50 0 82 30.5t32 78.5q0 22 -4.5 37t-16.5 28.5t-33.5 28.5l-54.5 37q-65 41 -99.5 77t-34.5 89q0 43 47 126q55 100 55 137q0 42 -35 70.5t-92 28.5q-33 0 -61 -9t-48 -34t-31 -68t-11 -111v-624h-119z" />
    <glyph glyph-name="agrave" unicode="&#xe0;" 
d="M511 176v148h-81q-258 0 -258 -141q0 -51 37 -78t103 -27q29 0 57.5 6.5t54.5 19.5t48.5 31t38.5 41zM511 69q-92 -85 -234 -85q-49 0 -91 14t-72.5 39.5t-47.5 61t-17 78.5q0 235 404 235h58q0 46 -4 80t-19.5 56t-47.5 32.5t-89 10.5q-160 0 -164 -114h-118
q14 206 288 206q64 0 114.5 -10.5t85.5 -38.5t53.5 -77t18.5 -125v-432h-118v69zM426 762h-93l-139 177h149z" />
    <glyph glyph-name="aacute" unicode="&#xe1;" 
d="M511 176v148h-81q-258 0 -258 -141q0 -51 37 -78t103 -27q29 0 57.5 6.5t54.5 19.5t48.5 31t38.5 41zM511 69q-92 -85 -234 -85q-49 0 -91 14t-72.5 39.5t-47.5 61t-17 78.5q0 235 404 235h58q0 46 -4 80t-19.5 56t-47.5 32.5t-89 10.5q-160 0 -164 -114h-118
q14 206 288 206q64 0 114.5 -10.5t85.5 -38.5t53.5 -77t18.5 -125v-432h-118v69zM520 939l-139 -177h-93l84 177h148z" />
    <glyph glyph-name="acircumflex" unicode="&#xe2;" 
d="M511 176v148h-81q-258 0 -258 -141q0 -51 37 -78t103 -27q29 0 57.5 6.5t54.5 19.5t48.5 31t38.5 41zM511 69q-92 -85 -234 -85q-49 0 -91 14t-72.5 39.5t-47.5 61t-17 78.5q0 235 404 235h58q0 46 -4 80t-19.5 56t-47.5 32.5t-89 10.5q-160 0 -164 -114h-118
q14 206 288 206q64 0 114.5 -10.5t85.5 -38.5t53.5 -77t18.5 -125v-432h-118v69zM558 762h-128l-72 107l-71 -107h-128l139 177h121z" />
    <glyph glyph-name="atilde" unicode="&#xe3;" 
d="M511 176v148h-81q-258 0 -258 -141q0 -51 37 -78t103 -27q29 0 57.5 6.5t54.5 19.5t48.5 31t38.5 41zM511 69q-92 -85 -234 -85q-49 0 -91 14t-72.5 39.5t-47.5 61t-17 78.5q0 235 404 235h58q0 46 -4 80t-19.5 56t-47.5 32.5t-89 10.5q-160 0 -164 -114h-118
q14 206 288 206q64 0 114.5 -10.5t85.5 -38.5t53.5 -77t18.5 -125v-432h-118v69zM567 925q0 -68 -35.5 -106t-91.5 -38q-13 0 -38.5 8.5l-52 18l-48.5 18t-28 8.5q-39 0 -45 -55h-83q0 66 36 105t92 39q15 0 40.5 -8t52 -18l47.5 -18t27 -8q39 0 45 54h82z" />
    <glyph glyph-name="adieresis" unicode="&#xe4;" 
d="M511 176v148h-81q-258 0 -258 -141q0 -51 37 -78t103 -27q29 0 57.5 6.5t54.5 19.5t48.5 31t38.5 41zM511 69q-92 -85 -234 -85q-49 0 -91 14t-72.5 39.5t-47.5 61t-17 78.5q0 235 404 235h58q0 46 -4 80t-19.5 56t-47.5 32.5t-89 10.5q-160 0 -164 -114h-118
q14 206 288 206q64 0 114.5 -10.5t85.5 -38.5t53.5 -77t18.5 -125v-432h-118v69zM534 788h-115v129h115v-129zM301 788h-116v129h116v-129z" />
    <glyph glyph-name="aring" unicode="&#xe5;" 
d="M511 176v148h-81q-258 0 -258 -141q0 -51 37 -78t103 -27q29 0 57.5 6.5t54.5 19.5t48.5 31t38.5 41zM511 69q-92 -85 -234 -85q-49 0 -91 14t-72.5 39.5t-47.5 61t-17 78.5q0 235 404 235h58q0 46 -4 80t-19.5 56t-47.5 32.5t-89 10.5q-160 0 -164 -114h-118
q14 206 288 206q64 0 114.5 -10.5t85.5 -38.5t53.5 -77t18.5 -125v-432h-118v69zM360 970q23 0 43.5 -9t36 -24.5t24.5 -36.5t9 -45t-9 -44.5t-24.5 -36t-36 -24.5t-43.5 -9q-24 0 -44.5 9t-36 24.5t-24.5 36t-9 44.5t9 45t24.5 36.5t36 24.5t44.5 9zM360 787q12 0 23.5 5
t21.5 14t16 21.5t6 27.5q0 27 -20.5 47.5t-46.5 20.5q-25 0 -46 -18t-21 -50q0 -31 21 -49.5t46 -18.5z" />
    <glyph glyph-name="ae" unicode="&#xe6;" horiz-adv-x="1147" 
d="M498 276v48h-81q-245 0 -245 -141q0 -105 133 -105q43 0 78.5 12.5t61 37t39.5 61.5t14 87zM549 113q-18 -29 -40.5 -52.5t-55 -40.5t-77 -26.5t-105.5 -9.5q-49 0 -90 14t-70 39t-45.5 60.5t-16.5 79.5q0 235 391 235h58q0 39 -3.5 72t-18.5 57t-46 37t-86 13
q-148 0 -157 -114h-118q14 206 282 206q171 0 230 -84q82 84 214 84q72 0 128.5 -23.5t96.5 -68.5t61 -110t21 -147v-29h-485q6 -110 56.5 -168.5t134.5 -58.5q30 0 58.5 8t50 23.5t35 38t15.5 52.5h122q-7 -52 -30.5 -92t-60.5 -67.5t-85.5 -42t-104.5 -14.5
q-174 0 -259 129zM977 399q-30 192 -182 192q-150 0 -175 -192h357z" />
    <glyph glyph-name="ccedilla" unicode="&#xe7;" horiz-adv-x="645" 
d="M358 -16q-69 0 -126.5 22.5t-99 67t-64 109.5t-22.5 151q0 85 22.5 150.5t64 109.5t99 66.5t126.5 22.5q57 0 104 -15t82 -42.5t56.5 -67.5t27.5 -90h-122q-2 30 -14.5 53t-32.5 38.5t-46.5 23.5t-54.5 8q-43 0 -78 -17t-60 -49.5t-39 -80.5t-14 -110q0 -125 51.5 -190.5
t139.5 -65.5q28 0 54.5 7t46.5 22t32.5 38t14.5 55h122q-6 -53 -29 -93.5t-59 -67.5t-82.5 -41t-99.5 -14zM394 -48q106 -13 106 -100q0 -123 -192 -123q-28 0 -64 3v73q17 -2 34 -3t35 -1q81 0 81 52q0 48 -88 48v99h88v-48z" />
    <glyph glyph-name="egrave" unicode="&#xe8;" 
d="M372 -16q-73 0 -133 23.5t-103 68t-66.5 109.5t-23.5 149q0 82 23 147t64.5 110t98.5 68.5t126 23.5q72 0 130 -23.5t99 -68t63 -109.5t22 -148v-29h-503q4 -59 21 -102t44 -71t62.5 -41t75.5 -13q30 0 59 7.5t52 23t37.5 38.5t16.5 53h122q-7 -53 -32 -93.5t-63 -67.5
t-87.5 -41t-104.5 -14zM547 399q-15 97 -64.5 144.5t-124.5 47.5q-35 0 -65.5 -11.5t-55 -35t-41.5 -60t-24 -85.5h375zM431 762h-93l-139 177h149z" />
    <glyph glyph-name="eacute" unicode="&#xe9;" 
d="M372 -16q-73 0 -133 23.5t-103 68t-66.5 109.5t-23.5 149q0 82 23 147t64.5 110t98.5 68.5t126 23.5q72 0 130 -23.5t99 -68t63 -109.5t22 -148v-29h-503q4 -59 21 -102t44 -71t62.5 -41t75.5 -13q30 0 59 7.5t52 23t37.5 38.5t16.5 53h122q-7 -53 -32 -93.5t-63 -67.5
t-87.5 -41t-104.5 -14zM547 399q-15 97 -64.5 144.5t-124.5 47.5q-35 0 -65.5 -11.5t-55 -35t-41.5 -60t-24 -85.5h375zM520 939l-139 -177h-93l84 177h148z" />
    <glyph glyph-name="ecircumflex" unicode="&#xea;" 
d="M372 -16q-73 0 -133 23.5t-103 68t-66.5 109.5t-23.5 149q0 82 23 147t64.5 110t98.5 68.5t126 23.5q72 0 130 -23.5t99 -68t63 -109.5t22 -148v-29h-503q4 -59 21 -102t44 -71t62.5 -41t75.5 -13q30 0 59 7.5t52 23t37.5 38.5t16.5 53h122q-7 -53 -32 -93.5t-63 -67.5
t-87.5 -41t-104.5 -14zM547 399q-15 97 -64.5 144.5t-124.5 47.5q-35 0 -65.5 -11.5t-55 -35t-41.5 -60t-24 -85.5h375zM558 762h-128l-72 107l-71 -107h-128l139 177h121z" />
    <glyph glyph-name="edieresis" unicode="&#xeb;" 
d="M372 -16q-73 0 -133 23.5t-103 68t-66.5 109.5t-23.5 149q0 82 23 147t64.5 110t98.5 68.5t126 23.5q72 0 130 -23.5t99 -68t63 -109.5t22 -148v-29h-503q4 -59 21 -102t44 -71t62.5 -41t75.5 -13q30 0 59 7.5t52 23t37.5 38.5t16.5 53h122q-7 -53 -32 -93.5t-63 -67.5
t-87.5 -41t-104.5 -14zM547 399q-15 97 -64.5 144.5t-124.5 47.5q-35 0 -65.5 -11.5t-55 -35t-41.5 -60t-24 -85.5h375zM534 788h-115v129h115v-129zM301 788h-116v129h116v-129z" />
    <glyph glyph-name="igrave" unicode="&#xec;" horiz-adv-x="294" 
d="M207 0h-119v669h119v-669zM220 762h-93l-140 177h149z" />
    <glyph glyph-name="iacute" unicode="&#xed;" horiz-adv-x="294" 
d="M207 0h-119v669h119v-669zM309 939l-140 -177h-93l84 177h149z" />
    <glyph glyph-name="icircumflex" unicode="&#xee;" horiz-adv-x="294" 
d="M207 0h-119v669h119v-669zM347 762h-129l-71 107l-71 -107h-129l139 177h121z" />
    <glyph glyph-name="idieresis" unicode="&#xef;" horiz-adv-x="294" 
d="M207 0h-119v669h119v-669zM323 788h-116v129h116v-129zM90 788h-117v129h117v-129z" />
    <glyph glyph-name="ntilde" unicode="&#xf1;" 
d="M207 583q88 100 199 100q227 0 227 -245v-438h-120v432q0 82 -29 118t-96 36q-91 0 -181 -107v-479h-119v669h119v-86zM568 925q0 -68 -35.5 -106t-91.5 -38q-13 0 -38.5 8.5l-52 18l-48.5 18t-28 8.5q-39 0 -45 -55h-83q0 66 36 105t92 39q15 0 40.5 -8t52 -18l47.5 -18
t27 -8q39 0 45 54h82z" />
    <glyph glyph-name="ograve" unicode="&#xf2;" 
d="M358 683q72 0 130 -23.5t99 -68t63 -109.5t22 -148q0 -86 -23 -151t-64.5 -109.5t-99 -67t-127.5 -22.5q-69 0 -126.5 22.5t-99 67t-64 109.5t-22.5 151q0 85 22.5 150.5t64 109.5t99 66.5t126.5 22.5zM358 78q88 0 139.5 64.5t51.5 191.5q0 65 -14 113t-39.5 80
t-60.5 48t-77 16q-43 0 -78 -17t-60 -49.5t-39 -80.5t-14 -110q0 -125 51.5 -190.5t139.5 -65.5zM429 762h-93l-139 177h149z" />
    <glyph glyph-name="oacute" unicode="&#xf3;" 
d="M358 683q72 0 130 -23.5t99 -68t63 -109.5t22 -148q0 -86 -23 -151t-64.5 -109.5t-99 -67t-127.5 -22.5q-69 0 -126.5 22.5t-99 67t-64 109.5t-22.5 151q0 85 22.5 150.5t64 109.5t99 66.5t126.5 22.5zM358 78q88 0 139.5 64.5t51.5 191.5q0 65 -14 113t-39.5 80
t-60.5 48t-77 16q-43 0 -78 -17t-60 -49.5t-39 -80.5t-14 -110q0 -125 51.5 -190.5t139.5 -65.5zM520 939l-139 -177h-93l84 177h148z" />
    <glyph glyph-name="ocircumflex" unicode="&#xf4;" 
d="M358 683q72 0 130 -23.5t99 -68t63 -109.5t22 -148q0 -86 -23 -151t-64.5 -109.5t-99 -67t-127.5 -22.5q-69 0 -126.5 22.5t-99 67t-64 109.5t-22.5 151q0 85 22.5 150.5t64 109.5t99 66.5t126.5 22.5zM358 78q88 0 139.5 64.5t51.5 191.5q0 65 -14 113t-39.5 80
t-60.5 48t-77 16q-43 0 -78 -17t-60 -49.5t-39 -80.5t-14 -110q0 -125 51.5 -190.5t139.5 -65.5zM560 762h-128l-72 107l-71 -107h-128l139 177h121z" />
    <glyph glyph-name="otilde" unicode="&#xf5;" 
d="M358 683q72 0 130 -23.5t99 -68t63 -109.5t22 -148q0 -86 -23 -151t-64.5 -109.5t-99 -67t-127.5 -22.5q-69 0 -126.5 22.5t-99 67t-64 109.5t-22.5 151q0 85 22.5 150.5t64 109.5t99 66.5t126.5 22.5zM358 78q88 0 139.5 64.5t51.5 191.5q0 65 -14 113t-39.5 80
t-60.5 48t-77 16q-43 0 -78 -17t-60 -49.5t-39 -80.5t-14 -110q0 -125 51.5 -190.5t139.5 -65.5zM569 925q0 -68 -35.5 -106t-91.5 -38q-13 0 -38.5 8.5l-52 18l-48.5 18t-28 8.5q-39 0 -45 -55h-83q0 66 36 105t92 39q15 0 40.5 -8t52 -18l47.5 -18t27 -8q39 0 45 54h82z
" />
    <glyph glyph-name="odieresis" unicode="&#xf6;" 
d="M358 683q72 0 130 -23.5t99 -68t63 -109.5t22 -148q0 -86 -23 -151t-64.5 -109.5t-99 -67t-127.5 -22.5q-69 0 -126.5 22.5t-99 67t-64 109.5t-22.5 151q0 85 22.5 150.5t64 109.5t99 66.5t126.5 22.5zM358 78q88 0 139.5 64.5t51.5 191.5q0 65 -14 113t-39.5 80
t-60.5 48t-77 16q-43 0 -78 -17t-60 -49.5t-39 -80.5t-14 -110q0 -125 51.5 -190.5t139.5 -65.5zM534 788h-115v129h115v-129zM301 788h-116v129h116v-129z" />
    <glyph glyph-name="divide" unicode="&#xf7;" horiz-adv-x="753" 
d="M441 594h-129v128h129v-128zM683 403h-612v105h612v-105zM441 188h-129v130h129v-130z" />
    <glyph glyph-name="oslash" unicode="&#xf8;" 
d="M596 582q76 -94 76 -248q0 -86 -23 -151t-64.5 -109.5t-99 -67t-127.5 -22.5q-105 0 -181 52l-64 -82l-59 46l42.5 52.5t23.5 33.5q-74 92 -74 248q0 85 22.5 150.5t64 109.5t99 66.5t126.5 22.5q105 0 182 -50l63 82l61 -45zM476 548q-50 43 -118 43q-43 0 -78 -17
t-60 -49.5t-39 -80.5t-14 -110q0 -94 28 -151zM240 120q48 -42 118 -42q88 0 139.5 64.5t51.5 191.5q0 96 -28 151z" />
    <glyph glyph-name="ugrave" unicode="&#xf9;" 
d="M511 85q-89 -101 -199 -101q-227 0 -227 247v438h119v-433q0 -82 29 -117.5t96 -35.5q99 0 182 107v479h118v-669h-118v85zM433 762h-93l-139 177h149z" />
    <glyph glyph-name="uacute" unicode="&#xfa;" 
d="M511 85q-89 -101 -199 -101q-227 0 -227 247v438h119v-433q0 -82 29 -117.5t96 -35.5q99 0 182 107v479h118v-669h-118v85zM520 939l-139 -177h-93l84 177h148z" />
    <glyph glyph-name="ucircumflex" unicode="&#xfb;" 
d="M511 85q-89 -101 -199 -101q-227 0 -227 247v438h119v-433q0 -82 29 -117.5t96 -35.5q99 0 182 107v479h118v-669h-118v85zM559 762h-128l-72 107l-71 -107h-128l139 177h121z" />
    <glyph glyph-name="udieresis" unicode="&#xfc;" 
d="M511 85q-89 -101 -199 -101q-227 0 -227 247v438h119v-433q0 -82 29 -117.5t96 -35.5q99 0 182 107v479h118v-669h-118v85zM534 788h-115v129h115v-129zM301 788h-116v129h116v-129z" />
    <glyph glyph-name="ydieresis" unicode="&#xff;" horiz-adv-x="645" 
d="M125 -161q88 0 144 161l-252 669h129l177 -523l177 523h128l-253 -669q-26 -69 -49 -119.5t-48.5 -84.5t-57 -50.5t-74.5 -16.5q-46 0 -77 9v109q30 -8 56 -8zM498 788h-115v129h115v-129zM265 788h-116v129h116v-129z" />
    <glyph glyph-name="Euro" unicode="&#x20ac;" 
d="M649 294q-28 -310 -291 -310q-255 0 -294 346h-64v68h60q-1 9 -1.5 24.5t-0.5 38.5q0 21 0.5 36t1.5 24h-60v68h64q38 350 294 350q126 0 200 -75t91 -218h-123q-8 94 -52.5 147t-115.5 53q-144 0 -171 -257h192l-19 -68h-178q-1 -5 -1 -11v-102q0 -5 1 -10h140l-19 -68
h-116q27 -252 171 -252q148 0 168 216h123z" />
    <glyph glyph-name="Scaron" unicode="&#x160;" horiz-adv-x="860" 
d="M452 -16q-99 0 -172.5 23.5t-122 65.5t-73 99.5t-26.5 124.5h118q4 -52 26.5 -90t58.5 -63t83.5 -37t102.5 -12q50 0 92 10.5t72 30.5t47 49t17 66q0 39 -15 65.5t-49.5 46t-89.5 35.5t-135 33q-81 17 -137.5 40t-91.5 53.5t-51 69.5t-16 89q0 56 23.5 103t66 81
t103.5 53t136 19q78 0 141.5 -18.5t109.5 -54t72.5 -87t28.5 -117.5h-119q-17 168 -228 168q-104 0 -159.5 -39t-55.5 -101q0 -29 9 -50t33 -37t65.5 -29.5t105.5 -27.5q63 -14 111.5 -27.5t84.5 -25.5q34 -12 65.5 -32t56 -48.5t39.5 -66t15 -85.5q0 -60 -25.5 -110.5
t-70.5 -87.5t-108 -58t-138 -21zM616 1159l-139 -177h-121l-139 177h128l72 -107l71 107h128z" />
    <glyph glyph-name="scaron" unicode="&#x161;" horiz-adv-x="645" 
d="M326 -16q-274 0 -286 216h119q2 -122 166 -122q75 0 113 29.5t38 77.5q0 22 -7.5 36.5t-28.5 26t-59 23t-99 26.5q-60 15 -102.5 29.5t-70.5 36t-41 52t-13 76.5q0 42 17.5 77t50 60.5t79 40t103.5 14.5q262 0 268 -187h-119q-6 95 -142 95q-28 0 -53 -5.5t-44 -16.5
t-30 -28t-11 -39q0 -20 4 -32.5t22 -23t54.5 -21t101.5 -26.5q60 -15 105 -30.5t74.5 -38t44.5 -54.5t15 -80q0 -44 -18.5 -83t-53.5 -67.5t-85 -45t-112 -16.5zM496 939l-139 -177h-121l-139 177h128l72 -107l71 107h128z" />
    <glyph glyph-name="brokenbar" unicode="&#xa6;" horiz-adv-x="335" 
d="M217 -271h-99v482h99v-482zM217 441h-99v482h99v-482z" />
    <glyph glyph-name="twosuperior" unicode="&#xb2;" horiz-adv-x="430" 
d="M407 462h-392q15 104 164 193q41 25 66 43t38.5 33t17.5 29t4 30q0 70 -86 70q-82 0 -95 -61h-96q27 136 193 136q89 0 136.5 -39t47.5 -99q0 -28 -7 -51t-22.5 -43t-40.5 -39.5t-61 -40.5q-38 -23 -65.5 -44t-47.5 -41h246v-76z" />
    <glyph glyph-name="threesuperior" unicode="&#xb3;" horiz-adv-x="430" 
d="M298 709q108 -20 108 -113q0 -31 -13 -57.5t-38 -46t-60 -31t-79 -11.5q-177 0 -195 136h97q8 -62 93 -62q97 0 97 84q0 64 -99 64h-35v70q112 0 112 67q0 53 -75 53q-72 0 -82 -52h-98q24 125 180 125q85 0 129 -33.5t44 -83.5q0 -85 -86 -109z" />
    <glyph glyph-name="onesuperior" unicode="&#xb9;" horiz-adv-x="430" 
d="M299 462h-91v309q-43 -31 -142 -31v78q165 0 165 117h68v-473z" />
    <glyph glyph-name="onequarter" unicode="&#xbc;" horiz-adv-x="1076" 
d="M312 935v-473h-91v309q-43 -31 -141 -31v78q164 0 164 117h68zM903 923l-657 -923h-99l656 923h100zM1018 97h-66v-97h-90v97h-242v77l255 299h77v-294h66v-82zM862 179v178l-153 -178h153z" />
    <glyph glyph-name="onehalf" unicode="&#xbd;" horiz-adv-x="1076" 
d="M312 935v-473h-91v309q-43 -31 -141 -31v78q164 0 164 117h68zM903 923l-657 -923h-99l656 923h100zM1039 0h-391q13 104 162 193q42 24 67 42.5t38.5 33.5t17.5 29t4 31q0 70 -86 70q-81 0 -95 -62h-96q27 137 193 137q85 0 134.5 -38.5t49.5 -100.5q0 -29 -7 -51.5
t-22.5 -42.5t-41 -39t-61.5 -41q-37 -23 -64.5 -43.5t-47.5 -41.5h246v-76z" />
    <glyph glyph-name="threequarters" unicode="&#xbe;" horiz-adv-x="1076" 
d="M311 709q108 -20 108 -113q0 -32 -13.5 -58.5t-38.5 -46t-60.5 -30.5t-78.5 -11q-176 0 -194 136h97q8 -62 93 -62q97 0 97 84q0 64 -99 64h-36v70q113 0 113 67q0 53 -76 53q-72 0 -82 -52h-98q26 125 181 125q84 0 128.5 -34.5t44.5 -82.5q0 -85 -86 -109zM938 923
l-657 -923h-99l657 923h99zM1018 97h-66v-97h-90v97h-242v77l255 299h77v-294h66v-82zM862 179v178l-153 -178h153z" />
    <glyph glyph-name="Eth" unicode="&#xd0;" horiz-adv-x="932" 
d="M104 923h292q471 0 471 -456q0 -467 -471 -467h-292v407h-103v110h103v406zM225 110h168q104 0 171.5 25t106.5 71t54.5 112t15.5 149q0 81 -15.5 145t-55 109t-107 69t-170.5 24h-168v-297h252v-110h-252v-297z" />
    <glyph glyph-name="multiply" unicode="&#xd7;" horiz-adv-x="753" 
d="M649 258l-75 -75l-197 198l-198 -198l-75 75l198 198l-198 196l75 75l198 -196l197 196l75 -75l-197 -196z" />
    <glyph glyph-name="Yacute" unicode="&#xdd;" horiz-adv-x="860" 
d="M854 923l-363 -532v-391h-122v391l-363 532h149l276 -425l275 425h148zM591 1159l-139 -177h-93l84 177h148z" />
    <glyph glyph-name="Thorn" unicode="&#xde;" horiz-adv-x="860" 
d="M225 742h223q56 0 103.5 -4t86 -16.5t69 -34.5t52.5 -58q22 -35 33.5 -74t11.5 -82q0 -142 -87.5 -214t-258.5 -72h-233v-187h-121v923h121v-181zM225 297h234q119 0 168.5 44t49.5 127q0 28 -7.5 53.5t-21 45.5t-31 34t-38.5 19q-39 13 -123 13h-231v-336z" />
    <glyph glyph-name="eth" unicode="&#xf0;" 
d="M466 809q55 -64 94.5 -123t63.5 -116q25 -57 36.5 -117.5t11.5 -126.5q0 -83 -23 -146.5t-64.5 -107t-99 -66t-127.5 -22.5q-68 0 -125.5 22t-99 65t-64.5 107t-23 148q0 85 23.5 149.5t65.5 107.5t99 64.5t124 21.5q57 0 101 -24q-32 68 -82 124l-154 -71l-32 61l135 62
q-26 25 -58 50.5t-72 51.5h137l49 -37.5t30 -25.5l135 63l33 -60zM358 78q42 0 77.5 15.5t60.5 46.5t39 77.5t14 108.5q0 63 -14 109.5t-39.5 77.5t-60.5 46.5t-77 15.5t-77 -16t-60.5 -47.5t-39.5 -78t-14 -107.5q0 -119 51.5 -183.5t139.5 -64.5z" />
    <glyph glyph-name="yacute" unicode="&#xfd;" horiz-adv-x="645" 
d="M125 -161q88 0 144 161l-252 669h129l177 -523l177 523h128l-253 -669q-26 -69 -49 -119.5t-48.5 -84.5t-57 -50.5t-74.5 -16.5q-46 0 -77 9v109q30 -8 56 -8zM484 939l-139 -177h-93l84 177h148z" />
    <glyph glyph-name="thorn" unicode="&#xfe;" 
d="M207 589q79 94 191 94q65 0 116 -24.5t86 -69t53.5 -108t18.5 -141.5q0 -81 -21 -147t-59 -112.5t-90 -71.5t-113 -25q-108 0 -182 68v-309h-119v1180h119v-334zM207 159q75 -81 175 -81q78 0 122.5 65t44.5 197q0 125 -42 188t-120 63q-98 0 -180 -115v-317z" />
    <glyph glyph-name="ZWNJ" unicode="&#x200c;" horiz-adv-x="0" 
d="M22 -174h-44v1172h44v-1172z" />
    <glyph glyph-name="ZWJ" unicode="&#x200d;" horiz-adv-x="0" 
d="M138 862l-31 -30l-85 85v-1091h-44v1091l-85 -85l-31 30l108 107l-108 105l31 31l107 -107l107 107l31 -31l-108 -105z" />
    <glyph glyph-name="dottedcircle" unicode="&#x25cc;" horiz-adv-x="982" 
d="M175 350l-102 -17q-10 39 -10 93q0 25 2.5 48.5t7.5 45.5l102 -17q-5 -19 -6.5 -38t-1.5 -39t1.5 -38.5t6.5 -37.5zM314 155l-59 -84q-82 52 -133 133l84 60q40 -67 108 -109zM860 204q-51 -81 -133 -133l-59 84q68 42 108 109zM314 697q-68 -41 -108 -108l-84 59
q25 42 58 74.5t75 58.5zM860 648l-84 -59q-41 67 -108 108l59 84q42 -26 75 -58.5t58 -74.5zM919 426q0 -49 -10 -93l-102 17q9 37 9 76t-9 77l102 17q10 -44 10 -94zM584 9q-52 -11 -93 -11q-42 0 -94 11l17 101q19 -5 38 -6.5t39 -1.5t38.5 1.5t37.5 6.5zM584 844
l-17 -101q-19 4 -37.5 6.5t-38.5 2.5t-39 -2.5t-38 -6.5l-17 101q52 11 94 11q41 0 93 -11z" />
    <glyph glyph-name="ml_anusvara" unicode="&#xd02;" horiz-adv-x="840" 
d="M755 319q0 -68 -27 -128.5t-72.5 -106t-106.5 -72.5t-129 -27q-67 0 -127.5 26.5t-106.5 72t-73.5 106t-27.5 129.5q0 70 27 131t73 107t107 72.5t128 26.5q68 0 129 -27t106.5 -73t72.5 -107.5t27 -129.5zM636 319q0 44 -17.5 83.5t-47.5 69t-69 47t-82 17.5
q-45 0 -84.5 -18t-69 -48t-46.5 -69.5t-17 -81.5t17 -81t46.5 -68.5t69 -47t84.5 -17.5q43 0 82 17.5t69 46.5t47.5 68t17.5 82z" />
    <glyph glyph-name="ml_visarga" unicode="&#xd03;" horiz-adv-x="554" 
d="M469 746q0 -38 -15 -73t-41 -61.5t-61 -42.5t-75 -16q-39 0 -74 15.5t-61 42t-41.5 61.5t-15.5 74t15.5 73.5t41.5 61t61 42t74 15.5q40 0 75 -16t61 -42.5t41 -61t15 -72.5zM469 177q0 -38 -15 -72.5t-41 -61t-61 -42.5t-75 -16q-39 0 -74 15.5t-61 41.5t-41.5 61
t-15.5 74t15.5 74t41.5 61t61 41.5t74 15.5q40 0 75 -16t61 -42.5t41 -61t15 -72.5zM349 746q0 29 -21.5 50t-50.5 21q-28 0 -50 -21.5t-22 -49.5q0 -29 22 -50.5t50 -21.5q14 0 27 6t23 15.5t16 22.5t6 28zM349 177q0 29 -21.5 50.5t-50.5 21.5q-28 0 -50 -21.5t-22 -50.5
q0 -28 22 -49.5t50 -21.5q29 0 50.5 21t21.5 50z" />
    <glyph glyph-name="ml_a" unicode="&#xd05;" horiz-adv-x="2108" 
d="M2023 415q0 -89 -22.5 -167t-63 -136.5t-97.5 -92.5t-126 -34q-61 0 -114 26.5t-92.5 71t-62 103.5t-22.5 124q0 74 31.5 143t83.5 121.5t119 84t139 31.5h14q6 0 13 -1q-42 64 -103.5 96t-125.5 32q-62 0 -115 -30.5t-93 -82t-62.5 -119.5t-22.5 -142v-443h-120v443
q0 75 -17 138t-50 110.5t-81 78t-110 41.5q69 -79 69 -192q0 -51 -17.5 -88.5t-58.5 -64.5q25 -12 45.5 -33t35.5 -48t23 -57.5t8 -60.5q0 -58 -22.5 -109t-60.5 -89.5t-90 -61t-110 -22.5q-83 0 -154 36.5t-122.5 99t-80.5 145.5t-29 176q0 59 11.5 113.5t37.5 107.5
q20 42 45.5 78t58.5 67q-68 -15 -124.5 -51.5t-97 -89t-62.5 -118.5t-22 -141q0 -182 136 -313l-73 -97q-184 150 -184 415q0 113 40 209.5t110.5 166.5t166 109.5t207.5 39.5q32 0 61.5 -3t58.5 -11q28 7 60.5 10.5t64.5 3.5q128 0 224.5 -57t159.5 -167q21 47 59 88
t85.5 71t100.5 47.5t104 17.5q95 0 175 -41.5t138 -113t90.5 -166.5t32.5 -202zM909 253q0 30 -14.5 56t-42 45t-68 30t-91.5 11v121q179 0 179 107q0 59 -39.5 105t-107.5 69q-56 -18 -101.5 -53.5t-77.5 -83t-49.5 -103.5t-17.5 -115q0 -69 18.5 -130t52.5 -106.5
t82 -72.5t107 -27q34 0 64.5 11.5t54 31.5t37.5 47t14 57zM1895 405q0 39 -4.5 75.5t-15.5 69.5q-17 5 -35 8t-39 3q-50 0 -96.5 -21t-82.5 -55.5t-57.5 -80t-21.5 -94.5q0 -39 11.5 -75.5t32.5 -65t49 -46t61 -17.5q45 0 81.5 23.5t62.5 64.5t40 95t14 116z" />
    <glyph glyph-name="ml_aa" unicode="&#xd06;" horiz-adv-x="2298" 
d="M2213 184q0 -108 -36 -197.5t-100.5 -154t-154 -100.5t-196.5 -36q-178 0 -312 113l72 91q110 -83 246 -83q79 0 146 28t115.5 78.5t76 119.5t27.5 150q0 124 -75 237l1 -15q0 -89 -22.5 -167t-63 -136.5t-97.5 -92.5t-126 -34q-61 0 -114 26.5t-92.5 71t-62 103.5
t-22.5 124q0 74 31.5 143t83.5 121.5t119 84t139 31.5h14q6 0 13 -1q-42 64 -103.5 96t-125.5 32q-62 0 -115 -30.5t-93 -82t-62.5 -119.5t-22.5 -142v-443h-120v443q0 75 -17 138t-50 110.5t-81 78t-110 41.5q69 -79 69 -192q0 -51 -17.5 -88.5t-58.5 -64.5
q25 -12 45.5 -33t35.5 -48t23 -57.5t8 -60.5q0 -58 -22.5 -109t-60.5 -89.5t-90 -61t-110 -22.5q-83 0 -154 36.5t-122.5 99t-80.5 145.5t-29 176q0 59 11.5 113.5t37.5 107.5q20 42 45.5 78t58.5 67q-68 -15 -124.5 -51.5t-97 -89t-62.5 -118.5t-22 -141q0 -182 136 -313
l-73 -97q-184 150 -184 415q0 113 40 209.5t110.5 166.5t166 109.5t207.5 39.5q32 0 61.5 -3t58.5 -11q28 7 60.5 10.5t64.5 3.5q128 0 224.5 -57t159.5 -167q21 47 59 88t85.5 71t100.5 47.5t104 17.5q70 0 131.5 -23t113 -63.5t90.5 -97.5t64 -124q56 -36 98 -85.5
t70.5 -108t43.5 -123t15 -129.5zM909 253q0 30 -14.5 56t-42 45t-68 30t-91.5 11v121q179 0 179 107q0 59 -39.5 105t-107.5 69q-56 -18 -101.5 -53.5t-77.5 -83t-49.5 -103.5t-17.5 -115q0 -69 18.5 -130t52.5 -106.5t82 -72.5t107 -27q34 0 64.5 11.5t54 31.5t37.5 47
t14 57zM1895 405q0 39 -4.5 75.5t-15.5 69.5q-17 5 -35 8t-39 3q-50 0 -96.5 -21t-82.5 -55.5t-57.5 -80t-21.5 -94.5q0 -39 11.5 -75.5t32.5 -65t49 -46t61 -17.5q45 0 81.5 23.5t62.5 64.5t40 95t14 116z" />
    <glyph glyph-name="ml_i" unicode="&#xd07;" horiz-adv-x="1715" 
d="M1630 -328v-120h-1298q-247 0 -247 188q0 184 247 184h455q169 0 302.5 36.5t226 106.5t141.5 170.5t49 229.5q0 66 -20 129t-54.5 112t-81 79t-98.5 30q-57 0 -103.5 -32.5t-80 -86t-52 -123t-18.5 -144.5v-338h-123v338q0 120 -33 189q-20 42 -53.5 78.5t-75 62.5
t-87 41t-88.5 15q-70 0 -130.5 -30.5t-105.5 -81.5t-70.5 -117.5t-25.5 -137.5q0 -54 11.5 -105t36.5 -89q3 45 22 83t50 66.5t73.5 44.5t92.5 16q49 0 92.5 -19t76.5 -52t52 -77.5t19 -94.5q0 -47 -20 -90t-53.5 -76t-77.5 -52.5t-92 -19.5q-87 0 -161 40.5t-128 108.5
t-84.5 158.5t-30.5 190.5q0 88 38 170.5t102 145.5t147 101t173 38q55 0 112.5 -17.5t109.5 -48t95.5 -72t71.5 -90.5q22 49 55.5 90.5t74 72t85 48t88.5 17.5q90 0 162.5 -37t123.5 -100.5t79 -149.5t28 -184q0 -155 -58 -277.5t-165.5 -208.5t-260.5 -131.5t-343 -45.5
h-484q-47 0 -80 -17.5t-33 -46.5q0 -68 113 -68h1311zM611 225q0 24 -9.5 46t-26 38.5t-38 26t-45.5 9.5t-46 -9.5t-38.5 -26t-26 -38.5t-9.5 -46q0 -64 12 -79q17 -21 44.5 -30.5t63.5 -9.5q23 0 44.5 9.5t38 25.5t26.5 37.5t10 46.5z" />
    <glyph glyph-name="ml_ii" unicode="&#xd08;" horiz-adv-x="2694" 
d="M1630 -328v-120h-1298q-247 0 -247 188q0 184 247 184h455q169 0 302.5 36.5t226 106.5t141.5 170.5t49 229.5q0 66 -20 129t-54.5 112t-81 79t-98.5 30q-57 0 -103.5 -32.5t-80 -86t-52 -123t-18.5 -144.5v-338h-123v338q0 120 -33 189q-20 42 -53.5 78.5t-75 62.5
t-87 41t-88.5 15q-70 0 -130.5 -30.5t-105.5 -81.5t-70.5 -117.5t-25.5 -137.5q0 -54 11.5 -105t36.5 -89q3 45 22 83t50 66.5t73.5 44.5t92.5 16q49 0 92.5 -19t76.5 -52t52 -77.5t19 -94.5q0 -47 -20 -90t-53.5 -76t-77.5 -52.5t-92 -19.5q-87 0 -161 40.5t-128 108.5
t-84.5 158.5t-30.5 190.5q0 88 38 170.5t102 145.5t147 101t173 38q55 0 112.5 -17.5t109.5 -48t95.5 -72t71.5 -90.5q22 49 55.5 90.5t74 72t85 48t88.5 17.5q90 0 162.5 -37t123.5 -100.5t79 -149.5t28 -184q0 -155 -58 -277.5t-165.5 -208.5t-260.5 -131.5t-343 -45.5
h-484q-47 0 -80 -17.5t-33 -46.5q0 -68 113 -68h1311zM611 225q0 24 -9.5 46t-26 38.5t-38 26t-45.5 9.5t-46 -9.5t-38.5 -26t-26 -38.5t-9.5 -46q0 -64 12 -79q17 -21 44.5 -30.5t63.5 -9.5q23 0 44.5 9.5t38 25.5t26.5 37.5t10 46.5zM2609 470q0 -101 -25.5 -189.5
t-74.5 -154t-119 -103.5t-158 -38q-57 0 -109 18.5t-95.5 53.5t-76.5 84.5t-51 112.5l107 46q31 -89 90 -141.5t135 -52.5q62 0 110.5 26t82.5 72.5t51.5 110t17.5 139.5q0 27 -3.5 64t-11.5 77t-21 79t-31.5 70.5t-43 51t-55.5 21.5q-34 0 -60 -10.5t-44 -35t-28.5 -65.5
t-13.5 -102v-84h-121v84q0 111 -35.5 162t-105.5 51q-30 0 -57.5 -11.5t-48.5 -30.5t-33 -44.5t-12 -52.5q0 -62 45 -105l-95 -82q-70 76 -70 193q0 52 22.5 98.5t60 81t85 54.5t98.5 20q63 0 116 -27.5t92 -78.5q38 57 85 81.5t107 24.5q69 0 123.5 -34.5t92.5 -96.5
t58 -148t20 -189z" />
    <glyph glyph-name="ml_u" unicode="&#xd09;" horiz-adv-x="1247" 
d="M1162 -331v-117h-817q-60 0 -108.5 14t-82 39.5t-51.5 60.5t-18 77q0 46 18 79.5t50 55.5t77.5 32.5t101.5 10.5q174 0 297 22t195 54q105 51 160 154.5t55 253.5q0 81 -33.5 155.5t-90.5 131.5t-131.5 91t-156.5 34q-89 0 -166 -38.5t-133.5 -101.5t-89 -144t-33.5 -166
q31 45 83.5 72t107.5 27q48 0 92 -19.5t77.5 -52.5t53 -76.5t19.5 -92.5t-19.5 -92.5t-53 -76.5t-77 -52t-91.5 -19q-65 0 -122 33.5t-99 89t-66.5 127.5t-24.5 148q0 114 38.5 214.5t109.5 176.5t171 120t223 44q121 0 219 -44t168 -118.5t108 -172.5t38 -205
q0 -183 -66.5 -308t-199.5 -191q-92 -45 -236.5 -71t-345.5 -27q-53 0 -78.5 -12t-25.5 -46q0 -31 32.5 -52.5t98.5 -21.5h823zM516 225q0 24 -10 45.5t-26.5 38t-38 26.5t-45.5 10q-25 0 -48 -11t-41 -29t-29 -40t-12 -43q6 -21 18.5 -42t30 -37.5t38 -26.5t43.5 -10
q24 0 45.5 9.5t38 26t26.5 38t10 45.5z" />
    <glyph glyph-name="ml_uu" unicode="&#xd0a;" horiz-adv-x="2246" 
d="M1162 -331v-117h-817q-60 0 -108.5 14t-82 39.5t-51.5 60.5t-18 77q0 46 18 79.5t50 55.5t77.5 32.5t101.5 10.5q174 0 297 22t195 54q105 51 160 154.5t55 253.5q0 81 -33.5 155.5t-90.5 131.5t-131.5 91t-156.5 34q-89 0 -166 -38.5t-133.5 -101.5t-89 -144t-33.5 -166
q31 45 83.5 72t107.5 27q48 0 92 -19.5t77.5 -52.5t53 -76.5t19.5 -92.5t-19.5 -92.5t-53 -76.5t-77 -52t-91.5 -19q-65 0 -122 33.5t-99 89t-66.5 127.5t-24.5 148q0 114 38.5 214.5t109.5 176.5t171 120t223 44q121 0 219 -44t168 -118.5t108 -172.5t38 -205
q0 -183 -66.5 -308t-199.5 -191q-92 -45 -236.5 -71t-345.5 -27q-53 0 -78.5 -12t-25.5 -46q0 -31 32.5 -52.5t98.5 -21.5h823zM516 225q0 24 -10 45.5t-26.5 38t-38 26.5t-45.5 10q-25 0 -48 -11t-41 -29t-29 -40t-12 -43q6 -21 18.5 -42t30 -37.5t38 -26.5t43.5 -10
q24 0 45.5 9.5t38 26t26.5 38t10 45.5zM2161 470q0 -101 -25.5 -189.5t-74.5 -154t-119 -103.5t-158 -38q-57 0 -109 18.5t-95.5 53.5t-76.5 84.5t-51 112.5l107 46q31 -89 90 -141.5t135 -52.5q62 0 110.5 26t82.5 72.5t51.5 110t17.5 139.5q0 27 -3.5 64t-11.5 77t-21 79
t-31.5 70.5t-43 51t-55.5 21.5q-34 0 -60 -10.5t-44 -35t-28.5 -65.5t-13.5 -102v-84h-121v84q0 111 -35.5 162t-105.5 51q-30 0 -57.5 -11.5t-48.5 -30.5t-33 -44.5t-12 -52.5q0 -62 45 -105l-95 -82q-70 76 -70 193q0 52 22.5 98.5t60 81t85 54.5t98.5 20q63 0 116 -27.5
t92 -78.5q38 57 85 81.5t107 24.5q69 0 123.5 -34.5t92.5 -96.5t58 -148t20 -189z" />
    <glyph glyph-name="ml_ri" unicode="&#xd0b;" horiz-adv-x="1544" 
d="M1459 540q0 -171 -118 -303q-47 -51 -107.5 -92t-131.5 -72q59 -22 107 -51.5t82 -64t52.5 -73.5t18.5 -79q0 -88 -51 -149.5t-133.5 -100t-188 -56t-213.5 -17.5q-75 0 -148 6.5t-139 21t-122 39t-97.5 60t-64.5 84t-23 111.5q0 40 18.5 78.5t52.5 73t82 64t107 50.5
q-136 57 -234 164q-63 69 -92.5 143.5t-30.5 155.5q0 77 28 150t75.5 129.5t111.5 91t136 34.5q50 0 93 -19t74.5 -52t49 -77.5t17.5 -94.5q0 -48 -20 -91t-53 -76t-76.5 -52t-89.5 -19q-35 0 -68.5 10.5t-62 29t-51 44.5t-37.5 56q-2 -15 -3 -30.5t-1 -29.5
q0 -92 47 -167.5t126.5 -130t184 -84.5t220.5 -30q103 0 194.5 26.5t173.5 81.5q91 60 137.5 136t46.5 173v24q0 11 -2 24q-16 -30 -39 -54.5t-50.5 -42t-58.5 -27t-64 -9.5q-51 0 -95 19.5t-77 53t-52 77.5t-19 94q0 48 19 91t51 75.5t74.5 51.5t89.5 19q70 0 132.5 -33.5
t109.5 -89t74.5 -127.5t27.5 -148zM1242 -196q0 30 -20 56.5t-54 48.5t-80 39.5t-98.5 29.5t-108 18.5t-109.5 7.5q-80 0 -163.5 -14.5t-151.5 -41t-111.5 -63t-43.5 -81.5q0 -39 26 -69.5t67.5 -52.5t93.5 -37.5t104 -24.5t99.5 -13t79.5 -4q53 0 108.5 6.5t108 18.5
t98.5 30t80.5 40t54.5 49t20 57zM1257 747q-30 32 -66 51t-70 19q-24 0 -45.5 -9.5t-38 -26t-26 -38.5t-9.5 -46t9.5 -45.5t25.5 -38t38 -26t46 -9.5q27 0 51.5 13t43.5 35t30 51.5t11 62.5v7zM549 697q0 24 -9.5 45.5t-26 38t-38 26.5t-45.5 10q-34 0 -70.5 -19.5
t-66.5 -52.5q0 -35 11 -65t29.5 -53t43.5 -36t53 -13q24 0 45.5 9.5t38 26t26 38t9.5 45.5z" />
    <glyph glyph-name="ml_li" unicode="&#xd0c;" horiz-adv-x="1632" 
d="M1547 396q0 -89 -22 -164.5t-62.5 -130.5t-97.5 -85.5t-127 -30.5q-62 0 -115.5 24.5t-92.5 66.5t-61.5 99t-22.5 122q0 72 31 142t83 125t119.5 88.5t140.5 33.5h15q7 0 15 -1q-38 63 -89.5 97.5t-114.5 34.5q-53 0 -104 -30t-91.5 -77.5t-65 -106.5t-24.5 -117v-486
h-121v486q0 64 -21.5 124t-57.5 106t-83.5 73.5t-100.5 27.5q-58 0 -107.5 -32.5t-86 -86.5t-57 -122.5t-20.5 -140.5q0 -12 -1 -27q1 -14 3 -24q67 82 179 82q48 0 92 -19t77 -52t53 -77t20 -93q0 -47 -19 -90.5t-51.5 -76.5t-76 -53t-91.5 -20q-69 0 -125 34.5t-96.5 94
t-62.5 139.5t-22 171q0 98 30 190.5t82.5 164.5t124 115.5t155.5 43.5q49 0 97 -16.5t90 -46.5t77 -71t58 -89q21 48 57 89t81 71t96.5 46.5t104.5 16.5q90 0 165 -45t129.5 -120.5t84.5 -173.5t30 -203zM1419 386q0 40 -4.5 82.5t-14.5 77.5q-16 5 -35 8t-40 3
q-51 0 -98 -22.5t-83.5 -59t-58.5 -83t-22 -95.5q0 -41 12.5 -76t34 -60.5t50.5 -40t61 -14.5q46 0 82.5 20.5t62 57.5t39.5 88.5t14 113.5zM508 225q0 24 -9.5 45.5t-26 38t-38.5 26.5t-46 10q-45 0 -79 -24t-55 -75q6 -30 18 -55.5t29.5 -44.5t39.5 -29.5t47 -10.5
q24 0 45.5 9.5t38 26t26.5 38t10 45.5z" />
    <glyph glyph-name="ml_e" unicode="&#xd0e;" horiz-adv-x="2130" 
d="M2045 389q1 -106 -12 -218.5t-44 -219.5t-81 -202t-123 -166l-83 77q52 64 93.5 139t70.5 164.5t44.5 195t15.5 230.5q0 68 -9.5 143t-30.5 147.5t-54.5 139t-80 116.5t-107.5 79.5t-138 29.5q-74 0 -132.5 -30.5t-103 -82t-75.5 -119t-50.5 -140t-28.5 -146t-9 -137.5
q0 -70 4 -136t13 -132h333v720h121v-862q0 -415 -225 -415q-128 0 -210 109.5t-118 326.5h-462v110q18 35 27.5 63.5t9.5 53.5q0 34 -16.5 64.5t-43 53t-61 36t-70.5 13.5q-44 0 -81 -13t-64 -35.5t-42.5 -54t-15.5 -68.5q0 -69 47 -144l-85 -86q-83 97 -83 230
q0 63 24.5 116.5t68 92.5t103 61t128.5 22q61 0 117.5 -22.5t100 -61t69.5 -89.5t26 -108q0 -28 -7.5 -57t-20.5 -56h310q-8 65 -11 131.5t-3 136.5q0 82 12.5 171.5t39.5 176t68.5 164t99 136.5t132 93.5t167.5 34.5q94 0 171 -33.5t137 -91.5t104 -135t72.5 -163
t41 -176.5t10.5 -176.5zM1457 0h-311q15 -71 36.5 -129t48 -99.5t57 -64t65.5 -22.5q104 0 104 271v44z" />
    <glyph glyph-name="ml_ee" unicode="&#xd0f;" horiz-adv-x="2133" 
d="M2048 672q0 -125 -47 -215.5t-147 -150.5q45 -29 80.5 -67.5t61 -84.5t39 -96.5t13.5 -103.5q0 -74 -30 -142.5t-81.5 -122.5t-119.5 -89t-144 -41v117q52 9 98.5 35t81 64t55 85t20.5 98q0 57 -23 108.5t-63.5 90.5t-94.5 62t-115 24v115q142 23 218.5 106t76.5 220
q0 77 -24 141.5t-68.5 111.5t-107.5 73t-141 26q-115 0 -205.5 -47t-153.5 -132.5t-96 -204.5t-33 -263q0 -64 4.5 -130.5t15.5 -137.5h331v720h120v-862q0 -415 -223 -415q-122 0 -203.5 107.5t-122.5 328.5h-456v110q36 66 36 121q0 34 -16.5 64t-44.5 52t-64 34.5
t-75 12.5t-74 -13.5t-62 -36t-42.5 -53t-15.5 -64.5q0 -74 46 -148l-84 -86q-83 97 -83 234q0 59 25 111.5t67.5 91.5t100 62t122.5 23q66 0 124.5 -22t102 -60.5t69 -90t25.5 -111.5q0 -31 -6.5 -57t-21.5 -53h307q-9 67 -13 133.5t-4 134.5q0 168 42 308.5t120 242.5
t189 159t250 57q102 0 187 -37t146.5 -101.5t96 -153.5t34.5 -192zM1449 0h-310q32 -151 84.5 -233t122.5 -82q103 0 103 264v51z" />
    <glyph glyph-name="ml_ai" unicode="&#xd10;" horiz-adv-x="3000" 
d="M910 443q0 -71 -13 -139t-36.5 -127.5t-56 -109t-71.5 -83.5l-77 95q35 32 60 73t41 88t23.5 98.5t7.5 104.5q0 76 -19.5 143.5t-56 118.5t-90 81t-122.5 30q-74 0 -129.5 -33t-92.5 -86.5t-55 -122t-18 -139.5q0 -11 -1 -26q1 -15 3 -25q27 32 75 57t105 25
q48 0 91.5 -19t76.5 -52t53 -77t20 -93q0 -47 -19 -90.5t-51.5 -76.5t-75.5 -53t-91 -20q-70 0 -126.5 34.5t-96.5 94t-61.5 139.5t-21.5 171q0 142 39 240t100 158.5t134 87.5t142 27q86 0 161 -35.5t130.5 -100t87 -156t31.5 -202.5zM507 225q0 24 -9.5 45.5t-26 38
t-38 26.5t-45.5 10q-83 0 -136 -99q11 -62 48 -101t88 -39q24 0 45.5 9.5t38 26t26 38t9.5 45.5zM2914 389q1 -106 -12 -218.5t-44 -219.5t-81 -202t-123 -166l-83 77q52 64 93.5 139t70.5 164.5t44.5 195t15.5 230.5q0 68 -9.5 143t-30.5 147.5t-54.5 139t-80 116.5
t-107.5 79.5t-138 29.5q-74 0 -132.5 -30.5t-103 -82t-75.5 -119t-50.5 -140t-28.5 -146t-9 -137.5q0 -70 4 -136t13 -132h333v720h121v-862q0 -415 -225 -415q-128 0 -210 109.5t-118 326.5h-462v110q18 35 27.5 63.5t9.5 53.5q0 34 -16.5 64.5t-43 53t-61 36t-70.5 13.5
q-44 0 -81 -13t-64 -35.5t-42.5 -54t-15.5 -68.5q0 -69 47 -144l-85 -86q-83 97 -83 230q0 63 24.5 116.5t68 92.5t103 61t128.5 22q61 0 117.5 -22.5t100 -61t69.5 -89.5t26 -108q0 -28 -7.5 -57t-20.5 -56h310q-8 65 -11 131.5t-3 136.5q0 82 12.5 171.5t39.5 176
t68.5 164t99 136.5t132 93.5t167.5 34.5q94 0 171 -33.5t137 -91.5t104 -135t72.5 -163t41 -176.5t10.5 -176.5zM2326 0h-311q15 -71 36.5 -129t48 -99.5t57 -64t65.5 -22.5q104 0 104 271v44z" />
    <glyph glyph-name="ml_o" unicode="&#xd12;" horiz-adv-x="1266" 
d="M1181 231q0 -54 -20 -99t-54 -77.5t-78 -51t-93 -18.5q-81 0 -173 69l76 99q43 -47 97 -47q25 0 47.5 8.5t40 25t27.5 40t10 52.5q0 44 -21 78t-60 47q-21 6 -66.5 8.5t-114.5 2.5v120q74 0 124.5 7.5t81 23.5t43.5 42t13 63q0 44 -26.5 79.5t-75 61t-118.5 39t-157 13.5
q-102 0 -186 -32t-147 -90t-102 -137.5t-51 -174.5q31 38 79.5 60.5t102.5 22.5q51 0 94.5 -19.5t76 -53t50.5 -77t18 -91.5q0 -49 -18.5 -92.5t-50 -76.5t-74.5 -52t-92 -19q-65 0 -120 30t-94.5 82t-62 121.5t-22.5 147.5q0 118 45.5 222.5t126 182t190 122.5t237.5 45
q111 0 202 -23t156.5 -66.5t101.5 -105.5t36 -140q0 -51 -23 -94.5t-68 -73.5q21 -15 38 -38t29 -50t18.5 -56.5t6.5 -59.5zM500 225q0 24 -10 45.5t-26.5 38t-38 26.5t-45.5 10q-25 0 -47.5 -10.5t-40.5 -28.5t-30.5 -42.5t-16.5 -52.5q61 -105 135 -105q24 0 45.5 9.5
t38 26t26.5 38t10 45.5z" />
    <glyph glyph-name="ml_oo" unicode="&#xd13;" horiz-adv-x="2048" 
d="M1963 467q0 -106 -33 -194.5t-90 -152.5t-133 -99.5t-163 -35.5q-167 0 -290 144l88 71q106 -94 209 -94q59 0 112 25.5t92.5 73t63 114t23.5 148.5q0 66 -22.5 129t-61 112t-90 79t-110.5 30q-124 0 -214 -96l-92 75q118 142 292 142q93 0 170 -37.5t132.5 -102t86 -150
t30.5 -181.5zM1181 231q0 -54 -20 -99t-54 -77.5t-78 -51t-93 -18.5q-81 0 -173 69l76 99q43 -47 97 -47q25 0 47.5 8.5t40 25t27.5 40t10 52.5q0 44 -21 78t-60 47q-21 6 -66.5 8.5t-114.5 2.5v120q74 0 124.5 7.5t81 23.5t43.5 42t13 63q0 44 -26.5 79.5t-75 61t-118.5 39
t-157 13.5q-102 0 -186 -32t-147 -90t-102 -137.5t-51 -174.5q31 38 79.5 60.5t102.5 22.5q51 0 94.5 -19.5t76 -53t50.5 -77t18 -91.5q0 -49 -18.5 -92.5t-50 -76.5t-74.5 -52t-92 -19q-65 0 -120 30t-94.5 82t-62 121.5t-22.5 147.5q0 118 45.5 222.5t126 182t190 122.5
t237.5 45q111 0 202 -23t156.5 -66.5t101.5 -105.5t36 -140q0 -51 -23 -94.5t-68 -73.5q21 -15 38 -38t29 -50t18.5 -56.5t6.5 -59.5zM500 225q0 24 -10 45.5t-26.5 38t-38 26.5t-45.5 10q-25 0 -47.5 -10.5t-40.5 -28.5t-30.5 -42.5t-16.5 -52.5q61 -105 135 -105
q24 0 45.5 9.5t38 26t26.5 38t10 45.5z" />
    <glyph glyph-name="ml_au" unicode="&#xd14;" horiz-adv-x="2319" 
d="M1181 231q0 -54 -20 -99t-54 -77.5t-78 -51t-93 -18.5q-81 0 -173 69l76 99q43 -47 97 -47q25 0 47.5 8.5t40 25t27.5 40t10 52.5q0 44 -21 78t-60 47q-21 6 -66.5 8.5t-114.5 2.5v120q74 0 124.5 7.5t81 23.5t43.5 42t13 63q0 44 -26.5 79.5t-75 61t-118.5 39t-157 13.5
q-102 0 -186 -32t-147 -90t-102 -137.5t-51 -174.5q31 38 79.5 60.5t102.5 22.5q51 0 94.5 -19.5t76 -53t50.5 -77t18 -91.5q0 -49 -18.5 -92.5t-50 -76.5t-74.5 -52t-92 -19q-65 0 -120 30t-94.5 82t-62 121.5t-22.5 147.5q0 118 45.5 222.5t126 182t190 122.5t237.5 45
q111 0 202 -23t156.5 -66.5t101.5 -105.5t36 -140q0 -51 -23 -94.5t-68 -73.5q21 -15 38 -38t29 -50t18.5 -56.5t6.5 -59.5zM500 225q0 24 -10 45.5t-26.5 38t-38 26.5t-45.5 10q-25 0 -47.5 -10.5t-40.5 -28.5t-30.5 -42.5t-16.5 -52.5q61 -105 135 -105q24 0 45.5 9.5
t38 26t26.5 38t10 45.5zM2234 470q0 -101 -25.5 -189.5t-74.5 -154t-119 -103.5t-158 -38q-57 0 -109 18.5t-95.5 53.5t-76.5 84.5t-51 112.5l107 46q31 -89 90 -141.5t135 -52.5q62 0 110.5 26t82.5 72.5t51.5 110t17.5 139.5q0 27 -3.5 64t-11.5 77t-21 79t-31.5 70.5
t-43 51t-55.5 21.5q-34 0 -60 -10.5t-44 -35t-28.5 -65.5t-13.5 -102v-84h-121v84q0 111 -35.5 162t-105.5 51q-30 0 -57.5 -11.5t-48.5 -30.5t-33 -44.5t-12 -52.5q0 -62 45 -105l-95 -82q-70 76 -70 193q0 52 22.5 98.5t60 81t85 54.5t98.5 20q63 0 116 -27.5t92 -78.5
q38 57 85 81.5t107 24.5q69 0 123.5 -34.5t92.5 -96.5t58 -148t20 -189z" />
    <glyph glyph-name="ml_ka" unicode="&#xd15;" horiz-adv-x="1504" 
d="M1419 249q0 -53 -18.5 -100.5t-51 -84t-77 -58t-97.5 -21.5q-101 0 -193 80l80 90q27 -26 53 -37.5t52 -11.5q29 0 53 11.5t41.5 31t27 45.5t9.5 55q0 54 -20 90.5t-56 59.5t-86.5 34t-110.5 15q-1 -105 -17 -190t-50.5 -146t-88.5 -94t-130 -33q-122 0 -191 84
q-48 -38 -101 -61t-115 -23q-56 0 -101.5 20.5t-77.5 56.5t-50 84t-18 103q0 86 26.5 143.5t75.5 93.5t118 54.5t153 25.5q7 82 27 150t54 117.5t83.5 77t116.5 27.5t116.5 -27.5t83.5 -76.5t53.5 -117.5t27.5 -149.5q88 -6 161.5 -24t126.5 -54t82 -94t29 -146zM739 106
q51 0 83 27t50 74t25 110t7 135h-330q0 -72 7 -135t25.5 -110t50.5 -74t82 -27zM492 173q-20 55 -29 124.5t-9 149.5q-56 -5 -101.5 -16.5t-78 -34t-50.5 -58.5t-18 -89q0 -61 33 -102t93 -41q12 0 32 4.5t42 12.5t45 20.5t41 29.5zM899 572q-5 50 -15.5 94.5t-29.5 78
t-47 53t-68 19.5t-68.5 -19.5t-47.5 -53t-29.5 -78t-15.5 -94.5q40 1 81 1h163q39 0 77 -1z" />
    <glyph glyph-name="ml_kha" unicode="&#xd16;" horiz-adv-x="1663" 
d="M1578 923v-923h-778v111q20 32 38 76t31 92t20.5 95.5t7.5 86.5q0 72 -27 136.5t-73.5 113.5t-110 77.5t-136.5 28.5q-76 0 -139.5 -30t-109 -82.5t-71 -122.5t-25.5 -150q0 -48 7 -79q15 26 36.5 47t47.5 35.5t55.5 22.5t60.5 8q52 0 96 -19t76.5 -51.5t51 -76.5
t18.5 -94t-18.5 -94t-51.5 -76.5t-77 -51t-95 -18.5q-70 0 -132.5 43.5t-110.5 118.5q-37 66 -60.5 142t-23.5 148q0 99 35 190t97.5 160t147.5 110t185 41q95 0 179.5 -38.5t148 -103t100.5 -149.5t37 -179q0 -78 -19.5 -162t-66.5 -185h529v802h120zM533 225q0 24 -9.5 46
t-26 38.5t-38 26t-45.5 9.5q-46 0 -82.5 -30t-49.5 -85q12 -59 48 -91.5t84 -32.5q23 0 44.5 9.5t38 25.5t26.5 37.5t10 46.5z" />
    <glyph glyph-name="ml_ga" unicode="&#xd17;" horiz-adv-x="1334" 
d="M1249 467q0 -91 -26 -175.5t-71.5 -149t-107 -103.5t-133.5 -39v121q48 0 88 27.5t68.5 75t44.5 110t16 133.5q0 57 -11.5 118.5t-35.5 113t-61 85t-88 33.5q-67 0 -105 -38t-59 -97t-31 -130.5l-20 -137.5q-9 -54 -19 -106.5t-26 -100t-38.5 -88.5t-54.5 -70.5
t-76 -46.5t-103 -17q-71 0 -129 38t-99 104t-64 153.5t-23 186.5q0 54 9.5 110t28 107.5t45.5 96.5t63.5 77.5t81 50t97.5 14.5v-121q-43 -1 -80.5 -30.5t-65 -76t-43 -105t-15.5 -116.5q0 -69 14 -135t39.5 -117.5t61 -83.5t79.5 -32q62 0 99 30.5t59 80t32.5 112
t19.5 126.5q7 55 15.5 112t22 110.5t34.5 101t53.5 83t79 56t110.5 20.5q81 0 141.5 -40t101 -106t61 -150.5t20.5 -174.5z" />
    <glyph glyph-name="ml_gha" unicode="&#xd18;" horiz-adv-x="2033" 
d="M1948 0h-1116v288h-269v112q36 54 36 125q0 33 -16.5 61.5t-43 49.5t-60.5 33t-69 12q-41 0 -78 -12t-65 -33t-44.5 -50t-16.5 -63q0 -89 47 -153l-86 -89q-82 107 -82 237q0 62 25 114.5t68.5 90t103 58.5t128.5 21q62 0 118.5 -22.5t99 -61t68 -90t25.5 -110.5
q0 -63 -26 -109h137v165q0 74 31 140.5t83 116t119 78.5t138 29q74 0 140.5 -29.5t116.5 -79t79.5 -116t29.5 -139.5v-286h-617v-167h875v802h121v-923zM1449 405v162q0 50 -19.5 95t-53 79.5t-78 55t-95.5 20.5q-50 0 -95.5 -20t-80 -54t-55 -79.5t-20.5 -96.5v-162h497z
" />
    <glyph glyph-name="ml_nga" unicode="&#xd19;" horiz-adv-x="1432" 
d="M1347 645q0 -28 -7.5 -56.5t-21 -54t-32.5 -46.5t-41 -36q49 -36 75.5 -91.5t26.5 -127.5q0 -47 -21 -89.5t-55.5 -74.5t-79 -50.5t-91.5 -18.5h-103v121q64 0 108 6.5t71 22.5t39 41t12 63q0 65 -55 97t-175 32v120q49 0 90.5 10.5t70.5 30t45.5 47.5t16.5 62t-14.5 64
t-39 52t-56 35t-65.5 13q-36 0 -69.5 -12.5t-59 -34t-40.5 -50.5t-15 -61v-659h-120v453q0 76 -19 142t-53.5 115.5t-83.5 78t-108 28.5t-108.5 -33t-85.5 -86.5t-56.5 -122t-20.5 -140.5q0 -11 -1 -25q1 -13 3 -23q62 79 179 79q48 0 92 -19.5t77.5 -53t53 -77t19.5 -91.5
q0 -47 -19 -90.5t-51.5 -76.5t-76 -53t-91.5 -20q-69 0 -125 34.5t-96.5 94t-62.5 139.5t-22 171q0 57 10 117.5t31 118t53 108t75.5 88.5t99 60t123.5 22q184 0 292 -162q19 35 47.5 65t63 51.5t73.5 33.5t78 12q69 0 127 -22.5t100 -62t65.5 -93t23.5 -115.5zM508 225
q0 24 -9.5 45.5t-26 38t-38.5 26.5t-46 10q-95 0 -135 -100q6 -30 18.5 -55.5t30.5 -44t40 -29t46 -10.5t45.5 9.5t38 26t26.5 38t10 45.5z" />
    <glyph glyph-name="ml_ca" unicode="&#xd1a;" horiz-adv-x="1641" 
d="M1556 923v-923h-1471v121h537q45 0 89.5 25.5t79.5 66t56.5 91.5t21.5 101q0 42 -11 77t-30.5 60.5t-47.5 40t-62 14.5q-32 0 -60.5 -12t-50.5 -33.5t-34.5 -50.5t-12.5 -62q0 -55 54 -92l-65 -91q-110 81 -110 190q0 57 20.5 106.5t57 86.5t86.5 58t108 21
q62 0 113.5 -23.5t88.5 -65t57.5 -99t20.5 -125.5q0 -163 -133 -284h577v802h121z" />
    <glyph glyph-name="ml_cha" unicode="&#xd1b;" horiz-adv-x="2264" 
d="M2172 389q0 -81 -22 -154t-61 -128.5t-92 -88.5t-116 -33q-58 0 -106.5 19t-84 52.5t-55 80.5t-19.5 103q0 51 20.5 97t55.5 81t80.5 55.5t95.5 20.5q112 0 182 -74q-8 81 -41.5 152.5t-87.5 125t-124 84.5t-151 31q-83 0 -157.5 -31.5t-131.5 -86t-90.5 -127
t-33.5 -154.5q0 -53 11.5 -103.5t32.5 -90.5t49.5 -67t62.5 -34v-119h-1304v121h354q44 0 88.5 27t80.5 68.5t58.5 92t22.5 97.5q0 40 -11.5 75t-32.5 60.5t-50 40t-64 14.5q-33 0 -61.5 -11.5t-50 -32t-34 -49.5t-12.5 -63q0 -52 58 -91l-65 -97q-115 81 -115 191
q0 57 22 107t60 87.5t88.5 59t108.5 21.5q62 0 113.5 -24.5t88 -67.5t57 -100.5t20.5 -123.5q0 -84 -30.5 -152.5t-99.5 -128.5h522q-90 129 -90 287q0 109 43 204.5t116 167t170.5 113t205.5 41.5q109 0 204.5 -45t167 -120t113 -173.5t41.5 -206.5zM1869 106q29 0 55.5 13
t47.5 35t34 51t15 60q-22 48 -61 78t-82 30q-64 0 -102.5 -37.5t-38.5 -95.5q0 -28 10.5 -52.5t28.5 -42.5t42 -28.5t51 -10.5z" />
    <glyph glyph-name="ml_ja" unicode="&#xd1c;" horiz-adv-x="1178" 
d="M1093 672q0 -69 -24.5 -115.5t-68 -78t-103.5 -51.5t-130 -36l-200 -48q-28 -7 -65.5 -14.5t-77.5 -16.5t-79.5 -20.5t-70 -25t-49.5 -29.5t-19 -36q0 -43 29.5 -69t103.5 -26q35 0 73.5 10.5t78.5 29.5t78.5 44.5t73.5 54.5l62 49.5t64 44t63.5 32t58.5 12.5
q42 0 79 -17t64 -45.5t43 -66.5t16 -79q0 -43 -15 -78t-42 -60t-63 -38.5t-78 -13.5q-35 0 -66.5 13t-56 34t-40.5 49t-21 58q-106 -80 -197.5 -117t-178.5 -37q-126 0 -188 58t-62 158q0 43 17.5 75.5t48.5 56.5t74 41.5t93.5 31.5t107 26l114.5 25l209 47
q67 18 110.5 34.5t69 36t35 43t9.5 54.5t-11.5 57.5t-32 46t-48.5 30.5t-62 11q-79 0 -113 -55t-34 -179v-37h-121v111q0 32 -14 61t-37.5 51t-54.5 35t-65 13q-48 0 -83 -20q33 0 63 -15t53 -40t36.5 -57.5t13.5 -66.5q0 -36 -15.5 -68.5t-41 -58t-58 -40.5t-66.5 -15
q-42 0 -78.5 18t-62.5 49t-41 73t-15 90q0 54 23.5 103t63.5 86.5t91.5 60t107.5 22.5q75 0 134.5 -27t103.5 -78q41 53 92 79t117 26q63 0 114 -18t87 -52.5t55 -84t19 -111.5zM975 181q0 16 -7 30.5t-18.5 26t-26.5 18.5t-31 7q-35 0 -72 -32q-3 -11 -4 -20.5t-1 -17.5
q0 -39 21.5 -63.5t58.5 -24.5q36 0 58 19t22 57zM342 620q0 26 -20 44t-43 18q-34 0 -59 -16q-2 -15 -4 -37q0 -31 19.5 -51t43.5 -21q19 0 31 5.5t19 14.5t10 20.5t3 22.5z" />
    <glyph glyph-name="ml_jha" unicode="&#xd1d;" horiz-adv-x="2283" 
d="M2198 453q0 -95 -22.5 -180t-63.5 -149t-99 -101.5t-130 -37.5q-143 0 -232 107q-32 -49 -85.5 -78t-122.5 -29q-65 0 -109.5 18t-75 49.5t-48 74t-27 90.5t-14 100t-7.5 102q-7 108 -30.5 183.5t-64.5 123.5t-99.5 69.5t-135.5 21.5q-8 0 -18 1l-7 -1q79 -84 119.5 -200
t40.5 -248q0 -76 -22 -145.5t-61.5 -122.5t-93 -84.5t-116.5 -31.5q-61 0 -114.5 32t-93 85t-62 122.5t-22.5 144.5q0 56 10.5 120t31.5 125t53 114t75 88q-5 1 -11 1h-11q-69 0 -128.5 -35t-103 -93t-68.5 -134t-25 -157q0 -201 118 -322l-81 -82q-157 157 -157 404
q0 108 32 205.5t90.5 172t140.5 118.5t182 44q65 0 143 -33q72 33 207 33q103 0 176.5 -38t121.5 -106.5t73 -164t32 -209.5q6 -93 18 -153.5t31 -96t45 -50t59 -14.5q72 0 114 59t42 172v586h120v-586q0 -47 12.5 -89t35 -73.5t54 -50t69.5 -18.5q45 0 81 29.5t61.5 81
t39.5 122.5t14 155q0 51 -10 101.5t-28.5 96.5t-44.5 84.5t-57 65.5l63 99q196 -150 196 -488zM847 369q1 49 -12 106.5t-36.5 112t-56 102.5t-70.5 79q-42 -29 -74 -75.5t-53.5 -101.5t-32 -113t-10.5 -110q0 -51 13 -98.5t35.5 -84t54 -58.5t69.5 -22q33 0 64 24.5
t55.5 62.5t39 85t14.5 91z" />
    <glyph glyph-name="ml_nya" unicode="&#xd1e;" horiz-adv-x="1996" 
d="M1911 384q0 -211 -151 -390l-91 73q27 29 49.5 67.5t38.5 81.5t25 88t9 87q0 84 -24.5 161t-67.5 136t-101.5 94t-127.5 35q-9 0 -19 -1t-22 -3q37 -41 66.5 -91.5t50 -106t31.5 -115t11 -119.5q0 -84 -19.5 -156t-55 -125.5t-85 -84t-109.5 -30.5q-66 0 -120.5 31.5
t-94 85.5t-61 126t-21.5 153q0 129 42.5 240.5t127.5 195.5q-6 1 -11 0q-100 0 -163 -36.5t-98.5 -99t-47.5 -145t-11 -174.5v-362h-121v453q0 76 -19 142t-53.5 115.5t-83.5 78t-108 28.5t-108.5 -33t-85.5 -86.5t-56.5 -122t-20.5 -140.5q0 -11 -1 -24q1 -12 2 -22
q30 36 79 56.5t102 20.5q48 0 91.5 -19t76.5 -52t53 -77t20 -93q0 -47 -19 -90.5t-51.5 -76.5t-75.5 -53t-91 -20q-69 0 -125.5 34.5t-96.5 94t-62 139.5t-22 171q0 98 30 190.5t82.5 164.5t124 115.5t154.5 43.5q53 0 101.5 -15.5t90.5 -44.5t76 -70t59 -92q21 51 55.5 92
t79 70t97.5 44.5t112 15.5q40 0 80 -10t78 -29q84 39 172 39q71 0 130.5 -23.5t108 -64t85 -95t61 -116t37 -127t12.5 -128.5zM1468 374q0 115 -41 215.5t-124 173.5q-36 -26 -66 -64t-51 -86t-32.5 -105t-11.5 -120q0 -60 12.5 -111.5t35 -89.5t53.5 -59.5t69 -21.5
q36 0 64.5 20.5t49 56.5t31.5 85t11 106zM388 345q-47 0 -83 -27t-52 -71q11 -63 47.5 -102t87.5 -39q24 0 45.5 9.5t38 26t26.5 38t10 45.5t-9.5 45.5t-26 38t-38.5 26.5t-46 10z" />
    <glyph glyph-name="ml_tta" unicode="&#xd1f;" horiz-adv-x="846" 
d="M761 258q0 -63 -27 -113.5t-73 -86t-107.5 -54.5t-130.5 -19q-76 0 -138.5 22.5t-106.5 63.5t-68.5 97t-24.5 124h120q0 -44 17 -78.5t46.5 -58.5t67.5 -36.5t80 -12.5q45 0 85.5 11t71.5 31.5t49.5 48.5t18.5 61q0 31 -16.5 57.5t-47 46t-73 32.5t-93.5 17
q-76 6 -136.5 23t-102.5 48t-64.5 77.5t-22.5 110.5q0 55 26 104t72.5 85.5t109.5 57.5t137 21q67 0 127 -22.5t105.5 -62.5t72 -93.5t26.5 -114.5h-119q-2 38 -18 69.5t-43.5 54.5t-65.5 35.5t-85 12.5q-55 0 -97 -11.5t-70.5 -32t-43 -47t-14.5 -56.5q0 -45 20 -71.5
t55 -41.5t81.5 -22.5l99.5 -15.5q69 -11 124.5 -30t94.5 -50t60 -75.5t21 -105.5z" />
    <glyph glyph-name="ml_ttha" unicode="&#xd20;" horiz-adv-x="1062" 
d="M977 462q0 -106 -35 -194t-95.5 -151t-141.5 -97.5t-174 -34.5t-174 34.5t-141.5 97.5t-95.5 151t-35 194q0 98 35 185t95 151.5t141.5 102t174.5 37.5t174 -37.5t141.5 -102t95.5 -151.5t35 -185zM857 462q0 73 -25.5 137.5t-69.5 113t-103.5 76.5t-127.5 28
q-69 0 -128.5 -28t-103.5 -76.5t-69 -113t-25 -137.5t25 -138t69 -113.5t103.5 -76.5t128.5 -28q68 0 127.5 25t103.5 71.5t69.5 112.5t25.5 147z" />
    <glyph glyph-name="ml_dda" unicode="&#xd21;" horiz-adv-x="1771" 
d="M1686 496q0 -118 -24 -212.5t-68 -161t-105.5 -102t-136.5 -35.5q-145 0 -234 101q-17 -24 -44 -42.5t-58 -31.5t-63.5 -20t-62.5 -7q-80 0 -132.5 28t-84.5 86.5t-47.5 150t-21.5 217.5q-2 54 -8 115t-22 113.5t-45.5 87t-78.5 34.5q-52 0 -97 -28t-78 -74.5t-51.5 -107
t-18.5 -126.5q0 -128 39 -224t106 -164l-67 -108q-100 100 -149 224.5t-49 271.5q0 48 9.5 100.5t28.5 103.5t48 97t68 81.5t88 56t109 20.5q81 0 133.5 -30t83.5 -89t44.5 -147t17.5 -205q3 -93 12.5 -161.5t29 -113.5t52 -66.5t81.5 -21.5q36 0 67 17t54.5 50t37 82.5
t13.5 114.5v553h120v-553q0 -131 46.5 -197.5t123.5 -66.5q49 0 88.5 26.5t67.5 77t43 122.5t15 162q0 106 -35 192.5t-108 148.5l67 105q196 -138 196 -444z" />
    <glyph glyph-name="ml_ddha" unicode="&#xd22;" horiz-adv-x="1913" 
d="M1828 498q0 -150 -34 -249t-87.5 -157.5t-119 -82.5t-128.5 -24q-60 0 -109 15t-88 38t-68.5 50.5t-48.5 52.5q-17 -42 -48 -71.5t-67 -48.5t-73 -27.5t-67 -8.5q-80 0 -132.5 28t-84.5 86.5t-47.5 150t-21.5 217.5q-2 54 -8 115t-22 113.5t-45.5 87t-78.5 34.5
q-52 0 -97 -28t-78 -74.5t-51.5 -107t-18.5 -126.5q0 -128 39 -224t106 -164l-67 -108q-100 100 -149 224.5t-49 271.5q0 48 9.5 100.5t28.5 103.5t48 97t68 81.5t88 56t109 20.5q81 0 133.5 -30t83.5 -89t44.5 -147t17.5 -205q3 -93 12.5 -161.5t29 -113.5t52 -66.5
t81.5 -21.5q36 0 67 17t54.5 50t37 82.5t13.5 114.5v553h120v-553q0 -62 26.5 -111t67 -83t89.5 -52.5t95 -18.5q58 0 104 26t78.5 75t49 120.5t15.5 161.5q0 13 0.5 20t0.5 12t-0.5 11t-2.5 19q-15 -21 -35 -38t-44 -29t-49.5 -19t-50.5 -7q-48 0 -92 19t-77 52t-53 76.5
t-20 92.5q0 50 19.5 94t52.5 76.5t76 51.5t90 19q68 0 124.5 -34.5t97 -94t62.5 -139.5t22 -172zM1525 578q25 0 47 10.5t39.5 28.5t29.5 43.5t18 55.5q-45 101 -134 101q-24 0 -46 -9.5t-38.5 -26t-26 -38.5t-9.5 -46t9.5 -45.5t26 -38t38.5 -26t46 -9.5z" />
    <glyph glyph-name="ml_nna" unicode="&#xd23;" horiz-adv-x="1922" 
d="M1837 494q-1 -83 -9.5 -149.5t-30.5 -124.5t-60.5 -113t-98.5 -116l-61 100q70 71 104.5 170t34.5 226q0 60 -19 119t-52 106t-76 76t-91 29q-75 0 -112 -70.5t-37 -210.5v-536h-121v529q0 153 -37.5 220.5t-118.5 67.5q-49 0 -85 -22.5t-59.5 -71.5t-35 -126t-11.5 -185
v-412h-121v453q0 76 -19 142t-53.5 115.5t-83.5 78t-108 28.5q-58 0 -107.5 -33t-85.5 -86.5t-56.5 -122t-20.5 -140.5q0 -11 -1 -26q1 -13 3 -23q33 43 76.5 61.5t102.5 18.5q48 0 92 -19.5t77 -53t52.5 -77t19.5 -91.5q0 -47 -19 -90.5t-51 -76.5t-75.5 -53t-91.5 -20
q-69 0 -125 34.5t-96.5 94t-62.5 139.5t-22 171q0 57 10.5 117.5t32 118t53.5 108t75.5 88.5t98.5 60t121 22q99 0 179.5 -49.5t130.5 -139.5q79 189 266 189q29 0 59.5 -7t59 -20.5t53 -32t42.5 -41.5q87 101 212 101q77 0 142.5 -36.5t113.5 -98t75.5 -142t27.5 -167.5z
M388 345q-23 0 -44 -8t-39 -21.5t-31.5 -31.5t-20.5 -38q6 -30 18 -56t30 -44.5t40 -29t47 -10.5q24 0 45.5 9.5t38 26t26.5 38t10 45.5t-9.5 45.5t-26 38t-38.5 26.5t-46 10z" />
    <glyph glyph-name="ml_ta" unicode="&#xd24;" horiz-adv-x="1383" 
d="M1297 384q0 -106 -37.5 -207t-113.5 -192l-91 73q26 27 48.5 66.5t39 84.5t25.5 92t9 90q0 84 -21 161t-62 136t-100.5 94t-137.5 35q-13 0 -24 -1t-20 -3q85 -88 123.5 -199t38.5 -238q0 -81 -20 -152t-56 -124.5t-87 -84t-113 -30.5q-65 0 -118 29.5t-90.5 81.5
t-58 124t-20.5 156q0 57 10.5 116.5t32.5 116.5t54 109t76 95q-11 2 -19 4.5l-14 4.5q-77 -2 -141 -36t-109.5 -92.5t-70.5 -136t-25 -166.5q0 -42 9 -89.5t25.5 -92.5t38.5 -85t49 -67l-90 -72q-31 30 -58.5 78t-48.5 103t-33 112t-12 106q0 115 33.5 216t93 176
t141.5 118.5t180 43.5q43 0 81.5 -9.5t76.5 -29.5q84 39 172 39q72 0 132.5 -23.5t109 -64t85.5 -95t61.5 -116t36 -127t9.5 -128.5zM854 369q0 126 -39.5 228t-123.5 166q-38 -29 -67.5 -74t-50 -96.5t-31.5 -106t-10 -103.5q0 -57 11.5 -107.5t33 -88t52.5 -59.5t69 -22
q36 0 65 20.5t49.5 55.5t31 83t10.5 104z" />
    <glyph glyph-name="ml_tha" unicode="&#xd25;" horiz-adv-x="1236" 
d="M1151 0h-1066v923h121v-802h344v480q0 67 23 128t63 107.5t93 74t113 27.5q64 0 120 -25.5t98 -70t66.5 -105t24.5 -129.5v-608zM1030 121v494q0 39 -14.5 75.5t-39.5 64.5t-58 45t-70 17q-39 0 -71.5 -17.5t-56 -47.5t-36 -71t-12.5 -87v-473h358z" />
    <glyph glyph-name="ml_da" unicode="&#xd26;" horiz-adv-x="960" 
d="M875 666q0 -69 -27.5 -125t-81.5 -91q52 -38 77 -90.5t25 -115.5q0 -61 -26.5 -107t-69 -76.5t-97 -45.5t-109.5 -15h-187v121h121q125 0 186.5 28t61.5 95q0 69 -54 107t-163 38h-152v121h193q46 0 80.5 12.5t57.5 33.5t34 47.5t11 55.5q0 38 -18.5 67.5t-48 49.5
t-65.5 30.5t-72 10.5q-56 0 -104.5 -15.5t-86.5 -42.5t-66 -62.5t-44 -75.5q-18 -45 -27.5 -102.5t-13.5 -118.5t-4 -121q0 -59 1 -107v-172h-121v172q0 91 1.5 163t8 132t19 112t34.5 102q27 62 67.5 110t93 80.5t114 49.5t130.5 17q67 0 125.5 -19.5t102 -55.5t69 -86
t25.5 -111z" />
    <glyph glyph-name="ml_dha" unicode="&#xd27;" horiz-adv-x="1304" 
d="M1219 439q0 -99 -27.5 -182.5t-75.5 -144t-114 -94t-142 -33.5q-129 0 -213 102q-84 -102 -202 -102q-77 0 -142.5 35t-114 96t-76 144t-27.5 179q0 85 8.5 151t30.5 124t61 112.5t99 116.5l62 -100q-140 -143 -140 -397q0 -71 19 -133t51.5 -108t76 -72.5t92.5 -26.5
q35 0 62.5 18.5t46 52.5t28.5 80.5t10 103.5v562h121v-562q0 -53 10.5 -99.5t29.5 -81t46.5 -54.5t60.5 -20q48 0 91 26.5t76 72.5t52 108t19 133q0 254 -139 397l61 100q57 -50 95 -103t61 -113.5t33 -131.5t10 -156z" />
    <glyph glyph-name="ml_na" unicode="&#xd28;" horiz-adv-x="1303" 
d="M1218 494q0 -84 -11 -153.5t-34.5 -129.5t-61 -114t-91.5 -106l-62 100q139 140 139 396q0 59 -12 118t-36.5 106t-63.5 76.5t-93 29.5q-39 0 -72 -14.5t-56.5 -46t-37 -81t-13.5 -120.5v-555h-121v555q0 72 -8.5 122t-26 81t-45.5 45t-67 14q-48 0 -91 -28t-75.5 -74.5
t-52 -106t-19.5 -121.5q0 -128 36.5 -225.5t106.5 -168.5l-66 -102q-50 51 -87.5 104.5t-62.5 113.5t-37 130t-12 155q0 91 27.5 171.5t76 141t114.5 96t142 35.5q60 0 119.5 -27.5t101.5 -78.5q43 51 96.5 78.5t117.5 27.5q90 0 154 -35.5t105 -96.5t60 -141.5t19 -170.5z
" />
    <glyph glyph-name="ml_pa" unicode="&#xd2a;" horiz-adv-x="1655" 
d="M1570 923v-923h-1007v110q37 65 37 123q0 32 -16 61t-42 50.5t-60 34.5t-71 13q-42 0 -79 -12t-65.5 -33t-45 -50t-16.5 -64q0 -82 48 -151l-84 -87q-17 14 -32 41t-26.5 59.5t-18.5 67t-7 64.5q0 64 25 117t69 90.5t103.5 58.5t128.5 21q64 0 120 -22.5t98 -62t66.5 -93
t24.5 -116.5q0 -53 -24 -99h753v802h121z" />
    <glyph glyph-name="ml_pha" unicode="&#xd2b;" horiz-adv-x="1665" 
d="M1580 608v-608h-1016v111q37 80 37 122q0 33 -16.5 62t-43.5 51t-61 34.5t-69 12.5q-42 0 -79 -12t-65.5 -33t-45 -50.5t-16.5 -64.5q0 -66 51 -151l-88 -89q-83 95 -83 234q0 60 25 112.5t68.5 91.5t103.5 61t129 22q62 0 118.5 -22.5t99 -61.5t68 -91t25.5 -110
q0 -29 -6.5 -55.5t-19.5 -52.5h285v480q0 67 22.5 128t61.5 107.5t92 74t113 27.5q65 0 121.5 -26t98.5 -70.5t66 -104.5t24 -129zM1458 594q0 46 -13.5 87t-37 71t-55.5 47.5t-69 17.5q-38 0 -71 -17t-57.5 -45.5t-38.5 -64.5t-14 -75v-494h356v473z" />
    <glyph glyph-name="ml_ba" unicode="&#xd2c;" horiz-adv-x="1956" 
d="M1871 923v-923h-657v108q97 200 97 386q0 66 -18 124.5t-50 103t-78 70t-101 25.5q-104 0 -153.5 -87t-49.5 -278v-452h-120v453q0 76 -19.5 142.5t-54.5 116t-83.5 77.5t-106.5 28q-59 0 -108.5 -33t-85.5 -86.5t-56.5 -122t-20.5 -140.5q0 -11 -1 -25q1 -12 3 -23
q31 38 76.5 58.5t103.5 20.5q47 0 90.5 -19t77 -52t53.5 -77t20 -93q0 -47 -19 -90.5t-51.5 -76.5t-76 -53t-91.5 -20q-69 0 -125 34.5t-96.5 94t-62.5 139.5t-22 171q0 97 25.5 189.5t75.5 164.5t123 116t168 44q91 0 170.5 -47t131.5 -131q18 39 47 71.5t65.5 56t78.5 37
t87 13.5q84 0 152.5 -34.5t118 -94.5t76.5 -141t27 -174q0 -195 -90 -373h409v802h121zM508 225q0 24 -9.5 45.5t-26 38t-38 26.5t-45.5 10q-96 0 -136 -99q11 -62 48.5 -101t87.5 -39q24 0 45.5 9.5t38 26t26 38t9.5 45.5z" />
    <glyph glyph-name="ml_bha" unicode="&#xd2d;" horiz-adv-x="1118" 
d="M1033 220q0 -51 -24 -94t-69 -74.5t-110 -49t-147 -17.5q-112 0 -201.5 35.5t-154.5 93.5l79 83q53 -44 119.5 -68.5t154.5 -24.5q105 0 168 28t63 84q0 24 -12.5 42.5t-33.5 31t-48.5 19t-57.5 6.5q-28 0 -52.5 -5t-50.5 -11.5t-56 -11.5t-68 -5q-45 0 -84 16.5
t-67 44.5t-44 66t-16 81q0 42 18.5 79t49.5 65.5t71 45t84 16.5q39 0 73.5 -4.5t66.5 -10t63 -10t63 -4.5q36 0 54 14.5t18 39.5q0 47 -59 71.5t-179 24.5q-215 0 -326.5 -124.5t-111.5 -362.5q0 -68 13 -149t38 -169l-115 -27q-28 102 -42.5 190.5t-14.5 154.5
q0 142 37.5 255t108.5 191.5t173.5 120t233.5 41.5q183 0 273.5 -55.5t90.5 -161.5q0 -38 -15.5 -70t-41 -55.5t-58.5 -37t-67 -13.5q-37 0 -69 5t-62.5 11.5t-61 11.5t-63.5 5q-25 0 -47 -6t-39 -17.5t-27 -28.5t-10 -38q0 -14 8 -28.5t21.5 -26t31 -19t36.5 -7.5
q33 0 60 4.5t51.5 10t48.5 10t52 4.5q68 0 120.5 -16t88.5 -44.5t55 -68t19 -87.5z" />
    <glyph glyph-name="ml_ma" unicode="&#xd2e;" horiz-adv-x="1153" 
d="M1068 533v-533h-983v533q0 96 44 171.5t114.5 127t158 79t174.5 27.5q58 0 117 -12t113.5 -36t102.5 -58.5t83 -79.5t55.5 -100t20.5 -119zM947 491q0 83 -29 141t-74 96t-100 58t-107 27q26 -38 42 -85.5t16 -98.5q1 -48 -14 -88t-40.5 -75.5t-60.5 -68l-74 -66.5
l-60 -50.5t-56.5 -50.5t-42 -48.5t-16.5 -44.5q0 -16 41 -16h575v370zM578 615q0 25 -6 52t-18 53t-30 49t-41 38q-50 -10 -99.5 -31.5t-89 -59t-64 -93t-24.5 -132.5v-305q22 37 47.5 66t52 54t54.5 48l56 47q33 27 60.5 52t49 50t35 52t17.5 60z" />
    <glyph glyph-name="ml_ya" unicode="&#xd2f;" horiz-adv-x="1623" 
d="M1538 542q0 -116 -36.5 -217.5t-100.5 -177t-150 -119t-185 -43.5q-112 0 -223 64q-116 -64 -240 -64q-115 0 -210.5 42t-163.5 116.5t-106 177t-38 224.5q0 74 24.5 144.5t68 126t103 89t128.5 33.5q75 0 137.5 -31.5t97.5 -97.5q16 28 38.5 51.5t49 40.5t55 27t57.5 10
q58 0 108 -30t87 -81t57.5 -118.5t20.5 -142.5q0 -126 -42.5 -237t-128.5 -202q26 -11 56 -16t68 -5q72 0 135.5 37.5t110.5 99t74 141.5t27 166q0 48 -17 95.5t-47 86t-71 63t-89 27.5l39 116q70 -9 126.5 -43t96.5 -87t61.5 -121t21.5 -145zM744 133q-35 44 -60.5 87.5
t-44 93.5t-31 110.5t-20.5 139.5q-13 123 -56.5 188t-112.5 65q-45 0 -84 -22t-67.5 -59.5t-45 -86.5t-16.5 -103q0 -84 26 -163.5t76 -141t124 -98.5t169 -37q35 0 70 6.5t73 20.5zM996 578q0 48 -11.5 91t-32 76t-48.5 52.5t-60 19.5q-29 0 -53.5 -23t-42.5 -59.5
t-28 -82.5t-10 -91q0 -103 34 -196t103 -165q39 34 67 77t46 92t27 102t9 107z" />
    <glyph glyph-name="ml_ra" unicode="&#xd30;" horiz-adv-x="1209" 
d="M1124 368q0 -88 -24.5 -159t-67.5 -120.5t-100.5 -76.5t-123.5 -27q-77 0 -137.5 30.5t-102.5 83.5t-64 124t-22 151q0 72 19.5 138t58 119t95 89.5t130.5 49.5q-35 20 -78 33.5t-91 13.5q-86 0 -160.5 -33.5t-130 -91.5t-87.5 -135.5t-32 -165.5q0 -178 104 -294
l-65 -110q-81 88 -120.5 192.5t-39.5 225.5q0 106 40 202.5t110 170t166 117t208 43.5q77 0 145.5 -22.5t125.5 -62.5t102.5 -94t77 -117.5t48 -133t16.5 -140.5zM1003 374q0 91 -33 165.5t-91 128.5q-58 -1 -108 -21.5t-87.5 -58.5t-59 -92t-21.5 -122q0 -53 15 -101.5
t41.5 -85.5t62.5 -59t79 -22t80 19.5t64 55t42.5 84.5t15.5 109z" />
    <glyph glyph-name="ml_rra" unicode="&#xd31;" horiz-adv-x="1194" 
d="M1109 443q0 -71 -21.5 -139t-55.5 -128t-76 -109t-84 -83l-77 95q48 49 84 92t60 85.5t36 88t12 98.5q0 79 -31 147.5t-84.5 118.5t-124.5 79t-151 29q-80 -1 -151 -29.5t-124 -79t-83.5 -118.5t-30.5 -147q0 -53 12 -98.5t36 -88t60 -85.5t84 -92l-77 -95q-42 34 -84 83
t-76 109t-55.5 128t-21.5 139q0 107 39 197.5t107.5 156.5t162 103t202.5 38q108 0 202 -37.5t163 -103.5t108.5 -156.5t39.5 -197.5z" />
    <glyph glyph-name="ml_la" unicode="&#xd32;" horiz-adv-x="1367" 
d="M1282 923v-923h-1197v570q0 74 31 140.5t82.5 117t118.5 80.5t139 30q74 0 140 -30t116 -80.5t79.5 -117t29.5 -140.5v-282h-616v-167h957v802h120zM701 563q0 50 -19.5 96t-52.5 81t-77.5 56t-95.5 21q-50 0 -95.5 -20.5t-80 -55t-55 -80.5t-20.5 -98v-158h496v158z" />
    <glyph glyph-name="ml_lla" unicode="&#xd33;" horiz-adv-x="1147" 
d="M1062 632q0 -60 -34 -113.5t-88 -84.5q122 -106 122 -255q0 -92 -28 -160.5t-90 -113.5t-160.5 -67.5t-238.5 -22.5h-255q-38 0 -60 -17t-22 -54q0 -13 5.5 -25.5t14.5 -23t21.5 -17t26.5 -6.5h786v-120h-786q-36 0 -70 16t-60.5 43t-42.5 62t-16 72q0 42 15.5 76.5
t42.5 60t62.5 39.5t75.5 14h274q105 0 178.5 16t119.5 47t66.5 74.5t20.5 99.5q0 49 -19 89t-54 68.5t-83.5 43.5t-106.5 15v121q76 0 127 6.5t81 20.5t42.5 37.5t12.5 58.5q0 40 -23.5 74t-63 59t-92 38.5t-110.5 13.5q-96 0 -176 -33.5t-139.5 -92t-96 -138.5t-43.5 -173
q66 86 184 86q50 0 93.5 -19t75.5 -51.5t50.5 -76.5t18.5 -94q0 -52 -19.5 -96t-53.5 -76t-79 -50t-96 -18q-62 0 -114.5 32t-90.5 85t-60 123t-22 147q0 111 40.5 213.5t114 180.5t177.5 125t230 47q81 0 155.5 -23t132.5 -64t92.5 -97t34.5 -122zM380 345
q-55 0 -91.5 -36.5t-45.5 -97.5q49 -105 137 -105q24 0 46 9.5t38 26t25.5 38t9.5 45.5t-9.5 45.5t-25.5 38t-37.5 26.5t-46.5 10z" />
    <glyph glyph-name="ml_llla" unicode="&#xd34;" horiz-adv-x="1204" 
d="M1119 669q0 -59 -28.5 -116.5t-75.5 -105.5t-108 -83t-127 -49q-3 -161 -86 -245.5t-252 -84.5q-41 0 -84.5 11.5t-85 32.5t-79 50.5t-65.5 65.5l96 87q82 -126 243 -126q91 0 138.5 50t51.5 135q-22 1 -34.5 -0.5t-27.5 -1.5q-93 0 -176 25t-159 73q-175 115 -175 292
q0 80 34 146t102 122l77 -90q-92 -90 -92 -185q0 -58 37.5 -108t102.5 -88q59 -32 124.5 -48.5t131.5 -16.5h26q13 0 26 2q-3 18 -8 51.5t-9.5 70.5t-8 72.5t-3.5 57.5q0 53 18.5 102t51 87t77.5 61t98 23q57 0 103.5 -19.5t78.5 -55t49.5 -85t17.5 -109.5zM995 672
q0 28 -9.5 54t-26 46.5t-39.5 32.5t-50 12q-26 0 -48.5 -12.5t-39.5 -33.5t-26.5 -48.5t-9.5 -57.5q0 -22 3 -54t7 -65l8 -63t7 -47q44 11 84.5 35t71.5 56t49.5 69.5t18.5 75.5z" />
    <glyph glyph-name="ml_va" unicode="&#xd35;" horiz-adv-x="1769" 
d="M1109 443q0 -89 -32 -171.5t-80 -150.5h567v802h120v-923h-825l-64 79q48 49 84 92t60 85.5t36 88t12 98.5q0 79 -31 147.5t-84.5 118.5t-124.5 79t-151 29q-80 -1 -151 -29.5t-124 -79t-83.5 -118.5t-30.5 -147q0 -53 12 -98.5t36 -88t60 -85.5t84 -92l-77 -95
q-42 34 -84 83t-76 109t-55.5 128t-21.5 139q0 107 39 197.5t107.5 156.5t162 103t202.5 38q108 0 202 -37.5t163 -103.5t108.5 -156.5t39.5 -197.5z" />
    <glyph glyph-name="ml_sha" unicode="&#xd36;" horiz-adv-x="1411" 
d="M1326 453q0 -95 -21 -180t-61 -149t-96.5 -101.5t-126.5 -37.5q-51 0 -95 19t-76 52t-50 76.5t-18 92.5q0 50 19.5 94t52.5 76.5t77 51.5t94 19q24 0 49 -7t49 -19t45.5 -28.5t38.5 -35.5q2 20 3 41t1 41q0 78 -17.5 144t-51.5 113.5t-83.5 74.5t-113.5 27
q-72 0 -115 -34.5t-67 -86.5t-33.5 -113t-14.5 -115q-5 -56 -13.5 -114t-24 -111.5t-38.5 -100.5t-57 -82t-80.5 -55t-107.5 -20q-76 0 -133.5 32t-96.5 89.5t-59 136.5t-20 172q0 47 6 99t19.5 104.5t35.5 102t55 92t77 74.5t101 49l27 -114q-45 -13 -82 -52t-63 -95
t-40.5 -123.5t-14.5 -136.5q0 -68 11.5 -124.5t35 -97.5t58 -64t79.5 -23q42 0 73 17.5t53 47.5t36.5 69.5t23.5 84t14.5 90.5t9.5 88q5 50 14.5 102t26 100.5t41.5 91t60 74t82 49.5t108 18q89 0 161.5 -37t124.5 -102t80 -153.5t28 -192.5zM1175 246q-12 20 -30 38
t-38.5 31.5t-42.5 21.5t-43 8q-24 0 -45.5 -9.5t-38 -26t-26 -38t-9.5 -46.5q0 -26 10 -47.5t27 -37.5t38 -25t44 -9q26 0 50.5 10.5t44.5 29.5t35.5 44.5t23.5 55.5z" />
    <glyph glyph-name="ml_ssa" unicode="&#xd37;" horiz-adv-x="1663" 
d="M1578 923v-923h-1015v112q37 53 37 121q0 34 -16.5 63t-43.5 50.5t-61.5 33.5t-71.5 12q-41 0 -77.5 -12t-64.5 -33.5t-44 -50.5t-16 -63q0 -82 49 -152l-88 -88q-81 99 -81 234q0 61 25.5 114t69 91t102.5 60t125 22q61 0 118 -21.5t100 -59.5t69 -89t26 -111
q0 -32 -6 -58.5t-20 -53.5h367v297q-11 -1 -22 -1h-22q-87 0 -157 18.5t-118.5 54.5t-74.5 89.5t-26 123.5q0 52 21 95t56 74t81 48.5t96 17.5q140 0 212 -95t75 -283q57 16 107 43t87.5 61.5t59.5 73.5t22 79v106h120zM1458 560q-108 -89 -276 -125v-314h276v439zM1061 536
v27q0 126 -41 190t-125 64q-33 0 -58.5 -10t-42 -26t-25 -36.5t-8.5 -41.5q0 -79 68.5 -123.5t192.5 -44.5z" />
    <glyph glyph-name="ml_sa" unicode="&#xd38;" horiz-adv-x="1764" 
d="M1679 472q0 -98 -24 -186.5t-69 -155t-109.5 -106t-144.5 -39.5q-78 0 -129 40t-81.5 107t-46 155.5t-22.5 185.5q-5 68 -13.5 130t-26 109.5t-48.5 76t-81 28.5q-39 0 -70.5 -14.5t-54 -46t-34.5 -81t-12 -120.5v-555h-121v555q0 72 -8.5 122t-26 81t-45.5 45t-67 14
q-48 0 -91 -28t-75.5 -74.5t-52 -106t-19.5 -121.5q0 -128 36.5 -225.5t106.5 -168.5l-66 -102q-50 51 -87.5 104.5t-62.5 113.5t-37 130t-12 155q0 91 27.5 171.5t76 141t114.5 96t142 35.5q60 0 119.5 -27.5t101.5 -78.5q43 51 96.5 78.5t117.5 27.5q88 0 142 -37.5
t85.5 -101t45 -146t21.5 -172.5q9 -106 22 -178t32 -115.5t45.5 -62.5t62.5 -19q52 0 94 30t71 79t44.5 111.5t15.5 127.5q0 251 -131 385l55 104q99 -100 146.5 -217t47.5 -254z" />
    <glyph glyph-name="ml_ha" unicode="&#xd39;" horiz-adv-x="2143" 
d="M2058 467q0 -212 -161 -473l-92 64q132 184 132 409q0 72 -33 136t-88 111.5t-127.5 75t-150.5 27.5t-149 -28t-125.5 -75.5t-87 -111t-32.5 -135.5q0 -178 94 -357v-110h-674v112q36 54 36 121q0 34 -16.5 63t-43.5 50.5t-62 33.5t-71 12q-41 0 -77.5 -12.5t-64 -34
t-43.5 -50.5t-16 -62q0 -79 47 -152l-86 -88q-82 100 -82 234q0 63 25.5 115.5t69 90.5t102 59.5t125.5 21.5q61 0 117.5 -21.5t100 -59.5t70 -89.5t26.5 -110.5q0 -30 -6 -58t-20 -54h415q-45 93 -66 179t-21 167q0 99 41 184.5t111.5 149.5t164 100.5t198.5 36.5
t199.5 -36.5t165.5 -100.5t113 -149.5t42 -184.5z" />
    <glyph glyph-name="ml_aakaar" unicode="&#xd3e;" horiz-adv-x="861" 
d="M776 467q0 -106 -33 -194.5t-90 -152.5t-133 -99.5t-163 -35.5q-167 0 -290 144l88 71q106 -94 209 -94q59 0 112 25.5t92.5 73t63 114t23.5 148.5q0 66 -22.5 129t-61 112t-90 79t-110.5 30q-124 0 -214 -96l-92 75q118 142 292 142q93 0 170 -37.5t132.5 -102t86 -150
t30.5 -181.5z" />
    <glyph glyph-name="ml_ikaar" unicode="&#xd3f;" horiz-adv-x="598" 
d="M513 1041v-1041h-121v1050q0 48 -18.5 91.5t-50 76.5t-74 52.5t-89.5 19.5q-53 0 -97.5 -19.5t-77 -53t-51 -79.5t-18.5 -99v-39h-120v31q0 79 25.5 148t72.5 120t113.5 80t148.5 29q77 0 142.5 -29t113 -78.5t74.5 -116.5t27 -143z" />
    <glyph glyph-name="ml_iikaar" unicode="&#xd40;" horiz-adv-x="464" 
d="M378 946v-946h-121v947q0 69 -19.5 131t-54.5 109t-83.5 75t-107.5 28h-31q48 -47 48 -123q0 -37 -12.5 -67.5t-34.5 -53t-52.5 -35t-67.5 -12.5q-38 0 -69 12t-54 34t-35.5 51.5t-12.5 64.5q0 53 25 98t68.5 78t101.5 52t123 19q86 0 157.5 -36.5t123 -99.5t80 -147
t28.5 -179zM-89 1168q0 27 -15 50.5t-49 43.5q-15 -3 -29.5 -13t-25 -23.5t-17 -29t-6.5 -28.5t5.5 -25.5t15.5 -22.5t23 -16t28 -6q29 0 49.5 20.5t20.5 49.5z" />
    <glyph glyph-name="ml_ukaar" unicode="&#xd41;" horiz-adv-x="567" 
d="M482 563q0 -63 -11.5 -108t-33.5 -85.5t-52.5 -85l-69.5 -105.5q-30 -48 -54 -91.5t-29 -67.5q36 -14 65.5 -37t51 -52.5t33.5 -64.5t12 -71q0 -47 -19.5 -91t-52.5 -77.5t-76 -54t-90 -20.5q-50 0 -94 18.5t-77 51t-52 76t-19 94.5q0 43 14 82.5t39 71t59.5 53
t74.5 30.5q-3 7 4.5 26.5t22 45.5t34 56.5l40.5 61.5l60.5 91l43.5 66t29 48.5t17 39.5t8 39t2 46q0 49 -12.5 92.5t-36.5 79.5t-57.5 62t-75.5 39l37 115q128 -34 196.5 -130t68.5 -244zM274 -207q0 24 -10 45.5t-26.5 38t-38 26.5t-45.5 10t-46 -10t-38.5 -26.5t-26 -38
t-9.5 -45.5t9.5 -46t26 -38.5t38.5 -26t46 -9.5t45.5 9.5t38 26t26.5 38.5t10 46z" />
    <glyph glyph-name="ml_uukaar" unicode="&#xd42;" horiz-adv-x="768" 
d="M-85 -274q0 52 24 100t64.5 87t95 67t116.5 40q8 40 27.5 85.5t55.5 92.5q38 49 70.5 97.5t56.5 93.5t37.5 85.5t13.5 74.5q0 48 -12.5 91.5t-36 79t-57.5 62t-76 40.5l36 115q65 -17 114.5 -51t83.5 -82.5t51 -109.5t17 -131q0 -75 -24 -140.5t-55.5 -118.5t-63 -94
t-46.5 -67l-33.5 -62t-23.5 -55q67 -7 127.5 -32.5t106 -65.5t72.5 -92t27 -110q0 -73 -31.5 -134.5t-85 -106.5t-123.5 -70t-147 -25q-78 0 -147 25.5t-121 70.5t-82.5 106.5t-30.5 133.5zM524 -189q0 -47 -17.5 -87t-47.5 -69t-69.5 -46t-84.5 -17q-46 0 -85.5 16.5
t-69 45.5t-46.5 69t-17 88q0 12 0.5 26t2.5 25q-76 -57 -76 -136q0 -48 25 -91.5t65.5 -75.5t91.5 -51t104 -19q51 0 101.5 18.5t91 50t66 72.5t25.5 87q0 66 -62 122q1 -8 1.5 -14t0.5 -14zM186 -189q0 -24 9.5 -46t26 -38.5t38 -26t45.5 -9.5t45.5 9.5t38 26t26.5 38.5
t10 46q0 27 -10 48.5t-27.5 36.5t-40.5 23.5t-49 8.5q-23 0 -43.5 -9.5t-35.5 -25.5t-24 -37.5t-9 -44.5z" />
    <glyph glyph-name="ml_rikaar" unicode="&#xd43;" horiz-adv-x="843" 
d="M437 941q0 -80 21.5 -170t60.5 -182l77.5 -163.5l77.5 -164.5q84 -200 84 -366q0 -114 -34 -207t-95.5 -159t-148 -102.5t-192.5 -36.5q-78 0 -146 17.5t-118.5 50.5t-79.5 79.5t-29 104.5q0 56 28.5 101.5t78 78t116 50.5t143.5 18q76 0 164 -12.5t189 -35.5q3 33 3 63
q0 74 -21 159t-59 173l-75 156l-75 156q-83 187 -83 343zM610 -277q-80 24 -161 35.5t-166 11.5q-54 0 -99 -9t-78 -25t-51.5 -39t-18.5 -51q0 -30 20 -55t54 -42.5t80 -27t98 -9.5q114 0 199.5 55t122.5 156z" />
    <glyph glyph-name="ml_ekaar" unicode="&#xd46;" horiz-adv-x="995" 
d="M910 443q0 -71 -13 -139t-36.5 -127.5t-56 -109t-71.5 -83.5l-77 95q35 32 60 73t41 88t23.5 98.5t7.5 104.5q0 76 -19.5 143.5t-56 118.5t-90 81t-122.5 30q-74 0 -129.5 -33t-92.5 -86.5t-55 -122t-18 -139.5q0 -11 -1 -26q1 -15 3 -25q27 32 75 57t105 25
q48 0 91.5 -19t76.5 -52t53 -77t20 -93q0 -47 -19 -90.5t-51.5 -76.5t-75.5 -53t-91 -20q-70 0 -126.5 34.5t-96.5 94t-61.5 139.5t-21.5 171q0 142 39 240t100 158.5t134 87.5t142 27q86 0 161 -35.5t130.5 -100t87 -156t31.5 -202.5zM507 225q0 24 -9.5 45.5t-26 38
t-38 26.5t-45.5 10q-83 0 -136 -99q11 -62 48 -101t88 -39q24 0 45.5 9.5t38 26t26 38t9.5 45.5z" />
    <glyph glyph-name="ml_eekaar" unicode="&#xd47;" horiz-adv-x="879" 
d="M794 209q0 -47 -20.5 -87.5t-58 -71t-91 -48t-118.5 -17.5q-90 0 -167 39t-133.5 105.5t-88.5 154t-32 183.5q0 92 31.5 177t86.5 150.5t130 104.5t161 39q61 0 115.5 -16t95.5 -46t65 -72t24 -94q0 -37 -15 -71.5t-41 -61t-60.5 -42.5t-73.5 -16q-41 0 -76.5 15
t-61.5 41t-41 62t-15 78q0 27 8.5 51.5t25.5 44.5q-50 -10 -93.5 -43t-75.5 -80.5t-50.5 -105t-18.5 -115.5q0 -60 18 -119.5t49.5 -108.5t75 -83t93.5 -44q-33 37 -33 99q0 40 14.5 75.5t40 61.5t61.5 41.5t80 15.5q43 0 78 -16.5t60 -43.5t38 -62.5t13 -73.5zM672 212
q0 15 -6 28t-16 22.5t-22.5 15t-25.5 5.5q-29 0 -50.5 -21t-21.5 -50q0 -55 61 -84q81 21 81 84zM672 711q0 14 -7 28.5t-18 26t-25 19.5t-28 9q-64 -31 -64 -83q0 -29 21.5 -50t50.5 -21q13 0 25.5 5.5t22.5 15t16 22.5t6 28z" />
    <glyph glyph-name="ml_aikaar" unicode="&#xd48;" horiz-adv-x="1910" 
d="M1825 443q0 -71 -13 -139t-36.5 -127.5t-56 -109t-71.5 -83.5l-77 95q35 32 60 73t41 88t23.5 98.5t7.5 104.5q0 76 -19.5 143.5t-56 118.5t-90 81t-122.5 30q-74 0 -129.5 -33t-92.5 -86.5t-55 -122t-18 -139.5q0 -11 -1 -26q1 -15 3 -25q27 32 75 57t105 25
q48 0 91.5 -19t76.5 -52t53 -77t20 -93q0 -47 -19 -90.5t-51.5 -76.5t-75.5 -53t-91 -20q-70 0 -126.5 34.5t-96.5 94t-61.5 139.5t-21.5 171q0 142 39 240t100 158.5t134 87.5t142 27q86 0 161 -35.5t130.5 -100t87 -156t31.5 -202.5zM1422 225q0 24 -9.5 45.5t-26 38
t-38 26.5t-45.5 10q-83 0 -136 -99q11 -62 48 -101t88 -39q24 0 45.5 9.5t38 26t26 38t9.5 45.5zM910 443q0 -71 -13 -139t-36.5 -127.5t-56 -109t-71.5 -83.5l-77 95q35 32 60 73t41 88t23.5 98.5t7.5 104.5q0 76 -19.5 143.5t-56 118.5t-90 81t-122.5 30q-74 0 -129.5 -33
t-92.5 -86.5t-55 -122t-18 -139.5q0 -11 -1 -26q1 -15 3 -25q27 32 75 57t105 25q48 0 91.5 -19t76.5 -52t53 -77t20 -93q0 -47 -19 -90.5t-51.5 -76.5t-75.5 -53t-91 -20q-70 0 -126.5 34.5t-96.5 94t-61.5 139.5t-21.5 171q0 142 39 240t100 158.5t134 87.5t142 27
q86 0 161 -35.5t130.5 -100t87 -156t31.5 -202.5zM507 225q0 24 -9.5 45.5t-26 38t-38 26.5t-45.5 10q-83 0 -136 -99q11 -62 48 -101t88 -39q24 0 45.5 9.5t38 26t26 38t9.5 45.5z" />
    <glyph glyph-name="ml_okaar" unicode="&#xd4a;" horiz-adv-x="2574" 
d="M910 443q0 -71 -13 -139t-36.5 -127.5t-56 -109t-71.5 -83.5l-77 95q35 32 60 73t41 88t23.5 98.5t7.5 104.5q0 76 -19.5 143.5t-56 118.5t-90 81t-122.5 30q-74 0 -129.5 -33t-92.5 -86.5t-55 -122t-18 -139.5q0 -11 -1 -26q1 -15 3 -25q27 32 75 57t105 25
q48 0 91.5 -19t76.5 -52t53 -77t20 -93q0 -47 -19 -90.5t-51.5 -76.5t-75.5 -53t-91 -20q-70 0 -126.5 34.5t-96.5 94t-61.5 139.5t-21.5 171q0 142 39 240t100 158.5t134 87.5t142 27q86 0 161 -35.5t130.5 -100t87 -156t31.5 -202.5zM507 225q0 24 -9.5 45.5t-26 38
t-38 26.5t-45.5 10q-83 0 -136 -99q11 -62 48 -101t88 -39q24 0 45.5 9.5t38 26t26 38t9.5 45.5zM2489 467q0 -106 -33 -194.5t-90 -152.5t-133 -99.5t-163 -35.5q-167 0 -290 144l88 71q106 -94 209 -94q59 0 112 25.5t92.5 73t63 114t23.5 148.5q0 66 -22.5 129t-61 112
t-90 79t-110.5 30q-124 0 -214 -96l-92 75q118 142 292 142q93 0 170 -37.5t132.5 -102t86 -150t30.5 -181.5z" />
    <glyph glyph-name="ml_ookaar" unicode="&#xd4b;" horiz-adv-x="2574" 
d="M794 209q0 -47 -20.5 -87.5t-58 -71t-91 -48t-118.5 -17.5q-90 0 -167 39t-133.5 105.5t-88.5 154t-32 183.5q0 92 31.5 177t86.5 150.5t130 104.5t161 39q61 0 115.5 -16t95.5 -46t65 -72t24 -94q0 -37 -15 -71.5t-41 -61t-60.5 -42.5t-73.5 -16q-41 0 -76.5 15
t-61.5 41t-41 62t-15 78q0 27 8.5 51.5t25.5 44.5q-50 -10 -93.5 -43t-75.5 -80.5t-50.5 -105t-18.5 -115.5q0 -60 18 -119.5t49.5 -108.5t75 -83t93.5 -44q-33 37 -33 99q0 40 14.5 75.5t40 61.5t61.5 41.5t80 15.5q43 0 78 -16.5t60 -43.5t38 -62.5t13 -73.5zM672 212
q0 15 -6 28t-16 22.5t-22.5 15t-25.5 5.5q-29 0 -50.5 -21t-21.5 -50q0 -55 61 -84q81 21 81 84zM672 711q0 14 -7 28.5t-18 26t-25 19.5t-28 9q-64 -31 -64 -83q0 -29 21.5 -50t50.5 -21q13 0 25.5 5.5t22.5 15t16 22.5t6 28zM2489 467q0 -106 -33 -194.5t-90 -152.5
t-133 -99.5t-163 -35.5q-167 0 -290 144l88 71q106 -94 209 -94q59 0 112 25.5t92.5 73t63 114t23.5 148.5q0 66 -22.5 129t-61 112t-90 79t-110.5 30q-124 0 -214 -96l-92 75q118 142 292 142q93 0 170 -37.5t132.5 -102t86 -150t30.5 -181.5z" />
    <glyph glyph-name="ml_aukaar" unicode="&#xd4c;" horiz-adv-x="2924" 
d="M910 443q0 -71 -13 -139t-36.5 -127.5t-56 -109t-71.5 -83.5l-77 95q35 32 60 73t41 88t23.5 98.5t7.5 104.5q0 76 -19.5 143.5t-56 118.5t-90 81t-122.5 30q-74 0 -129.5 -33t-92.5 -86.5t-55 -122t-18 -139.5q0 -11 -1 -26q1 -15 3 -25q27 32 75 57t105 25
q48 0 91.5 -19t76.5 -52t53 -77t20 -93q0 -47 -19 -90.5t-51.5 -76.5t-75.5 -53t-91 -20q-70 0 -126.5 34.5t-96.5 94t-61.5 139.5t-21.5 171q0 142 39 240t100 158.5t134 87.5t142 27q86 0 161 -35.5t130.5 -100t87 -156t31.5 -202.5zM507 225q0 24 -9.5 45.5t-26 38
t-38 26.5t-45.5 10q-83 0 -136 -99q11 -62 48 -101t88 -39q24 0 45.5 9.5t38 26t26 38t9.5 45.5zM2839 470q0 -101 -25.5 -189.5t-74.5 -154t-119 -103.5t-158 -38q-57 0 -109 18.5t-95.5 53.5t-76.5 84.5t-51 112.5l107 46q31 -89 90 -141.5t135 -52.5q62 0 110.5 26
t82.5 72.5t51.5 110t17.5 139.5q0 27 -3.5 64t-11.5 77t-21 79t-31.5 70.5t-43 51t-55.5 21.5q-34 0 -60 -10.5t-44 -35t-28.5 -65.5t-13.5 -102v-84h-121v84q0 111 -35.5 162t-105.5 51q-30 0 -57.5 -11.5t-48.5 -30.5t-33 -44.5t-12 -52.5q0 -62 45 -105l-95 -82
q-70 76 -70 193q0 52 22.5 98.5t60 81t85 54.5t98.5 20q63 0 116 -27.5t92 -78.5q38 57 85 81.5t107 24.5q69 0 123.5 -34.5t92.5 -96.5t58 -148t20 -189z" />
    <glyph glyph-name="ml_chandrakkala" unicode="&#xd4d;" horiz-adv-x="143" 
d="M105 1253q0 -54 -24 -100.5t-64 -80.5t-92 -53.5t-107 -19.5q-61 0 -114.5 19t-94 52.5t-64 79.5t-23.5 101q0 85 57 148l94 -73q-31 -42 -31 -72t14 -54.5t37 -42.5t54 -28t66 -10q33 0 64 10t54.5 27.5t38 41.5t14.5 51q0 40 -31 75l94 77q58 -79 58 -148z" />
    <glyph glyph-name="ml_aumark" unicode="&#xd57;" horiz-adv-x="1130" 
d="M1045 470q0 -101 -25.5 -189.5t-74.5 -154t-119 -103.5t-158 -38q-57 0 -109 18.5t-95.5 53.5t-76.5 84.5t-51 112.5l107 46q31 -89 90 -141.5t135 -52.5q62 0 110.5 26t82.5 72.5t51.5 110t17.5 139.5q0 27 -3.5 64t-11.5 77t-21 79t-31.5 70.5t-43 51t-55.5 21.5
q-34 0 -60 -10.5t-44 -35t-28.5 -65.5t-13.5 -102v-84h-121v84q0 111 -35.5 162t-105.5 51q-30 0 -57.5 -11.5t-48.5 -30.5t-33 -44.5t-12 -52.5q0 -62 45 -105l-95 -82q-70 76 -70 193q0 52 22.5 98.5t60 81t85 54.5t98.5 20q63 0 116 -27.5t92 -78.5q38 57 85 81.5
t107 24.5q69 0 123.5 -34.5t92.5 -96.5t58 -148t20 -189z" />
    <glyph glyph-name="ml_rri" unicode="&#xd60;" horiz-adv-x="1544" 
d="M1459 536q0 -89 -27.5 -161.5t-75.5 -130.5t-113.5 -101t-140.5 -74q59 -23 107.5 -54t82.5 -67.5t52.5 -76.5t18.5 -80q0 -74 -30 -126t-79 -88t-111 -57.5t-127.5 -32.5t-128 -14.5t-111.5 -3.5t-112 4t-129 15.5t-129.5 33.5t-113 57.5t-80 87.5t-30.5 123
q0 40 18.5 80t52.5 76.5t82 67.5t107 52q-70 28 -134.5 70t-114 99t-79 130t-29.5 164q0 77 28 150.5t75.5 131t111.5 92.5t136 35q50 0 93 -19t74.5 -52t49 -77.5t17.5 -94.5q0 -48 -20 -91t-53 -76t-76.5 -52t-89.5 -19q-35 0 -68.5 10.5t-62 29t-51 44.5t-37.5 56
q-2 -15 -3 -30.5t-1 -29.5q0 -71 25 -129.5t68 -104.5t100.5 -80.5t121.5 -57t131.5 -33.5t131.5 -11q61 0 126 12.5t126.5 36.5t116 59.5t95 82.5t64.5 104.5t24 125.5v24q0 11 -2 24q-16 -30 -39 -54.5t-50.5 -42t-58.5 -27t-64 -9.5q-51 0 -95 19.5t-77 53t-52 77.5
t-19 94q0 48 19 91t51 75.5t74.5 51.5t89.5 19q69 0 131.5 -34t109.5 -90.5t75 -129t28 -148.5zM1242 -210q0 41 -22.5 72.5t-60 55t-86 39.5t-101 25.5t-104.5 13.5t-96 4q-43 0 -94.5 -4t-104 -13.5t-101 -25.5t-86.5 -39.5t-61 -55t-23 -72.5q0 -46 26 -78.5t67.5 -55
t93.5 -35.5t104 -20.5t99.5 -9.5t79.5 -2q35 0 83.5 2t100.5 9.5t103.5 20.5t92 35.5t65.5 55t25 78.5zM1085 -200q0 -25 -11 -48t-28.5 -40.5t-40 -28t-45.5 -10.5q-25 0 -48 10.5t-40.5 28t-28 40.5t-10.5 48t10.5 47.5t28 40t40.5 27.5t48 10q24 0 46.5 -10.5t40 -27.5
t28 -39.5t10.5 -47.5zM714 -200q0 -25 -11 -48t-28.5 -40.5t-40 -28t-45.5 -10.5q-25 0 -48 10.5t-40.5 28t-28 40.5t-10.5 48t10.5 47.5t28 40t40.5 27.5t48 10q24 0 46.5 -10.5t40 -27.5t28 -39.5t10.5 -47.5zM295 743q0 -33 10.5 -63t28.5 -52.5t42.5 -36t53.5 -13.5
q24 0 45.5 9.5t38 26t26 38t9.5 45.5t-9.5 45.5t-26 38t-38 26.5t-45.5 10q-32 0 -67.5 -19.5t-67.5 -54.5zM1255 746q-31 32 -66.5 51.5t-67.5 19.5q-24 0 -45.5 -9.5t-38 -26t-26 -38.5t-9.5 -46t9.5 -45.5t25.5 -38t38 -26t46 -9.5q28 0 52.5 13.5t42.5 36t28.5 53
t10.5 65.5zM641 -200q0 23 -15.5 37.5t-36.5 14.5q-23 0 -38.5 -14.5t-15.5 -37.5t15.5 -38t38.5 -15q21 0 36.5 15t15.5 38zM1012 -200q0 23 -15.5 37.5t-36.5 14.5q-23 0 -38.5 -14.5t-15.5 -37.5t15.5 -38t38.5 -15q21 0 36.5 15t15.5 38z" />
    <glyph glyph-name="ml_lli" unicode="&#xd61;" horiz-adv-x="1825" 
d="M1740 180q0 -117 -36 -210t-100.5 -158.5t-154 -100t-197.5 -34.5q-177 0 -312 113l73 91q110 -83 245 -83q79 0 146.5 28t116 79t76 123t27.5 161q0 64 -19.5 124t-57.5 115q0 -96 -22 -177t-62.5 -140t-97.5 -92.5t-127 -33.5q-63 0 -116.5 21.5t-92.5 62.5t-61 102
t-22 141q0 78 30 146.5t84 119t127.5 79.5t160.5 29q-76 131 -203 131q-51 0 -102 -28t-91.5 -76t-66 -113t-25.5 -138v-462h-120v463q0 77 -19.5 142t-54 112t-83.5 73.5t-107 26.5t-107.5 -32.5t-86 -86.5t-57 -122.5t-20.5 -140.5q0 -11 -1 -26q1 -15 3 -25q27 32 75 57
t105 25q48 0 91.5 -19t76.5 -52t53 -77t20 -93q0 -47 -19 -90.5t-51.5 -76.5t-75.5 -53t-91 -20q-70 0 -126.5 34.5t-96.5 94t-61.5 139.5t-21.5 171q0 111 29.5 205.5t82 163t124 107t155.5 38.5q53 0 100.5 -15t89 -43t75 -67t58.5 -87q27 46 65 84.5t83 67t94 44.5t97 16
q65 0 123 -22.5t105.5 -63.5t84 -98.5t59.5 -127.5q115 -90 172.5 -200t57.5 -246zM1399 546q-17 5 -36 8t-38 3q-50 0 -97 -19.5t-84 -53t-59 -78t-22 -94.5t12 -88t33 -64.5t50 -40t63 -13.5q46 0 82.5 23t62 62.5t39.5 93.5t14 116q0 40 -4.5 75t-15.5 70zM507 225
q0 24 -9.5 45.5t-26 38t-38 26.5t-45.5 10q-83 0 -136 -99q11 -62 48 -101t88 -39q24 0 45.5 9.5t38 26t26 38t9.5 45.5z" />
    <glyph glyph-name="ml_zero" unicode="&#xd66;" horiz-adv-x="1579" 
d="M1494 923v-121h-889q-83 2 -156 -7t-127 -38t-85.5 -82.5t-31.5 -140.5q0 -38 10.5 -73t29 -62t45.5 -43.5t60 -16.5q20 0 50 4.5t56 24.5q-33 0 -62 12.5t-51 34.5t-34.5 51.5t-12.5 63.5t12.5 65t35 54t53.5 36.5t67 13.5q40 0 71.5 -16t53 -41.5t32.5 -57.5t11 -65
q0 -72 -23 -127.5t-62 -94t-90.5 -58.5t-108.5 -20q-60 0 -108.5 24t-83 66t-53 99.5t-18.5 125.5q0 191 113 290t330 99h966zM513 477q2 6 3 17.5t1 19.5q0 27 -16 48t-37 21q-19 0 -35.5 -16.5t-16.5 -36.5q0 -22 16 -40.5t39 -18.5q7 0 21 1.5t25 4.5z" />
    <glyph glyph-name="ml_one" unicode="&#xd67;" horiz-adv-x="1401" 
d="M1316 609v-609h-1080q-16 0 -28.5 -11.5t-12.5 -25.5q0 -15 12.5 -27t28.5 -12h415v-120h-411q-32 0 -60.5 13t-49.5 34.5t-33 50.5t-12 61q0 31 11.5 60t31 50.5t46.5 34.5t58 13h487v481q0 67 22.5 128t61.5 107t91.5 73.5t112.5 27.5q65 0 121.5 -25.5t98 -70
t65.5 -104.5t24 -129zM1194 616q0 40 -14.5 76.5t-39 64.5t-57 44t-69.5 16t-69 -17.5t-55.5 -47.5t-37 -70.5t-13.5 -86.5v-474h355v495z" />
    <glyph glyph-name="ml_two" unicode="&#xd68;" horiz-adv-x="1885" 
d="M1109 443q0 -89 -32 -171.5t-80 -150.5h803v-121h-970v115q37 40 66 78.5t49.5 78.5t31 82t10.5 89q0 79 -31 147.5t-84.5 118.5t-124.5 79t-151 29q-80 -1 -151 -29.5t-124 -79t-83.5 -118.5t-30.5 -147q0 -53 12 -98.5t36 -88t60 -85.5t84 -92l-77 -95q-42 34 -84 83
t-76 109t-55.5 128t-21.5 139q0 107 39 197.5t107.5 156.5t162 103t202.5 38q108 0 202 -37.5t163 -103.5t108.5 -156.5t39.5 -197.5z" />
    <glyph glyph-name="ml_three" unicode="&#xd69;" horiz-adv-x="1686" 
d="M1601 121v-121h-504v487q0 59 -10 118t-34 106t-63.5 76.5t-97.5 29.5q-39 0 -72 -14.5t-56.5 -46t-37 -81t-13.5 -120.5v-555h-121v555q0 72 -8.5 122t-26 81t-45.5 45t-67 14q-48 0 -91 -28t-75.5 -74.5t-52 -106t-19.5 -121.5q0 -128 36.5 -225.5t106.5 -168.5
l-66 -102q-50 51 -87.5 104.5t-62.5 113.5t-37 130t-12 155q0 91 27.5 171.5t76 141t114.5 96t142 35.5q60 0 119.5 -27.5t101.5 -78.5q43 51 102.5 78.5t123.5 27.5q87 0 149 -35.5t101 -96t57.5 -140.5t18.5 -169v-376h383z" />
    <glyph glyph-name="ml_four" unicode="&#xd6a;" horiz-adv-x="1207" 
d="M1122 391q0 -76 -21 -149t-62 -130t-101 -92t-139 -35q-60 0 -106 16.5t-77.5 46t-48.5 70.5t-18 90q-1 36 4.5 70.5t16 71t26 76.5t36.5 87l126 266q-27 17 -61 27.5t-76 10.5q-86 0 -161.5 -32t-132 -89t-89 -135t-32.5 -170q0 -188 102 -293l-62 -107
q-161 158 -161 414q0 115 42 212.5t114 169t168 111.5t205 40q50 0 96.5 -12.5t93.5 -33.5q11 47 11 76q0 34 -13 58.5t-35 40.5t-51.5 23.5t-62.5 6.5h-106v122h105q61 0 113 -18t90 -49.5t59.5 -75t21.5 -94.5q0 -32 -7 -70.5t-23 -85.5q50 -36 90 -85t68 -106t43 -119.5
t15 -124.5zM1001 384q0 227 -141 323l-58.5 -118.5l-58.5 -118.5q-36 -81 -54 -141t-18 -111q0 -29 10 -50t27.5 -34.5t41 -20.5t49.5 -7q49 0 86.5 24.5t63 64t39 89t13.5 100.5z" />
    <glyph glyph-name="ml_five" unicode="&#xd6b;" horiz-adv-x="1121" 
d="M1036 413q0 -94 -21.5 -177t-64.5 -159l-89 64q55 126 55 256q0 91 -23.5 168t-70 133t-117 87.5t-163.5 31.5q-79 0 -141 -29.5t-105 -78.5t-66 -113t-23 -133q0 -86 22.5 -152.5t64.5 -112t102 -69t134 -23.5q33 0 63.5 8.5t53.5 24.5t36.5 38.5t13.5 49.5
q0 51 -27.5 79t-98.5 28h-26v121h21q100 0 100 82q0 29 -27 46.5t-62 17.5q-45 0 -72 -27.5t-27 -72.5v-276h-121v286q0 46 16 85t44.5 67t67.5 43.5t86 15.5q44 0 82.5 -14.5t67.5 -39t45.5 -58.5t16.5 -73q0 -40 -15 -73t-40 -53q21 -11 38.5 -28.5t29.5 -39.5t18.5 -47.5
t6.5 -50.5q0 -62 -25 -110.5t-65.5 -81.5t-93 -50.5t-107.5 -17.5q-98 0 -179.5 31.5t-140.5 92t-92 147.5t-33 198q0 94 32.5 181.5t92.5 155t144 107.5t188 40q109 0 200 -39t156.5 -109t101.5 -166.5t36 -210.5z" />
    <glyph glyph-name="ml_six" unicode="&#xd6c;" horiz-adv-x="1805" 
d="M1720 486q0 -208 -70.5 -373t-201.5 -280t-317 -176t-418 -61q-326 0 -456 108l64 94q158 -85 377 -85q210 0 377.5 52t283.5 151.5t178 243.5t62 327q0 67 -14.5 127t-41 105t-64.5 71.5t-84 26.5q-54 0 -88.5 -30.5t-54 -77t-27 -103.5t-7.5 -109l-1 -497h-120v487
q0 59 -10 118t-34 106t-63.5 76.5t-97.5 29.5q-39 0 -72 -14.5t-56.5 -46t-37 -81t-13.5 -120.5v-555h-121v555q0 72 -8.5 122t-26 81t-45.5 45t-67 14q-48 0 -91 -28t-75.5 -74.5t-52 -106t-19.5 -121.5q0 -128 36.5 -225.5t106.5 -168.5l-66 -102q-50 51 -87.5 104.5
t-62.5 113.5t-37 130t-12 155q0 91 27.5 171.5t76 141t114.5 96t142 35.5q60 0 119.5 -27.5t101.5 -78.5q43 51 102.5 78.5t123.5 27.5q95 0 159 -41.5t103 -110.5q16 31 41.5 58.5t57.5 48.5t68 33t74 12q78 0 139 -31.5t102 -90.5t62.5 -142.5t21.5 -187.5z" />
    <glyph glyph-name="ml_seven" unicode="&#xd6d;" horiz-adv-x="1239" 
d="M1154 463q0 -103 -35 -190.5t-101 -151.5t-161.5 -100t-216.5 -36q-130 0 -233 41.5t-174.5 112.5t-109.5 165.5t-38 200.5q0 109 44 204l106 -61q-28 -65 -28 -121q0 -98 31.5 -176t88 -132.5t134.5 -83.5t172 -29t168 24.5t125.5 70.5t78.5 110.5t27 144.5q0 42 -10 84
t-27 80.5t-40.5 69.5t-51.5 50q7 -29 7 -64q0 -57 -21 -104t-56.5 -80t-82 -51t-96.5 -18q-53 0 -100 18.5t-81.5 52t-54.5 80t-20 102.5q0 55 21.5 103t58 83.5t85 55.5t103.5 20q66 0 127.5 -17t116 -48t99.5 -74t77 -96t50 -113.5t18 -126.5zM772 797q-22 9 -51.5 14.5
t-66.5 5.5q-27 0 -51 -11t-42.5 -30t-29.5 -44t-11 -53q0 -29 11 -54t29.5 -43t42.5 -28.5t51 -10.5q28 0 53 12.5t44 33.5t30 49t11 59q0 45 -20 100z" />
    <glyph glyph-name="ml_eight" unicode="&#xd6e;" horiz-adv-x="1762" 
d="M1109 443q0 -89 -32 -171.5t-80 -150.5h559l1 802h120v-909q0 -62 -28 -111t-74 -86.5t-106 -64.5t-123 -44t-125.5 -25t-113.5 -8q-308 0 -489 154l61 103q139 -136 438 -136q65 0 136 13.5t133.5 39.5t107.5 64t58 87h-722v115q37 40 66 78.5t49.5 78.5t31 82t10.5 89
q0 79 -31 147.5t-84.5 118.5t-124.5 79t-151 29q-80 -1 -151 -29.5t-124 -79t-83.5 -118.5t-30.5 -147q0 -53 12 -98.5t36 -88t60 -85.5t84 -92l-77 -95q-42 34 -84 83t-76 109t-55.5 128t-21.5 139q0 107 39 197.5t107.5 156.5t162 103t202.5 38q108 0 202 -37.5
t163 -103.5t108.5 -156.5t39.5 -197.5z" />
    <glyph glyph-name="ml_nine" unicode="&#xd6f;" horiz-adv-x="1517" 
d="M1432 478q0 -98 -7.5 -187t-32.5 -157t-73.5 -108.5t-129.5 -40.5q-125 0 -187 71.5t-62 205.5v523q-37 -21 -63 -55t-42.5 -78.5t-24.5 -97.5t-8 -113l-2 -441h-121v432q0 385 -247 385q-51 0 -92.5 -28t-71.5 -75t-46.5 -109.5t-16.5 -131.5q0 -54 13 -108t37 -102.5
t57 -88t74 -62.5l-81 -113q-58 39 -99.5 93t-68.5 117t-39.5 132t-12.5 138q0 98 25 182t70.5 145.5t109.5 96.5t142 35q106 0 182.5 -42t124.5 -124q70 120 201 153v315h121v-303q91 -2 154.5 -26t104.5 -62t63.5 -86.5t33.5 -99t13 -99t2 -86.5zM1192 106q29 0 49 16
t33.5 43.5t21 64t11 77.5t4.5 84.5t1 84.5q0 75 -10.5 137.5t-37.5 108t-74 70.5t-120 25l-9 -1v-550q0 -160 131 -160z" />
    <glyph glyph-name="ml_k_ssa" horiz-adv-x="2359" 
d="M2274 923v-923q-197 0 -348.5 0.5t-265.5 0t-195 -0.5h-276q-19 0 -28.5 0.5t-16.5 1.5v121q6 -2 11 -2h12q58 0 94.5 35t36.5 93q0 54 -20 90.5t-56 59.5t-86.5 34t-110.5 15q-1 -105 -17 -190t-50.5 -146t-88.5 -94t-130 -33q-122 0 -191 84q-48 -38 -101 -61t-115 -23
q-56 0 -101.5 20.5t-77.5 56.5t-50 84t-18 103q0 86 26.5 143.5t75.5 93.5t118 54.5t153 25.5q7 82 27 150t54 117.5t83.5 77t116.5 27.5t116.5 -27.5t83.5 -76.5t53.5 -117.5t27.5 -149.5q88 -6 161.5 -24t126.5 -54t82 -94t29 -146q0 -35 -8.5 -67.5t-24.5 -60.5h371v297
q-11 -1 -22 -1h-22q-87 0 -157 18.5t-118.5 54.5t-74.5 89.5t-26 123.5q0 52 21 95t56 74t81 48.5t96 17.5q140 0 212 -95t75 -283q57 16 107 43t87.5 61.5t59.5 73.5t22 79v106h120zM2154 560q-108 -89 -276 -125v-314h276v439zM739 106q51 0 83 27t50 74t25 110t7 135
h-330q0 -72 7 -135t25.5 -110t50.5 -74t82 -27zM492 173q-20 55 -29 124.5t-9 149.5q-56 -5 -101.5 -16.5t-78 -34t-50.5 -58.5t-18 -89q0 -61 33 -102t93 -41q12 0 32 4.5t42 12.5t45 20.5t41 29.5zM1757 536v27q0 126 -41 190t-125 64q-33 0 -58.5 -10t-42 -26t-25 -36.5
t-8.5 -41.5q0 -79 68.5 -123.5t192.5 -44.5zM739 817q-40 0 -68.5 -19.5t-47.5 -53t-29.5 -78t-15.5 -94.5q40 1 81 1h163q39 0 77 -1q-5 50 -15.5 94.5t-29.5 78t-47 53t-68 19.5z" />
    <glyph glyph-name="ml_j_nya" horiz-adv-x="3047" 
d="M2984 384q0 -211 -151 -390l-91 73q27 29 49.5 67.5t38.5 81.5t25 88t9 87q0 84 -24.5 161t-67.5 136t-101.5 94t-127.5 35q-9 0 -19 -1t-22 -3q37 -41 66.5 -91.5t50 -106t31.5 -115t11 -119.5q0 -84 -19.5 -156t-55 -125.5t-85 -84t-109.5 -30.5q-66 0 -120.5 31.5
t-94 85.5t-61 126t-21.5 153q0 129 42.5 240.5t127.5 195.5q-6 1 -11 0q-100 0 -163 -36.5t-98.5 -99t-47.5 -145t-11 -174.5v-362h-121v453q0 76 -19 142t-53.5 115.5t-83.5 78t-108 28.5t-108.5 -33t-85.5 -86.5t-56.5 -122t-20.5 -140.5l23 11t41.5 15.5t55 13.5t62.5 6
q48 0 91.5 -21.5t76.5 -57.5t53 -82t20 -95q0 -47 -19 -90.5t-51.5 -76.5t-75.5 -53t-91 -20q-51 0 -94.5 19t-79.5 52.5t-63 80.5t-44 104q-69 -39 -168 -84t-213 -83.5t-234.5 -63.5t-232.5 -25q-126 0 -188 58t-62 158q0 51 21 87t56.5 60.5t82 39t97 24t102 15.5
t96.5 13q135 24 219.5 42t132 42t64.5 58t17 90q0 31 -11.5 57.5t-32 46t-48.5 30.5t-62 11q-79 0 -113 -55t-34 -179v-57h-121v131q0 32 -14 61t-37.5 51t-54.5 35t-65 13q-48 0 -83 -20q33 0 63 -15t53 -40t36.5 -57.5t13.5 -66.5q0 -36 -15.5 -68.5t-41 -58t-58 -40.5
t-66.5 -15q-42 0 -78.5 18t-62.5 49t-41 73t-15 90q0 54 23.5 103t63.5 86.5t91.5 60t107.5 22.5q75 0 134.5 -27t103.5 -78q41 53 92 79t117 26q63 0 114 -18t87 -52.5t55 -84t19 -111.5q0 -71 -21 -121t-58 -85.5t-87 -58t-108.5 -37t-122.5 -24.5l-129 -20
q-29 -5 -66.5 -9t-77.5 -10t-79 -14t-69.5 -20.5t-49.5 -30t-19 -41.5q0 -43 29.5 -69t103.5 -26q66 0 143 14t157.5 36.5t159.5 51t148 58t124.5 57.5t88.5 50q-1 13 -1.5 25.5t-0.5 25.5q0 98 30 190.5t82.5 164.5t124 115.5t154.5 43.5q53 0 101.5 -15.5t90.5 -44.5
t76 -70t59 -92q21 51 55.5 92t79 70t97.5 44.5t112 15.5q40 0 80 -10t78 -29q84 39 172 39q71 0 130.5 -23.5t108 -64t85 -95t61 -116t37 -127t12.5 -128.5zM2541 374q0 115 -41 215.5t-124 173.5q-73 -52 -113.5 -150t-40.5 -225q0 -60 11.5 -111.5t32.5 -89.5t51 -59.5
t68 -21.5q36 0 64.5 20.5t49 56.5t31.5 85t11 106zM1581 225q0 24 -9.5 48t-26 43.5t-38.5 31.5t-46 12q-23 0 -46 -5.5t-43.5 -13.5t-37.5 -17.5t-28 -17.5q5 -35 17.5 -70.5t32 -64t46 -47t59.5 -18.5q24 0 45.5 9.5t38 26t26.5 38t10 45.5zM342 620q0 26 -20 44t-43 18
q-34 0 -59 -16q-2 -15 -4 -37q0 -31 19.5 -51t43.5 -21q19 0 31 5.5t19 14.5t10 20.5t3 22.5z" />
    <glyph glyph-name="ml_blwf_la" horiz-adv-x="0" 
d="M-86 -269q0 -81 -20 -145.5t-58 -110.5t-92 -70.5t-123 -24.5q-70 0 -123 20.5t-88.5 55t-53.5 80.5t-18 97v101q0 15 -9 43.5t-32.5 56.5t-65 49t-107.5 21q-59 0 -104 -15.5t-75.5 -41t-46 -58.5t-15.5 -68q0 -13 1.5 -21t3.5 -21q16 12 31.5 25t34.5 23.5t43 17
t57 6.5q45 0 80.5 -13.5t59.5 -37.5t37 -56t13 -69q0 -42 -11.5 -78t-34.5 -62t-58 -40.5t-82 -14.5q-65 0 -117.5 29t-90 75.5t-57.5 105.5t-20 119q0 65 24 121t69 97t109.5 64.5t145.5 23.5q83 0 145 -25.5t102.5 -66t60.5 -89.5t20 -97v-91q0 -32 10.5 -60.5t32.5 -49.5
t54.5 -33.5t77.5 -12.5q85 0 132.5 63.5t47.5 181.5q0 21 -6 51.5t-18.5 63.5t-32 64.5t-47.5 53.5l101 47q35 -27 57 -69.5t34.5 -85t17 -78.5t4.5 -51zM-1084 -422q7 -19 21 -35t33 -28t41.5 -18.5t46.5 -6.5q15 0 29 7.5t24.5 19.5t16.5 27t6 31q0 32 -21.5 53.5
t-54.5 21.5q-19 0 -39.5 -6.5t-39.5 -17t-35.5 -23.5t-27.5 -25z" />
    <glyph glyph-name="ml_blwf_lla" horiz-adv-x="0" 
d="M-86 -269q0 -81 -20 -145.5t-58 -110.5t-92 -70.5t-123 -24.5q-70 0 -123 20.5t-88.5 55t-53.5 80.5t-18 97v101q0 15 -9 43.5t-32.5 56.5t-65 49t-107.5 21q-59 0 -104 -15.5t-75.5 -41t-46 -58.5t-15.5 -68q0 -13 1.5 -21t3.5 -21q16 12 31.5 25t34.5 23.5t43 17
t57 6.5q45 0 80.5 -13.5t59.5 -37.5t37 -56t13 -69q0 -42 -11.5 -78t-34.5 -62t-58 -40.5t-82 -14.5q-65 0 -117.5 29t-90 75.5t-57.5 105.5t-20 119q0 65 24 121t69 97t109.5 64.5t145.5 23.5q83 0 145 -25.5t102.5 -66t60.5 -89.5t20 -97v-91q0 -32 10.5 -60.5t32.5 -49.5
t54.5 -33.5t77.5 -12.5q85 0 132.5 63.5t47.5 181.5q0 21 -6 51.5t-18.5 63.5t-32 64.5t-47.5 53.5l101 47q35 -27 57 -69.5t34.5 -85t17 -78.5t4.5 -51zM-1084 -422q7 -19 21 -35t33 -28t41.5 -18.5t46.5 -6.5q15 0 29 7.5t24.5 19.5t16.5 27t6 31q0 32 -21.5 53.5
t-54.5 21.5q-19 0 -39.5 -6.5t-39.5 -17t-35.5 -23.5t-27.5 -25z" />
    <glyph glyph-name="ml_half_ka" horiz-adv-x="1611" 
d="M1526 224q0 -51 -16 -94.5t-44.5 -75.5t-68 -50.5t-87.5 -18.5q-50 0 -91 19t-70 51t-45 73.5t-16 86.5q0 63 14 115t35 102q-26 6 -54 10t-58 6q-1 -105 -17 -190t-50.5 -146t-88.5 -94t-130 -33q-122 0 -191 84q-48 -38 -101 -61t-115 -23q-56 0 -101.5 20.5
t-77.5 56.5t-50 84t-18 103q0 86 26.5 143.5t75.5 93.5t118 54.5t153 25.5q7 82 27 150t54 117.5t83.5 77t116.5 27.5t116.5 -27.5t83.5 -76.5t53.5 -117.5t27.5 -149.5q45 -4 86.5 -10.5t78.5 -17.5q40 80 71.5 134.5t53.5 99t33.5 87t11.5 99.5q0 39 -15 66t-41.5 43.5
t-62.5 23.5t-79 7h-69v120l79 1q72 1 130 -15t98 -47t61.5 -75.5t21.5 -100.5q0 -69 -15 -123t-40 -107.5t-57 -113t-66 -138.5q47 -21 88.5 -50t72 -64t48 -76t17.5 -86zM739 106q51 0 83 27t50 74t25 110t7 135h-330q0 -72 7 -135t25.5 -110t50.5 -74t82 -27zM492 173
q-20 55 -29 124.5t-9 149.5q-56 -5 -101.5 -16.5t-78 -34t-50.5 -58.5t-18 -89q0 -61 33 -102t93 -41q12 0 32 4.5t42 12.5t45 20.5t41 29.5zM739 817q-40 0 -68.5 -19.5t-47.5 -53t-29.5 -78t-15.5 -94.5q40 1 81 1h163q39 0 77 -1q-5 50 -15.5 94.5t-29.5 78t-47 53
t-68 19.5zM1403 211q0 29 -13 56t-34.5 49.5t-49.5 40.5t-58 30q-8 -14 -15 -33t-12.5 -40.5t-9 -44t-3.5 -41.5q0 -24 7.5 -46t21 -39t32.5 -27t41 -10q46 0 69.5 31.5t23.5 73.5z" />
    <glyph glyph-name="ml_half_kha" horiz-adv-x="1847" 
d="M1578 923v-923h-778v111q20 32 38 76t31 92t20.5 95.5t7.5 86.5q0 72 -27 136.5t-73.5 113.5t-110 77.5t-136.5 28.5q-76 0 -139.5 -30t-109 -82.5t-71 -122.5t-25.5 -150q0 -48 7 -79q15 26 36.5 47t47.5 35.5t55.5 22.5t60.5 8q52 0 96 -19t76.5 -51.5t51 -76.5
t18.5 -94t-18.5 -94t-51.5 -76.5t-77 -51t-95 -18.5q-70 0 -132.5 43.5t-110.5 118.5q-37 66 -60.5 142t-23.5 148q0 99 35 190t97.5 160t147.5 110t185 41q95 0 179.5 -38.5t148 -103t100.5 -149.5t37 -179q0 -78 -19.5 -162t-66.5 -185h529v802h120zM533 225q0 24 -9.5 46
t-26 38.5t-38 26t-45.5 9.5q-46 0 -82.5 -30t-49.5 -85q12 -59 48 -91.5t84 -32.5q23 0 44.5 9.5t38 25.5t26.5 37.5t10 46.5zM1810 1253q0 -54 -24 -100.5t-64 -80.5t-92 -53.5t-107 -19.5q-61 0 -114.5 19t-94 52.5t-64 79.5t-23.5 101q0 85 57 148l94 -73
q-31 -42 -31 -72t14 -54.5t37 -42.5t54 -28t66 -10q33 0 64 10t54.5 27.5t38 41.5t14.5 51q0 40 -31 75l94 77q58 -79 58 -148z" />
    <glyph glyph-name="ml_half_ga" horiz-adv-x="1477" 
d="M1249 467q0 -91 -26 -175.5t-71.5 -149t-107 -103.5t-133.5 -39v121q48 0 88 27.5t68.5 75t44.5 110t16 133.5q0 57 -11.5 118.5t-35.5 113t-61 85t-88 33.5q-67 0 -105 -38t-59 -97t-31 -130.5l-20 -137.5q-9 -54 -19 -106.5t-26 -100t-38.5 -88.5t-54.5 -70.5
t-76 -46.5t-103 -17q-71 0 -129 38t-99 104t-64 153.5t-23 186.5q0 54 9.5 110t28 107.5t45.5 96.5t63.5 77.5t81 50t97.5 14.5v-121q-43 -1 -80.5 -30.5t-65 -76t-43 -105t-15.5 -116.5q0 -69 14 -135t39.5 -117.5t61 -83.5t79.5 -32q62 0 99 30.5t59 80t32.5 112
t19.5 126.5q7 55 15.5 112t22 110.5t34.5 101t53.5 83t79 56t110.5 20.5q81 0 141.5 -40t101 -106t61 -150.5t20.5 -174.5zM1439 1253q0 -54 -24 -100.5t-64 -80.5t-92 -53.5t-107 -19.5q-61 0 -114.5 19t-94 52.5t-64 79.5t-23.5 101q0 85 57 148l94 -73q-31 -42 -31 -72
t14 -54.5t37 -42.5t54 -28t66 -10q33 0 64 10t54.5 27.5t38 41.5t14.5 51q0 40 -31 75l94 77q58 -79 58 -148z" />
    <glyph glyph-name="ml_half_gha" horiz-adv-x="2216" 
d="M1948 0h-1116v288h-269v112q36 54 36 125q0 33 -16.5 61.5t-43 49.5t-60.5 33t-69 12q-41 0 -78 -12t-65 -33t-44.5 -50t-16.5 -63q0 -89 47 -153l-86 -89q-82 107 -82 237q0 62 25 114.5t68.5 90t103 58.5t128.5 21q62 0 118.5 -22.5t99 -61t68 -90t25.5 -110.5
q0 -63 -26 -109h137v165q0 74 31 140.5t83 116t119 78.5t138 29q74 0 140.5 -29.5t116.5 -79t79.5 -116t29.5 -139.5v-286h-617v-167h875v802h121v-923zM1449 405v162q0 50 -19.5 95t-53 79.5t-78 55t-95.5 20.5q-50 0 -95.5 -20t-80 -54t-55 -79.5t-20.5 -96.5v-162h497z
M2178 1253q0 -54 -24 -100.5t-64 -80.5t-92 -53.5t-107 -19.5q-61 0 -114.5 19t-94 52.5t-64 79.5t-23.5 101q0 85 57 148l94 -73q-31 -42 -31 -72t14 -54.5t37 -42.5t54 -28t66 -10q33 0 64 10t54.5 27.5t38 41.5t14.5 51q0 40 -31 75l94 77q58 -79 58 -148z" />
    <glyph glyph-name="ml_half_nga" horiz-adv-x="1574" 
d="M1347 645q0 -28 -7.5 -56.5t-21 -54t-32.5 -46.5t-41 -36q49 -36 75.5 -91.5t26.5 -127.5q0 -47 -21 -89.5t-55.5 -74.5t-79 -50.5t-91.5 -18.5h-103v121q64 0 108 6.5t71 22.5t39 41t12 63q0 65 -55 97t-175 32v120q49 0 90.5 10.5t70.5 30t45.5 47.5t16.5 62t-14.5 64
t-39 52t-56 35t-65.5 13q-36 0 -69.5 -12.5t-59 -34t-40.5 -50.5t-15 -61v-659h-120v453q0 76 -19 142t-53.5 115.5t-83.5 78t-108 28.5t-108.5 -33t-85.5 -86.5t-56.5 -122t-20.5 -140.5q0 -11 -1 -25q1 -13 3 -23q62 79 179 79q48 0 92 -19.5t77.5 -53t53 -77t19.5 -91.5
q0 -47 -19 -90.5t-51.5 -76.5t-76 -53t-91.5 -20q-69 0 -125 34.5t-96.5 94t-62.5 139.5t-22 171q0 57 10 117.5t31 118t53 108t75.5 88.5t99 60t123.5 22q184 0 292 -162q19 35 47.5 65t63 51.5t73.5 33.5t78 12q69 0 127 -22.5t100 -62t65.5 -93t23.5 -115.5zM508 225
q0 24 -9.5 45.5t-26 38t-38.5 26.5t-46 10q-95 0 -135 -100q6 -30 18.5 -55.5t30.5 -44t40 -29t46 -10.5t45.5 9.5t38 26t26.5 38t10 45.5zM1537 1253q0 -54 -24 -100.5t-64 -80.5t-92 -53.5t-107 -19.5q-61 0 -114.5 19t-94 52.5t-64 79.5t-23.5 101q0 85 57 148l94 -73
q-31 -42 -31 -72t14 -54.5t37 -42.5t54 -28t66 -10q33 0 64 10t54.5 27.5t38 41.5t14.5 51q0 40 -31 75l94 77q58 -79 58 -148z" />
    <glyph glyph-name="ml_half_ca" horiz-adv-x="1822" 
d="M1556 923v-923h-1471v121h537q45 0 89.5 25.5t79.5 66t56.5 91.5t21.5 101q0 42 -11 77t-30.5 60.5t-47.5 40t-62 14.5q-32 0 -60.5 -12t-50.5 -33.5t-34.5 -50.5t-12.5 -62q0 -55 54 -92l-65 -91q-110 81 -110 190q0 57 20.5 106.5t57 86.5t86.5 58t108 21
q62 0 113.5 -23.5t88.5 -65t57.5 -99t20.5 -125.5q0 -163 -133 -284h577v802h121zM1785 1253q0 -54 -24 -100.5t-64 -80.5t-92 -53.5t-107 -19.5q-61 0 -114.5 19t-94 52.5t-64 79.5t-23.5 101q0 85 57 148l94 -73q-31 -42 -31 -72t14 -54.5t37 -42.5t54 -28t66 -10
q33 0 64 10t54.5 27.5t38 41.5t14.5 51q0 40 -31 75l94 77q58 -79 58 -148z" />
    <glyph glyph-name="ml_half_cha" horiz-adv-x="2407" 
d="M2172 389q0 -81 -22 -154t-61 -128.5t-92 -88.5t-116 -33q-58 0 -106.5 19t-84 52.5t-55 80.5t-19.5 103q0 51 20.5 97t55.5 81t80.5 55.5t95.5 20.5q112 0 182 -74q-8 81 -41.5 152.5t-87.5 125t-124 84.5t-151 31q-83 0 -157.5 -31.5t-131.5 -86t-90.5 -127
t-33.5 -154.5q0 -53 11.5 -103.5t32.5 -90.5t49.5 -67t62.5 -34v-119h-1304v121h354q44 0 88.5 27t80.5 68.5t58.5 92t22.5 97.5q0 40 -11.5 75t-32.5 60.5t-50 40t-64 14.5q-33 0 -61.5 -11.5t-50 -32t-34 -49.5t-12.5 -63q0 -52 58 -91l-65 -97q-115 81 -115 191
q0 57 22 107t60 87.5t88.5 59t108.5 21.5q62 0 113.5 -24.5t88 -67.5t57 -100.5t20.5 -123.5q0 -84 -30.5 -152.5t-99.5 -128.5h522q-90 129 -90 287q0 109 43 204.5t116 167t170.5 113t205.5 41.5q109 0 204.5 -45t167 -120t113 -173.5t41.5 -206.5zM1869 106q29 0 55.5 13
t47.5 35t34 51t15 60q-22 48 -61 78t-82 30q-64 0 -102.5 -37.5t-38.5 -95.5q0 -28 10.5 -52.5t28.5 -42.5t42 -28.5t51 -10.5zM2369 1253q0 -54 -24 -100.5t-64 -80.5t-92 -53.5t-107 -19.5q-61 0 -114.5 19t-94 52.5t-64 79.5t-23.5 101q0 85 57 148l94 -73
q-31 -42 -31 -72t14 -54.5t37 -42.5t54 -28t66 -10q33 0 64 10t54.5 27.5t38 41.5t14.5 51q0 40 -31 75l94 77q58 -79 58 -148z" />
    <glyph glyph-name="ml_half_ja" horiz-adv-x="1323" 
d="M1093 672q0 -69 -24.5 -115.5t-68 -78t-103.5 -51.5t-130 -36l-200 -48q-28 -7 -65.5 -14.5t-77.5 -16.5t-79.5 -20.5t-70 -25t-49.5 -29.5t-19 -36q0 -43 29.5 -69t103.5 -26q35 0 73.5 10.5t78.5 29.5t78.5 44.5t73.5 54.5l62 49.5t64 44t63.5 32t58.5 12.5
q42 0 79 -17t64 -45.5t43 -66.5t16 -79q0 -43 -15 -78t-42 -60t-63 -38.5t-78 -13.5q-35 0 -66.5 13t-56 34t-40.5 49t-21 58q-106 -80 -197.5 -117t-178.5 -37q-126 0 -188 58t-62 158q0 43 17.5 75.5t48.5 56.5t74 41.5t93.5 31.5t107 26l114.5 25l209 47
q67 18 110.5 34.5t69 36t35 43t9.5 54.5t-11.5 57.5t-32 46t-48.5 30.5t-62 11q-79 0 -113 -55t-34 -179v-37h-121v111q0 32 -14 61t-37.5 51t-54.5 35t-65 13q-48 0 -83 -20q33 0 63 -15t53 -40t36.5 -57.5t13.5 -66.5q0 -36 -15.5 -68.5t-41 -58t-58 -40.5t-66.5 -15
q-42 0 -78.5 18t-62.5 49t-41 73t-15 90q0 54 23.5 103t63.5 86.5t91.5 60t107.5 22.5q75 0 134.5 -27t103.5 -78q41 53 92 79t117 26q63 0 114 -18t87 -52.5t55 -84t19 -111.5zM975 181q0 16 -7 30.5t-18.5 26t-26.5 18.5t-31 7q-35 0 -72 -32q-3 -11 -4 -20.5t-1 -17.5
q0 -39 21.5 -63.5t58.5 -24.5q36 0 58 19t22 57zM342 620q0 26 -20 44t-43 18q-34 0 -59 -16q-2 -15 -4 -37q0 -31 19.5 -51t43.5 -21q19 0 31 5.5t19 14.5t10 20.5t3 22.5zM1283 1253q0 -54 -24 -100.5t-64 -80.5t-92 -53.5t-107 -19.5q-61 0 -114.5 19t-94 52.5t-64 79.5
t-23.5 101q0 85 57 148l94 -73q-31 -42 -31 -72t14 -54.5t37 -42.5t54 -28t66 -10q33 0 64 10t54.5 27.5t38 41.5t14.5 51q0 40 -31 75l94 77q58 -79 58 -148z" />
    <glyph glyph-name="ml_half_jha" horiz-adv-x="2427" 
d="M2198 453q0 -95 -22.5 -180t-63.5 -149t-99 -101.5t-130 -37.5q-143 0 -232 107q-32 -49 -85.5 -78t-122.5 -29q-65 0 -109.5 18t-75 49.5t-48 74t-27 90.5t-14 100t-7.5 102q-7 108 -30.5 183.5t-64.5 123.5t-99.5 69.5t-135.5 21.5q-8 0 -18 1l-7 -1q79 -84 119.5 -200
t40.5 -248q0 -76 -22 -145.5t-61.5 -122.5t-93 -84.5t-116.5 -31.5q-61 0 -114.5 32t-93 85t-62 122.5t-22.5 144.5q0 56 10.5 120t31.5 125t53 114t75 88q-5 1 -11 1h-11q-69 0 -128.5 -35t-103 -93t-68.5 -134t-25 -157q0 -201 118 -322l-81 -82q-157 157 -157 404
q0 108 32 205.5t90.5 172t140.5 118.5t182 44q65 0 143 -33q72 33 207 33q103 0 176.5 -38t121.5 -106.5t73 -164t32 -209.5q6 -93 18 -153.5t31 -96t45 -50t59 -14.5q72 0 114 59t42 172v586h120v-586q0 -47 12.5 -89t35 -73.5t54 -50t69.5 -18.5q45 0 81 29.5t61.5 81
t39.5 122.5t14 155q0 51 -10 101.5t-28.5 96.5t-44.5 84.5t-57 65.5l63 99q196 -150 196 -488zM847 369q1 49 -12 106.5t-36.5 112t-56 102.5t-70.5 79q-42 -29 -74 -75.5t-53.5 -101.5t-32 -113t-10.5 -110q0 -51 13 -98.5t35.5 -84t54 -58.5t69.5 -22q33 0 64 24.5
t55.5 62.5t39 85t14.5 91zM2388 1253q0 -54 -24 -100.5t-64 -80.5t-92 -53.5t-107 -19.5q-61 0 -114.5 19t-94 52.5t-64 79.5t-23.5 101q0 85 57 148l94 -73q-31 -42 -31 -72t14 -54.5t37 -42.5t54 -28t66 -10q33 0 64 10t54.5 27.5t38 41.5t14.5 51q0 40 -31 75l94 77
q58 -79 58 -148z" />
    <glyph glyph-name="ml_half_nya" horiz-adv-x="2140" 
d="M1911 384q0 -211 -151 -390l-91 73q27 29 49.5 67.5t38.5 81.5t25 88t9 87q0 84 -24.5 161t-67.5 136t-101.5 94t-127.5 35q-9 0 -19 -1t-22 -3q37 -41 66.5 -91.5t50 -106t31.5 -115t11 -119.5q0 -84 -19.5 -156t-55 -125.5t-85 -84t-109.5 -30.5q-66 0 -120.5 31.5
t-94 85.5t-61 126t-21.5 153q0 129 42.5 240.5t127.5 195.5q-6 1 -11 0q-100 0 -163 -36.5t-98.5 -99t-47.5 -145t-11 -174.5v-362h-121v453q0 76 -19 142t-53.5 115.5t-83.5 78t-108 28.5t-108.5 -33t-85.5 -86.5t-56.5 -122t-20.5 -140.5q0 -11 -1 -24q1 -12 2 -22
q30 36 79 56.5t102 20.5q48 0 91.5 -19t76.5 -52t53 -77t20 -93q0 -47 -19 -90.5t-51.5 -76.5t-75.5 -53t-91 -20q-69 0 -125.5 34.5t-96.5 94t-62 139.5t-22 171q0 98 30 190.5t82.5 164.5t124 115.5t154.5 43.5q53 0 101.5 -15.5t90.5 -44.5t76 -70t59 -92q21 51 55.5 92
t79 70t97.5 44.5t112 15.5q40 0 80 -10t78 -29q84 39 172 39q71 0 130.5 -23.5t108 -64t85 -95t61 -116t37 -127t12.5 -128.5zM1468 374q0 115 -41 215.5t-124 173.5q-36 -26 -66 -64t-51 -86t-32.5 -105t-11.5 -120q0 -60 12.5 -111.5t35 -89.5t53.5 -59.5t69 -21.5
q36 0 64.5 20.5t49 56.5t31.5 85t11 106zM388 345q-47 0 -83 -27t-52 -71q11 -63 47.5 -102t87.5 -39q24 0 45.5 9.5t38 26t26.5 38t10 45.5t-9.5 45.5t-26 38t-38.5 26.5t-46 10zM2101 1253q0 -54 -24 -100.5t-64 -80.5t-92 -53.5t-107 -19.5q-61 0 -114.5 19t-94 52.5
t-64 79.5t-23.5 101q0 85 57 148l94 -73q-31 -42 -31 -72t14 -54.5t37 -42.5t54 -28t66 -10q33 0 64 10t54.5 27.5t38 41.5t14.5 51q0 40 -31 75l94 77q58 -79 58 -148z" />
    <glyph glyph-name="ml_half_tta" horiz-adv-x="990" 
d="M761 258q0 -63 -27 -113.5t-73 -86t-107.5 -54.5t-130.5 -19q-76 0 -138.5 22.5t-106.5 63.5t-68.5 97t-24.5 124h120q0 -44 17 -78.5t46.5 -58.5t67.5 -36.5t80 -12.5q45 0 85.5 11t71.5 31.5t49.5 48.5t18.5 61q0 31 -16.5 57.5t-47 46t-73 32.5t-93.5 17
q-76 6 -136.5 23t-102.5 48t-64.5 77.5t-22.5 110.5q0 55 26 104t72.5 85.5t109.5 57.5t137 21q67 0 127 -22.5t105.5 -62.5t72 -93.5t26.5 -114.5h-119q-2 38 -18 69.5t-43.5 54.5t-65.5 35.5t-85 12.5q-55 0 -97 -11.5t-70.5 -32t-43 -47t-14.5 -56.5q0 -45 20 -71.5
t55 -41.5t81.5 -22.5l99.5 -15.5q69 -11 124.5 -30t94.5 -50t60 -75.5t21 -105.5zM951 1253q0 -54 -24 -100.5t-64 -80.5t-92 -53.5t-107 -19.5q-61 0 -114.5 19t-94 52.5t-64 79.5t-23.5 101q0 85 57 148l94 -73q-31 -42 -31 -72t14 -54.5t37 -42.5t54 -28t66 -10
q33 0 64 10t54.5 27.5t38 41.5t14.5 51q0 40 -31 75l94 77q58 -79 58 -148z" />
    <glyph glyph-name="ml_half_ttha" horiz-adv-x="1206" 
d="M977 462q0 -106 -35 -194t-95.5 -151t-141.5 -97.5t-174 -34.5t-174 34.5t-141.5 97.5t-95.5 151t-35 194q0 98 35 185t95 151.5t141.5 102t174.5 37.5t174 -37.5t141.5 -102t95.5 -151.5t35 -185zM857 462q0 73 -25.5 137.5t-69.5 113t-103.5 76.5t-127.5 28
q-69 0 -128.5 -28t-103.5 -76.5t-69 -113t-25 -137.5t25 -138t69 -113.5t103.5 -76.5t128.5 -28q68 0 127.5 25t103.5 71.5t69.5 112.5t25.5 147zM1167 1253q0 -54 -24 -100.5t-64 -80.5t-92 -53.5t-107 -19.5q-61 0 -114.5 19t-94 52.5t-64 79.5t-23.5 101q0 85 57 148
l94 -73q-31 -42 -31 -72t14 -54.5t37 -42.5t54 -28t66 -10q33 0 64 10t54.5 27.5t38 41.5t14.5 51q0 40 -31 75l94 77q58 -79 58 -148z" />
    <glyph glyph-name="ml_half_dda" horiz-adv-x="1914" 
d="M1686 496q0 -118 -24 -212.5t-68 -161t-105.5 -102t-136.5 -35.5q-145 0 -234 101q-17 -24 -44 -42.5t-58 -31.5t-63.5 -20t-62.5 -7q-80 0 -132.5 28t-84.5 86.5t-47.5 150t-21.5 217.5q-2 54 -8 115t-22 113.5t-45.5 87t-78.5 34.5q-52 0 -97 -28t-78 -74.5t-51.5 -107
t-18.5 -126.5q0 -128 39 -224t106 -164l-67 -108q-100 100 -149 224.5t-49 271.5q0 48 9.5 100.5t28.5 103.5t48 97t68 81.5t88 56t109 20.5q81 0 133.5 -30t83.5 -89t44.5 -147t17.5 -205q3 -93 12.5 -161.5t29 -113.5t52 -66.5t81.5 -21.5q36 0 67 17t54.5 50t37 82.5
t13.5 114.5v553h120v-553q0 -131 46.5 -197.5t123.5 -66.5q49 0 88.5 26.5t67.5 77t43 122.5t15 162q0 106 -35 192.5t-108 148.5l67 105q196 -138 196 -444zM1876 1253q0 -54 -24 -100.5t-64 -80.5t-92 -53.5t-107 -19.5q-61 0 -114.5 19t-94 52.5t-64 79.5t-23.5 101
q0 85 57 148l94 -73q-31 -42 -31 -72t14 -54.5t37 -42.5t54 -28t66 -10q33 0 64 10t54.5 27.5t38 41.5t14.5 51q0 40 -31 75l94 77q58 -79 58 -148z" />
    <glyph glyph-name="ml_half_ddha" horiz-adv-x="2056" 
d="M1828 498q0 -150 -34 -249t-87.5 -157.5t-119 -82.5t-128.5 -24q-60 0 -109 15t-88 38t-68.5 50.5t-48.5 52.5q-17 -42 -48 -71.5t-67 -48.5t-73 -27.5t-67 -8.5q-80 0 -132.5 28t-84.5 86.5t-47.5 150t-21.5 217.5q-2 54 -8 115t-22 113.5t-45.5 87t-78.5 34.5
q-52 0 -97 -28t-78 -74.5t-51.5 -107t-18.5 -126.5q0 -128 39 -224t106 -164l-67 -108q-100 100 -149 224.5t-49 271.5q0 48 9.5 100.5t28.5 103.5t48 97t68 81.5t88 56t109 20.5q81 0 133.5 -30t83.5 -89t44.5 -147t17.5 -205q3 -93 12.5 -161.5t29 -113.5t52 -66.5
t81.5 -21.5q36 0 67 17t54.5 50t37 82.5t13.5 114.5v553h120v-553q0 -62 26.5 -111t67 -83t89.5 -52.5t95 -18.5q58 0 104 26t78.5 75t49 120.5t15.5 161.5q0 13 0.5 20t0.5 12t-0.5 11t-2.5 19q-15 -21 -35 -38t-44 -29t-49.5 -19t-50.5 -7q-48 0 -92 19t-77 52t-53 76.5
t-20 92.5q0 50 19.5 94t52.5 76.5t76 51.5t90 19q68 0 124.5 -34.5t97 -94t62.5 -139.5t22 -172zM1525 578q25 0 47 10.5t39.5 28.5t29.5 43.5t18 55.5q-45 101 -134 101q-24 0 -46 -9.5t-38.5 -26t-26 -38.5t-9.5 -46t9.5 -45.5t26 -38t38.5 -26t46 -9.5zM2018 1253
q0 -54 -24 -100.5t-64 -80.5t-92 -53.5t-107 -19.5q-61 0 -114.5 19t-94 52.5t-64 79.5t-23.5 101q0 85 57 148l94 -73q-31 -42 -31 -72t14 -54.5t37 -42.5t54 -28t66 -10q33 0 64 10t54.5 27.5t38 41.5t14.5 51q0 40 -31 75l94 77q58 -79 58 -148z" />
    <glyph glyph-name="ml_half_nna" horiz-adv-x="2092" 
d="M2007 468q0 -105 -23 -194t-65 -153t-100.5 -100t-129.5 -36q-51 0 -92.5 20.5t-71 56.5t-45.5 85t-16 106q0 62 12.5 142t38.5 161q14 47 37.5 112.5t57.5 147.5q-11 1 -20 1h-14q-114 0 -174 -65t-74 -194q-2 -22 -2.5 -77t-0.5 -140v-341h-120v529q0 153 -37.5 220.5
t-118.5 67.5q-50 0 -86.5 -23t-59.5 -71.5t-34 -125.5t-11 -185v-412h-121v453q0 76 -19.5 142.5t-54.5 116t-83.5 77.5t-106.5 28t-107.5 -32.5t-86 -86.5t-57 -122.5t-20.5 -140.5q0 -11 -1 -26q1 -15 3 -25q69 82 180 82q47 0 90.5 -19t77 -52t53.5 -77t20 -93
q0 -47 -19 -90.5t-51.5 -76.5t-75.5 -53t-91 -20q-69 0 -125.5 34.5t-96.5 94t-62 139.5t-22 171q0 64 13.5 127.5t38.5 120.5t60.5 105.5t78.5 84.5t94 56t106 20q93 0 175 -50t134 -138q77 188 267 188q36 0 70.5 -9t66 -25.5t58 -39.5t44.5 -51q94 126 294 126
q32 0 58 -3q4 16 6 26t2 16q0 37 -17.5 60t-44.5 36t-60.5 17.5t-65.5 5.5h-79v121h112q54 0 104 -17.5t88.5 -49t61 -74t22.5 -92.5q0 -23 -1.5 -43t-5.5 -37q63 -26 109 -72.5t76 -105t45 -125.5t15 -134zM1724 779l-91 -243q-24 -74 -36 -146t-12 -129q0 -69 30 -112
t80 -43q43 0 78 28t60.5 76t39.5 113t14 139q0 53 -11 102t-31.5 90.5t-51 73.5t-69.5 51zM385 345q-83 0 -135 -99q5 -30 17.5 -55.5t30 -44.5t39.5 -29.5t48 -10.5q24 0 45.5 9.5t38 26t26.5 38t10 45.5t-9.5 45.5t-26 38t-38.5 26.5t-46 10z" />
    <glyph glyph-name="ml_half_ta" horiz-adv-x="1526" 
d="M1297 384q0 -106 -37.5 -207t-113.5 -192l-91 73q26 27 48.5 66.5t39 84.5t25.5 92t9 90q0 84 -21 161t-62 136t-100.5 94t-137.5 35q-13 0 -24 -1t-20 -3q85 -88 123.5 -199t38.5 -238q0 -81 -20 -152t-56 -124.5t-87 -84t-113 -30.5q-65 0 -118 29.5t-90.5 81.5
t-58 124t-20.5 156q0 57 10.5 116.5t32.5 116.5t54 109t76 95q-11 2 -19 4.5l-14 4.5q-77 -2 -141 -36t-109.5 -92.5t-70.5 -136t-25 -166.5q0 -42 9 -89.5t25.5 -92.5t38.5 -85t49 -67l-90 -72q-31 30 -58.5 78t-48.5 103t-33 112t-12 106q0 115 33.5 216t93 176
t141.5 118.5t180 43.5q43 0 81.5 -9.5t76.5 -29.5q84 39 172 39q72 0 132.5 -23.5t109 -64t85.5 -95t61.5 -116t36 -127t9.5 -128.5zM854 369q0 126 -39.5 228t-123.5 166q-38 -29 -67.5 -74t-50 -96.5t-31.5 -106t-10 -103.5q0 -57 11.5 -107.5t33 -88t52.5 -59.5t69 -22
q36 0 65 20.5t49.5 55.5t31 83t10.5 104zM1488 1253q0 -54 -24 -100.5t-64 -80.5t-92 -53.5t-107 -19.5q-61 0 -114.5 19t-94 52.5t-64 79.5t-23.5 101q0 85 57 148l94 -73q-31 -42 -31 -72t14 -54.5t37 -42.5t54 -28t66 -10q33 0 64 10t54.5 27.5t38 41.5t14.5 51
q0 40 -31 75l94 77q58 -79 58 -148z" />
    <glyph glyph-name="ml_half_tha" horiz-adv-x="1379" 
d="M1151 0h-1066v923h121v-802h344v480q0 67 23 128t63 107.5t93 74t113 27.5q64 0 120 -25.5t98 -70t66.5 -105t24.5 -129.5v-608zM1030 121v494q0 39 -14.5 75.5t-39.5 64.5t-58 45t-70 17q-39 0 -71.5 -17.5t-56 -47.5t-36 -71t-12.5 -87v-473h358zM1341 1253
q0 -54 -24 -100.5t-64 -80.5t-92 -53.5t-107 -19.5q-61 0 -114.5 19t-94 52.5t-64 79.5t-23.5 101q0 85 57 148l94 -73q-31 -42 -31 -72t14 -54.5t37 -42.5t54 -28t66 -10q33 0 64 10t54.5 27.5t38 41.5t14.5 51q0 40 -31 75l94 77q58 -79 58 -148z" />
    <glyph glyph-name="ml_half_da" horiz-adv-x="1103" 
d="M875 666q0 -69 -27.5 -125t-81.5 -91q52 -38 77 -90.5t25 -115.5q0 -61 -26.5 -107t-69 -76.5t-97 -45.5t-109.5 -15h-187v121h121q125 0 186.5 28t61.5 95q0 69 -54 107t-163 38h-152v121h193q46 0 80.5 12.5t57.5 33.5t34 47.5t11 55.5q0 38 -18.5 67.5t-48 49.5
t-65.5 30.5t-72 10.5q-56 0 -104.5 -15.5t-86.5 -42.5t-66 -62.5t-44 -75.5q-18 -45 -27.5 -102.5t-13.5 -118.5t-4 -121q0 -59 1 -107v-172h-121v172q0 91 1.5 163t8 132t19 112t34.5 102q27 62 67.5 110t93 80.5t114 49.5t130.5 17q67 0 125.5 -19.5t102 -55.5t69 -86
t25.5 -111zM1065 1253q0 -54 -24 -100.5t-64 -80.5t-92 -53.5t-107 -19.5q-61 0 -114.5 19t-94 52.5t-64 79.5t-23.5 101q0 85 57 148l94 -73q-31 -42 -31 -72t14 -54.5t37 -42.5t54 -28t66 -10q33 0 64 10t54.5 27.5t38 41.5t14.5 51q0 40 -31 75l94 77q58 -79 58 -148z
" />
    <glyph glyph-name="ml_half_dha" horiz-adv-x="1447" 
d="M1219 439q0 -99 -27.5 -182.5t-75.5 -144t-114 -94t-142 -33.5q-129 0 -213 102q-84 -102 -202 -102q-77 0 -142.5 35t-114 96t-76 144t-27.5 179q0 85 8.5 151t30.5 124t61 112.5t99 116.5l62 -100q-140 -143 -140 -397q0 -71 19 -133t51.5 -108t76 -72.5t92.5 -26.5
q35 0 62.5 18.5t46 52.5t28.5 80.5t10 103.5v562h121v-562q0 -53 10.5 -99.5t29.5 -81t46.5 -54.5t60.5 -20q48 0 91 26.5t76 72.5t52 108t19 133q0 254 -139 397l61 100q57 -50 95 -103t61 -113.5t33 -131.5t10 -156zM1409 1253q0 -54 -24 -100.5t-64 -80.5t-92 -53.5
t-107 -19.5q-61 0 -114.5 19t-94 52.5t-64 79.5t-23.5 101q0 85 57 148l94 -73q-31 -42 -31 -72t14 -54.5t37 -42.5t54 -28t66 -10q33 0 64 10t54.5 27.5t38 41.5t14.5 51q0 40 -31 75l94 77q58 -79 58 -148z" />
    <glyph glyph-name="ml_half_na" horiz-adv-x="1567" 
d="M1482 456q0 -109 -19 -196t-55 -148t-89.5 -94t-122.5 -33q-249 0 -249 267q0 41 2 78t7 74t13 74t20 78q13 40 38 108.5l57 150.5q-83 10 -139.5 -18t-90 -80.5t-46 -124.5t-6.5 -150l-2 -442h-121v442q0 192 -61 283.5t-186 91.5q-51 0 -92.5 -28t-71.5 -75
t-46.5 -109.5t-16.5 -131.5q0 -54 13 -108t37 -102.5t57 -88t74 -62.5l-81 -113q-58 39 -99.5 93t-68.5 117t-39.5 132t-12.5 138q0 98 25 182t70.5 145.5t109.5 96.5t142 35q106 0 182.5 -42t124.5 -124q48 82 124 124t182 42q15 0 35 -1.5t40 -4.5q2 11 2.5 20t0.5 23
q0 34 -12 57.5t-39.5 38.5t-72.5 21.5t-110 6.5h-33v120h89q64 0 119 -17.5t95 -48.5t62.5 -75t22.5 -96q0 -11 -3.5 -29t-10.5 -48q66 -24 113.5 -72t78.5 -109t45.5 -130.5t14.5 -137.5zM1362 454q0 54 -11.5 104.5t-33 93t-52 75.5t-68.5 52l-45 -121.5l-44 -120.5
q-25 -70 -32.5 -141.5t-7.5 -129.5q0 -160 131 -160q36 0 66 31.5t51.5 81t33.5 111.5t12 124z" />
    <glyph glyph-name="ml_half_pa" horiz-adv-x="1833" 
d="M1570 923v-923h-1007v110q37 65 37 123q0 32 -16 61t-42 50.5t-60 34.5t-71 13q-42 0 -79 -12t-65.5 -33t-45 -50t-16.5 -64q0 -82 48 -151l-84 -87q-17 14 -32 41t-26.5 59.5t-18.5 67t-7 64.5q0 64 25 117t69 90.5t103.5 58.5t128.5 21q64 0 120 -22.5t98 -62t66.5 -93
t24.5 -116.5q0 -53 -24 -99h753v802h121zM1795 1253q0 -54 -24 -100.5t-64 -80.5t-92 -53.5t-107 -19.5q-61 0 -114.5 19t-94 52.5t-64 79.5t-23.5 101q0 85 57 148l94 -73q-31 -42 -31 -72t14 -54.5t37 -42.5t54 -28t66 -10q33 0 64 10t54.5 27.5t38 41.5t14.5 51
q0 40 -31 75l94 77q58 -79 58 -148z" />
    <glyph glyph-name="ml_half_pha" horiz-adv-x="1808" 
d="M1580 608v-608h-1016v111q37 80 37 122q0 33 -16.5 62t-43.5 51t-61 34.5t-69 12.5q-42 0 -79 -12t-65.5 -33t-45 -50.5t-16.5 -64.5q0 -66 51 -151l-88 -89q-83 95 -83 234q0 60 25 112.5t68.5 91.5t103.5 61t129 22q62 0 118.5 -22.5t99 -61.5t68 -91t25.5 -110
q0 -29 -6.5 -55.5t-19.5 -52.5h285v480q0 67 22.5 128t61.5 107.5t92 74t113 27.5q65 0 121.5 -26t98.5 -70.5t66 -104.5t24 -129zM1458 594q0 46 -13.5 87t-37 71t-55.5 47.5t-69 17.5q-38 0 -71 -17t-57.5 -45.5t-38.5 -64.5t-14 -75v-494h356v473zM1770 1253
q0 -54 -24 -100.5t-64 -80.5t-92 -53.5t-107 -19.5q-61 0 -114.5 19t-94 52.5t-64 79.5t-23.5 101q0 85 57 148l94 -73q-31 -42 -31 -72t14 -54.5t37 -42.5t54 -28t66 -10q33 0 64 10t54.5 27.5t38 41.5t14.5 51q0 40 -31 75l94 77q58 -79 58 -148z" />
    <glyph glyph-name="ml_half_ba" horiz-adv-x="2143" 
d="M1871 923v-923h-657v108q97 200 97 386q0 66 -18 124.5t-50 103t-78 70t-101 25.5q-104 0 -153.5 -87t-49.5 -278v-452h-120v453q0 76 -19.5 142.5t-54.5 116t-83.5 77.5t-106.5 28q-59 0 -108.5 -33t-85.5 -86.5t-56.5 -122t-20.5 -140.5q0 -11 -1 -25q1 -12 3 -23
q31 38 76.5 58.5t103.5 20.5q47 0 90.5 -19t77 -52t53.5 -77t20 -93q0 -47 -19 -90.5t-51.5 -76.5t-76 -53t-91.5 -20q-69 0 -125 34.5t-96.5 94t-62.5 139.5t-22 171q0 97 25.5 189.5t75.5 164.5t123 116t168 44q91 0 170.5 -47t131.5 -131q18 39 47 71.5t65.5 56t78.5 37
t87 13.5q84 0 152.5 -34.5t118 -94.5t76.5 -141t27 -174q0 -195 -90 -373h409v802h121zM508 225q0 24 -9.5 45.5t-26 38t-38 26.5t-45.5 10q-96 0 -136 -99q11 -62 48.5 -101t87.5 -39q24 0 45.5 9.5t38 26t26 38t9.5 45.5zM2105 1253q0 -54 -24 -100.5t-64 -80.5t-92 -53.5
t-107 -19.5q-61 0 -114.5 19t-94 52.5t-64 79.5t-23.5 101q0 85 57 148l94 -73q-31 -42 -31 -72t14 -54.5t37 -42.5t54 -28t66 -10q33 0 64 10t54.5 27.5t38 41.5t14.5 51q0 40 -31 75l94 77q58 -79 58 -148z" />
    <glyph glyph-name="ml_half_bha" horiz-adv-x="1261" 
d="M1033 220q0 -51 -24 -94t-69 -74.5t-110 -49t-147 -17.5q-112 0 -201.5 35.5t-154.5 93.5l79 83q53 -44 119.5 -68.5t154.5 -24.5q105 0 168 28t63 84q0 24 -12.5 42.5t-33.5 31t-48.5 19t-57.5 6.5q-28 0 -52.5 -5t-50.5 -11.5t-56 -11.5t-68 -5q-45 0 -84 16.5
t-67 44.5t-44 66t-16 81q0 42 18.5 79t49.5 65.5t71 45t84 16.5q39 0 73.5 -4.5t66.5 -10t63 -10t63 -4.5q36 0 54 14.5t18 39.5q0 47 -59 71.5t-179 24.5q-215 0 -326.5 -124.5t-111.5 -362.5q0 -68 13 -149t38 -169l-115 -27q-28 102 -42.5 190.5t-14.5 154.5
q0 142 37.5 255t108.5 191.5t173.5 120t233.5 41.5q183 0 273.5 -55.5t90.5 -161.5q0 -38 -15.5 -70t-41 -55.5t-58.5 -37t-67 -13.5q-37 0 -69 5t-62.5 11.5t-61 11.5t-63.5 5q-25 0 -47 -6t-39 -17.5t-27 -28.5t-10 -38q0 -14 8 -28.5t21.5 -26t31 -19t36.5 -7.5
q33 0 60 4.5t51.5 10t48.5 10t52 4.5q68 0 120.5 -16t88.5 -44.5t55 -68t19 -87.5zM1223 1253q0 -54 -24 -100.5t-64 -80.5t-92 -53.5t-107 -19.5q-61 0 -114.5 19t-94 52.5t-64 79.5t-23.5 101q0 85 57 148l94 -73q-31 -42 -31 -72t14 -54.5t37 -42.5t54 -28t66 -10
q33 0 64 10t54.5 27.5t38 41.5t14.5 51q0 40 -31 75l94 77q58 -79 58 -148z" />
    <glyph glyph-name="ml_half_ma" horiz-adv-x="1296" 
d="M1068 533v-533h-983v533q0 96 44 171.5t114.5 127t158 79t174.5 27.5q58 0 117 -12t113.5 -36t102.5 -58.5t83 -79.5t55.5 -100t20.5 -119zM947 491q0 83 -29 141t-74 96t-100 58t-107 27q26 -38 42 -85.5t16 -98.5q1 -48 -14 -88t-40.5 -75.5t-60.5 -68l-74 -66.5
l-60 -50.5t-56.5 -50.5t-42 -48.5t-16.5 -44.5q0 -16 41 -16h575v370zM578 615q0 25 -6 52t-18 53t-30 49t-41 38q-50 -10 -99.5 -31.5t-89 -59t-64 -93t-24.5 -132.5v-305q22 37 47.5 66t52 54t54.5 48l56 47q33 27 60.5 52t49 50t35 52t17.5 60zM1258 1253
q0 -54 -24 -100.5t-64 -80.5t-92 -53.5t-107 -19.5q-61 0 -114.5 19t-94 52.5t-64 79.5t-23.5 101q0 85 57 148l94 -73q-31 -42 -31 -72t14 -54.5t37 -42.5t54 -28t66 -10q33 0 64 10t54.5 27.5t38 41.5t14.5 51q0 40 -31 75l94 77q58 -79 58 -148z" />
    <glyph glyph-name="ml_half_ya" horiz-adv-x="1766" 
d="M1538 542q0 -116 -36.5 -217.5t-100.5 -177t-150 -119t-185 -43.5q-112 0 -223 64q-116 -64 -240 -64q-115 0 -210.5 42t-163.5 116.5t-106 177t-38 224.5q0 74 24.5 144.5t68 126t103 89t128.5 33.5q75 0 137.5 -31.5t97.5 -97.5q16 28 38.5 51.5t49 40.5t55 27t57.5 10
q58 0 108 -30t87 -81t57.5 -118.5t20.5 -142.5q0 -126 -42.5 -237t-128.5 -202q26 -11 56 -16t68 -5q72 0 135.5 37.5t110.5 99t74 141.5t27 166q0 48 -17 95.5t-47 86t-71 63t-89 27.5l39 116q70 -9 126.5 -43t96.5 -87t61.5 -121t21.5 -145zM744 133q-35 44 -60.5 87.5
t-44 93.5t-31 110.5t-20.5 139.5q-13 123 -56.5 188t-112.5 65q-45 0 -84 -22t-67.5 -59.5t-45 -86.5t-16.5 -103q0 -84 26 -163.5t76 -141t124 -98.5t169 -37q35 0 70 6.5t73 20.5zM996 578q0 48 -11.5 91t-32 76t-48.5 52.5t-60 19.5q-29 0 -53.5 -23t-42.5 -59.5
t-28 -82.5t-10 -91q0 -103 34 -196t103 -165q39 34 67 77t46 92t27 102t9 107zM1728 1253q0 -54 -24 -100.5t-64 -80.5t-92 -53.5t-107 -19.5q-61 0 -114.5 19t-94 52.5t-64 79.5t-23.5 101q0 85 57 148l94 -73q-31 -42 -31 -72t14 -54.5t37 -42.5t54 -28t66 -10q33 0 64 10
t54.5 27.5t38 41.5t14.5 51q0 40 -31 75l94 77q58 -79 58 -148z" />
    <glyph glyph-name="ml_half_ra" horiz-adv-x="1207" 
d="M1122 391q0 -89 -25 -163.5t-68.5 -128.5t-102.5 -84t-127 -30q-65 0 -112 18t-78 49.5t-45.5 74t-14.5 91.5q0 51 9 96.5t24 89.5t35.5 87l43.5 89l101 197q-27 17 -63 28.5t-78 11.5q-86 0 -161.5 -31t-132 -87t-89 -134.5t-32.5 -173.5q0 -188 102 -293l-62 -107
q-161 158 -161 414q0 121 42 219.5t114 168.5t168 107.5t205 37.5q50 0 96.5 -12.5t93.5 -33.5q11 47 11 76q0 42 -17.5 68t-46 40t-65.5 18.5t-76 4.5h-63v120h105q61 0 113 -18t90 -49.5t59.5 -75t21.5 -94.5q0 -32 -6.5 -70.5t-23.5 -85.5q50 -36 90 -85t68 -106
t43 -119.5t15 -124.5zM1001 384q0 115 -33.5 193.5t-103.5 126.5l-102 -195q-20 -39 -36.5 -75t-28.5 -70.5t-19 -69.5t-7 -72q0 -21 7 -42t22 -37.5t39.5 -26.5t59.5 -10q42 0 79 22t64.5 59.5t43 88.5t15.5 108z" />
    <glyph glyph-name="ml_half_rra" horiz-adv-x="1337" 
d="M1109 443q0 -71 -21.5 -139t-55.5 -128t-76 -109t-84 -83l-77 95q48 49 84 92t60 85.5t36 88t12 98.5q0 79 -31 147.5t-84.5 118.5t-124.5 79t-151 29q-80 -1 -151 -29.5t-124 -79t-83.5 -118.5t-30.5 -147q0 -53 12 -98.5t36 -88t60 -85.5t84 -92l-77 -95q-42 34 -84 83
t-76 109t-55.5 128t-21.5 139q0 107 39 197.5t107.5 156.5t162 103t202.5 38q108 0 202 -37.5t163 -103.5t108.5 -156.5t39.5 -197.5zM1299 1253q0 -54 -24 -100.5t-64 -80.5t-92 -53.5t-107 -19.5q-61 0 -114.5 19t-94 52.5t-64 79.5t-23.5 101q0 85 57 148l94 -73
q-31 -42 -31 -72t14 -54.5t37 -42.5t54 -28t66 -10q33 0 64 10t54.5 27.5t38 41.5t14.5 51q0 40 -31 75l94 77q58 -79 58 -148z" />
    <glyph glyph-name="ml_half_la" horiz-adv-x="1591" 
d="M1506 374q0 -75 -20 -145.5t-55 -124.5t-83.5 -86.5t-106.5 -32.5q-49 0 -90 18.5t-70 50.5t-45.5 74t-16.5 90q0 31 8 71.5t21 83.5t30 87t35 83l88 197q-46 37 -100.5 57t-120.5 20q-38 0 -77.5 -5.5t-74.5 -16.5q70 -83 106 -187.5t36 -226.5q0 -82 -19.5 -154
t-55.5 -126t-88 -85t-118 -31q-65 0 -117 29.5t-88.5 80.5t-56.5 120.5t-20 149.5q0 56 14.5 119t40.5 123.5t63 113t81 88.5q-15 5 -30 6.5t-32 1.5q-72 0 -134 -31t-107.5 -84.5t-71.5 -124.5t-26 -151q0 -230 118 -359l-88 -72q-150 169 -150 431q0 92 29.5 183.5
t87 164.5t142 118.5t193.5 45.5q37 0 81.5 -11.5t96.5 -37.5q51 26 118 37.5t141 11.5q85 0 155.5 -22t126.5 -63q12 33 17 60.5t5 54.5q0 35 -14 60t-39 40.5t-60.5 23t-78.5 7.5h-74v120h79q73 1 130.5 -15.5t97 -48.5t60 -77.5t20.5 -102.5q0 -42 -11 -91t-37 -109
q77 -78 116 -181t39 -220zM715 743q-40 -30 -74.5 -72.5t-60 -92t-39.5 -102.5t-13 -104q0 -132 41.5 -199t126.5 -67q37 0 66.5 21t50 57.5t31 87t10.5 109.5q0 109 -35 203t-104 159zM1294 650l-67 -149l-31.5 -74.5t-28 -73.5t-20.5 -70t-9 -65q0 -21 6.5 -41.5t19.5 -36
t31 -25t40 -9.5q33 0 61 22t48 59t31 84t11 97q0 80 -23 152.5t-69 129.5z" />
    <glyph glyph-name="ml_half_lla" horiz-adv-x="1499" 
d="M1413 456q2 -45 -3 -97.5t-18 -105t-35.5 -101t-56 -85.5t-78 -59.5t-102.5 -22.5q-125 0 -187 74t-62 208q0 182 142 546q-90 4 -144.5 -23.5t-85 -78.5t-42.5 -120t-17 -148q-7 -104 -30.5 -188.5t-64 -144.5t-98 -92.5t-133.5 -32.5q-77 0 -135.5 36t-98 99
t-59.5 148.5t-20 185.5q0 97 22.5 182t64.5 149.5t101.5 104t133.5 45.5l1 -122q-56 -11 -95 -50.5t-63 -92t-35 -108.5t-9 -98q0 -69 14 -133.5t39 -114.5t60.5 -80t78.5 -30q52 0 90 29.5t64 83t40 128t17 163.5q4 97 29 176.5t71 135t113 86t155 30.5q20 0 37.5 -1
t35.5 -3q2 12 3.5 23t1.5 22q0 33 -12 56t-39.5 37.5t-72.5 20.5t-111 6h-34v120h90q64 0 119 -16.5t95 -47t62.5 -73.5t22.5 -96q0 -43 -13 -81q63 -27 110.5 -75t78.5 -108t46.5 -128.5t15.5 -137.5zM1290 454q0 56 -11 107t-31.5 93.5t-50.5 74.5t-68 51l-45 -119
t-45 -130t-34.5 -130.5t-13.5 -119.5q0 -81 33 -128t100 -47q39 0 69.5 30.5t52 80t33 112t11.5 125.5z" />
    <glyph glyph-name="ml_half_llla" horiz-adv-x="1291" 
d="M1119 669q0 -59 -28.5 -116.5t-75.5 -105.5t-108 -83t-127 -49q-3 -161 -86 -245.5t-252 -84.5q-41 0 -84.5 11.5t-85 32.5t-79 50.5t-65.5 65.5l96 87q82 -126 243 -126q91 0 138.5 50t51.5 135q-22 1 -34.5 -0.5t-27.5 -1.5q-93 0 -176 25t-159 73q-175 115 -175 292
q0 80 34 146t102 122l77 -90q-92 -90 -92 -185q0 -58 37.5 -108t102.5 -88q59 -32 124.5 -48.5t131.5 -16.5h26q13 0 26 2q-3 18 -8 51.5t-9.5 70.5t-8 72.5t-3.5 57.5q0 53 18.5 102t51 87t77.5 61t98 23q57 0 103.5 -19.5t78.5 -55t49.5 -85t17.5 -109.5zM995 672
q0 28 -9.5 54t-26 46.5t-39.5 32.5t-50 12q-26 0 -48.5 -12.5t-39.5 -33.5t-26.5 -48.5t-9.5 -57.5q0 -22 3 -54t7 -65l8 -63t7 -47q44 11 84.5 35t71.5 56t49.5 69.5t18.5 75.5zM1252 1253q0 -54 -24 -100.5t-64 -80.5t-92 -53.5t-107 -19.5q-61 0 -114.5 19t-94 52.5
t-64 79.5t-23.5 101q0 85 57 148l94 -73q-31 -42 -31 -72t14 -54.5t37 -42.5t54 -28t66 -10q33 0 64 10t54.5 27.5t38 41.5t14.5 51q0 40 -31 75l94 77q58 -79 58 -148z" />
    <glyph glyph-name="ml_half_va" horiz-adv-x="1952" 
d="M1109 443q0 -89 -32 -171.5t-80 -150.5h567v802h120v-923h-825l-64 79q48 49 84 92t60 85.5t36 88t12 98.5q0 79 -31 147.5t-84.5 118.5t-124.5 79t-151 29q-80 -1 -151 -29.5t-124 -79t-83.5 -118.5t-30.5 -147q0 -53 12 -98.5t36 -88t60 -85.5t84 -92l-77 -95
q-42 34 -84 83t-76 109t-55.5 128t-21.5 139q0 107 39 197.5t107.5 156.5t162 103t202.5 38q108 0 202 -37.5t163 -103.5t108.5 -156.5t39.5 -197.5zM1914 1253q0 -54 -24 -100.5t-64 -80.5t-92 -53.5t-107 -19.5q-61 0 -114.5 19t-94 52.5t-64 79.5t-23.5 101q0 85 57 148
l94 -73q-31 -42 -31 -72t14 -54.5t37 -42.5t54 -28t66 -10q33 0 64 10t54.5 27.5t38 41.5t14.5 51q0 40 -31 75l94 77q58 -79 58 -148z" />
    <glyph glyph-name="ml_half_sha" horiz-adv-x="1555" 
d="M1326 453q0 -95 -21 -180t-61 -149t-96.5 -101.5t-126.5 -37.5q-51 0 -95 19t-76 52t-50 76.5t-18 92.5q0 50 19.5 94t52.5 76.5t77 51.5t94 19q24 0 49 -7t49 -19t45.5 -28.5t38.5 -35.5q2 20 3 41t1 41q0 78 -17.5 144t-51.5 113.5t-83.5 74.5t-113.5 27
q-72 0 -115 -34.5t-67 -86.5t-33.5 -113t-14.5 -115q-5 -56 -13.5 -114t-24 -111.5t-38.5 -100.5t-57 -82t-80.5 -55t-107.5 -20q-76 0 -133.5 32t-96.5 89.5t-59 136.5t-20 172q0 47 6 99t19.5 104.5t35.5 102t55 92t77 74.5t101 49l27 -114q-45 -13 -82 -52t-63 -95
t-40.5 -123.5t-14.5 -136.5q0 -68 11.5 -124.5t35 -97.5t58 -64t79.5 -23q42 0 73 17.5t53 47.5t36.5 69.5t23.5 84t14.5 90.5t9.5 88q5 50 14.5 102t26 100.5t41.5 91t60 74t82 49.5t108 18q89 0 161.5 -37t124.5 -102t80 -153.5t28 -192.5zM1175 246q-12 20 -30 38
t-38.5 31.5t-42.5 21.5t-43 8q-24 0 -45.5 -9.5t-38 -26t-26 -38t-9.5 -46.5q0 -26 10 -47.5t27 -37.5t38 -25t44 -9q26 0 50.5 10.5t44.5 29.5t35.5 44.5t23.5 55.5zM1516 1253q0 -54 -24 -100.5t-64 -80.5t-92 -53.5t-107 -19.5q-61 0 -114.5 19t-94 52.5t-64 79.5
t-23.5 101q0 85 57 148l94 -73q-31 -42 -31 -72t14 -54.5t37 -42.5t54 -28t66 -10q33 0 64 10t54.5 27.5t38 41.5t14.5 51q0 40 -31 75l94 77q58 -79 58 -148z" />
    <glyph glyph-name="ml_half_ssa" horiz-adv-x="1845" 
d="M1578 923v-923h-1015v112q37 53 37 121q0 34 -16.5 63t-43.5 50.5t-61.5 33.5t-71.5 12q-41 0 -77.5 -12t-64.5 -33.5t-44 -50.5t-16 -63q0 -82 49 -152l-88 -88q-81 99 -81 234q0 61 25.5 114t69 91t102.5 60t125 22q61 0 118 -21.5t100 -59.5t69 -89t26 -111
q0 -32 -6 -58.5t-20 -53.5h367v297q-11 -1 -22 -1h-22q-87 0 -157 18.5t-118.5 54.5t-74.5 89.5t-26 123.5q0 52 21 95t56 74t81 48.5t96 17.5q140 0 212 -95t75 -283q57 16 107 43t87.5 61.5t59.5 73.5t22 79v106h120zM1458 560q-108 -89 -276 -125v-314h276v439zM1061 536
v27q0 126 -41 190t-125 64q-33 0 -58.5 -10t-42 -26t-25 -36.5t-8.5 -41.5q0 -79 68.5 -123.5t192.5 -44.5zM1808 1253q0 -54 -24 -100.5t-64 -80.5t-92 -53.5t-107 -19.5q-61 0 -114.5 19t-94 52.5t-64 79.5t-23.5 101q0 85 57 148l94 -73q-31 -42 -31 -72t14 -54.5
t37 -42.5t54 -28t66 -10q33 0 64 10t54.5 27.5t38 41.5t14.5 51q0 40 -31 75l94 77q58 -79 58 -148z" />
    <glyph glyph-name="ml_half_sa" horiz-adv-x="1907" 
d="M1679 472q0 -98 -24 -186.5t-69 -155t-109.5 -106t-144.5 -39.5q-78 0 -129 40t-81.5 107t-46 155.5t-22.5 185.5q-5 68 -13.5 130t-26 109.5t-48.5 76t-81 28.5q-39 0 -70.5 -14.5t-54 -46t-34.5 -81t-12 -120.5v-555h-121v555q0 72 -8.5 122t-26 81t-45.5 45t-67 14
q-48 0 -91 -28t-75.5 -74.5t-52 -106t-19.5 -121.5q0 -128 36.5 -225.5t106.5 -168.5l-66 -102q-50 51 -87.5 104.5t-62.5 113.5t-37 130t-12 155q0 91 27.5 171.5t76 141t114.5 96t142 35.5q60 0 119.5 -27.5t101.5 -78.5q43 51 96.5 78.5t117.5 27.5q88 0 142 -37.5
t85.5 -101t45 -146t21.5 -172.5q9 -106 22 -178t32 -115.5t45.5 -62.5t62.5 -19q52 0 94 30t71 79t44.5 111.5t15.5 127.5q0 251 -131 385l55 104q99 -100 146.5 -217t47.5 -254zM1869 1253q0 -54 -24 -100.5t-64 -80.5t-92 -53.5t-107 -19.5q-61 0 -114.5 19t-94 52.5
t-64 79.5t-23.5 101q0 85 57 148l94 -73q-31 -42 -31 -72t14 -54.5t37 -42.5t54 -28t66 -10q33 0 64 10t54.5 27.5t38 41.5t14.5 51q0 40 -31 75l94 77q58 -79 58 -148z" />
    <glyph glyph-name="ml_half_ha" horiz-adv-x="2287" 
d="M2058 467q0 -212 -161 -473l-92 64q132 184 132 409q0 72 -33 136t-88 111.5t-127.5 75t-150.5 27.5t-149 -28t-125.5 -75.5t-87 -111t-32.5 -135.5q0 -178 94 -357v-110h-674v112q36 54 36 121q0 34 -16.5 63t-43.5 50.5t-62 33.5t-71 12q-41 0 -77.5 -12.5t-64 -34
t-43.5 -50.5t-16 -62q0 -79 47 -152l-86 -88q-82 100 -82 234q0 63 25.5 115.5t69 90.5t102 59.5t125.5 21.5q61 0 117.5 -21.5t100 -59.5t70 -89.5t26.5 -110.5q0 -30 -6 -58t-20 -54h415q-45 93 -66 179t-21 167q0 99 41 184.5t111.5 149.5t164 100.5t198.5 36.5
t199.5 -36.5t165.5 -100.5t113 -149.5t42 -184.5zM2248 1253q0 -54 -24 -100.5t-64 -80.5t-92 -53.5t-107 -19.5q-61 0 -114.5 19t-94 52.5t-64 79.5t-23.5 101q0 85 57 148l94 -73q-31 -42 -31 -72t14 -54.5t37 -42.5t54 -28t66 -10q33 0 64 10t54.5 27.5t38 41.5t14.5 51
q0 40 -31 75l94 77q58 -79 58 -148z" />
    <glyph glyph-name="ml_pstf_ya" horiz-adv-x="824" 
d="M195 -188q-12 -27 -41.5 -52t-67.5 -50q-26 -17 -38 -32.5t-12 -33.5q0 -31 18 -56t48.5 -42.5t71 -27t85.5 -9.5q57 0 102.5 19t77 54.5t48.5 85t17 110.5q0 41 -12 104t-38 151l-43 150t-32.5 127t-20.5 122.5t-7 135.5q0 57 17 142.5t50 212.5h121
q-33 -139 -49.5 -231t-16.5 -151q0 -51 4.5 -93.5t14 -86.5t23.5 -93l33 -113q76 -261 76 -394q0 -80 -25 -147.5t-72 -117.5t-113.5 -78t-148.5 -28q-79 0 -143.5 17.5t-110.5 50.5t-71 80.5t-25 107.5q0 26 6.5 45.5t19 35.5t30 30.5t38.5 29.5q29 21 54.5 46.5t38.5 51.5
z" />
    <glyph glyph-name="ml_pstf_ra" horiz-adv-x="376" 
d="M300 923l-13.5 -85.5l-12 -76l-12.5 -80.5l-11 -71.5t-8 -49.5q-19 -112 -28 -200.5t-9 -156.5q0 -107 16 -182.5t49.5 -123.5t86 -70.5t126.5 -22.5h22v-119q-105 0 -184 28.5t-131.5 90.5t-79 160.5t-26.5 238.5q0 69 10 161t27 200q23 135 37 227t18 132h123z" />
    <glyph glyph-name="ml_pstf_rra" horiz-adv-x="376" 
d="M300 923l-13.5 -85.5l-12 -76l-12.5 -80.5l-11 -71.5t-8 -49.5q-19 -112 -28 -200.5t-9 -156.5q0 -107 16 -182.5t49.5 -123.5t86 -70.5t126.5 -22.5h22v-119q-105 0 -184 28.5t-131.5 90.5t-79 160.5t-26.5 238.5q0 69 10 161t27 200q23 135 37 227t18 132h123z" />
    <glyph glyph-name="ml_pstf_va" horiz-adv-x="633" 
d="M548 923v-923h-548v121h427v802h121z" />
    <glyph glyph-name="ml_k_ka" horiz-adv-x="2148" 
d="M2063 420q0 -62 -13.5 -123.5t-40 -118t-65.5 -105.5t-90 -87l-85 92q36 21 67.5 57.5t55 83t37 100t13.5 106.5q0 76 -24 146.5t-69.5 125t-111.5 87.5t-150 33q-68 0 -126.5 -22.5t-104.5 -60t-77.5 -87t-45.5 -103.5q85 -12 157 -40.5t124 -70t81 -95t29 -114.5
q0 -54 -16 -98t-44.5 -75.5t-68 -48.5t-85.5 -17q-74 0 -132.5 29t-99 81t-62.5 125t-22 162q0 15 0.5 30t1.5 30q-17 2 -35 3t-36 3q-1 -105 -17 -190t-50.5 -146t-88.5 -94t-130 -33q-122 0 -191 84q-48 -38 -101 -61t-115 -23q-56 0 -101.5 20.5t-77.5 56.5t-50 84
t-18 103q0 86 26.5 143.5t75.5 93.5t118 54.5t153 25.5q7 82 27 150t54 117.5t83.5 77t116.5 27.5t116.5 -27.5t83.5 -76.5t53.5 -117.5t27.5 -149.5q25 -2 49 -3.5t47 -3.5q22 84 64 153.5t103 119.5t138.5 77.5t169.5 27.5q109 0 196.5 -44t148.5 -117t94 -166t33 -191z
M739 106q51 0 83 27t50 74t25 110t7 135h-330q0 -72 7 -135t25.5 -110t50.5 -74t82 -27zM492 173q-20 55 -29 124.5t-9 149.5q-56 -5 -101.5 -16.5t-78 -34t-50.5 -58.5t-18 -89q0 -61 33 -102t93 -41q12 0 32 4.5t42 12.5t45 20.5t41 29.5zM1502 211q0 90 -74 142.5
t-211 72.5q-1 -8 -1 -16v-14q0 -68 14 -121.5t39.5 -91t61.5 -57.5t81 -20q40 0 65 29t25 76zM739 817q-40 0 -68.5 -19.5t-47.5 -53t-29.5 -78t-15.5 -94.5q40 1 81 1h163q39 0 77 -1q-5 50 -15.5 94.5t-29.5 78t-47 53t-68 19.5z" />
    <glyph glyph-name="ml_k_l_ra" horiz-adv-x="1504" 
d="M1419 249q0 -53 -18.5 -100.5t-51 -84t-77 -58t-97.5 -21.5q-101 0 -193 80l80 90q27 -26 53 -37.5t52 -11.5q29 0 53 11.5t41.5 31t27 45.5t9.5 55q0 54 -20 90.5t-56 59.5t-86.5 34t-110.5 15q-1 -105 -17 -190t-50.5 -146t-88.5 -94t-130 -33q-122 0 -191 84
q-48 -38 -101 -61t-115 -23q-56 0 -101.5 20.5t-77.5 56.5t-50 84t-18 103q0 86 26.5 143.5t75.5 93.5t118 54.5t153 25.5q7 82 27 150t54 117.5t83.5 77t116.5 27.5t116.5 -27.5t83.5 -76.5t53.5 -117.5t27.5 -149.5q88 -6 161.5 -24t126.5 -54t82 -94t29 -146zM739 106
q51 0 83 27t50 74t25 110t7 135h-330q0 -72 7 -135t25.5 -110t50.5 -74t82 -27zM492 173q-20 55 -29 124.5t-9 149.5q-56 -5 -101.5 -16.5t-78 -34t-50.5 -58.5t-18 -89q0 -61 33 -102t93 -41q12 0 32 4.5t42 12.5t45 20.5t41 29.5zM899 572q-5 50 -15.5 94.5t-29.5 78
t-47 53t-68 19.5t-68.5 -19.5t-47.5 -53t-29.5 -78t-15.5 -94.5q40 1 81 1h163q39 0 77 -1zM1278 -371q0 -40 -10.5 -85t-34 -82.5t-61 -62t-91.5 -24.5q-48 0 -89 15.5t-71 45t-47 72t-17 95.5q0 36 15.5 76t48 74t83 58t120.5 29q-37 37 -82.5 51t-96.5 14
q-31 0 -60.5 -11t-52 -34t-36.5 -58t-14 -84v-323h-98v323q0 30 -15.5 63t-42 60.5t-61 45.5t-71.5 18q-42 0 -76 -16t-59 -44.5t-39.5 -68.5t-17.5 -89q23 26 59 43.5t71 17.5q39 0 73.5 -15t59.5 -41t39.5 -60.5t14.5 -73.5q0 -44 -16 -78.5t-42.5 -57.5t-60 -35
t-68.5 -12q-50 0 -92 22.5t-72 63t-47 98t-17 127.5q0 64 19 123t55.5 105t91.5 73.5t127 27.5q45 0 81.5 -13t64.5 -32.5t47.5 -41t29.5 -37.5q13 25 37 47.5t55 40t65 27.5t66 9q84 -2 146.5 -30.5t104.5 -79.5t63 -121t21 -155zM1172 -355q0 23 -3 48.5t-8 45.5
q-59 -6 -96.5 -19.5t-59 -33t-30 -44t-8.5 -51.5q0 -23 9 -42.5t23.5 -33.5t33 -22t37.5 -8q28 0 47.5 11.5t31.5 32.5t17.5 50.5t5.5 65.5zM509 -438q0 34 -20.5 55t-54.5 21q-11 0 -25 -5t-28 -14t-26 -21.5t-17 -27.5q8 -42 34.5 -63.5t61.5 -21.5q33 0 54 21t21 56z" />
    <glyph glyph-name="ml_k_tta" horiz-adv-x="1504" 
d="M1419 249q0 -53 -18.5 -100.5t-51 -84t-77 -58t-97.5 -21.5q-101 0 -193 80l80 90q27 -26 53 -37.5t52 -11.5q29 0 53 11.5t41.5 31t27 45.5t9.5 55q0 54 -20 90.5t-56 59.5t-86.5 34t-110.5 15q-1 -105 -17 -190t-50.5 -146t-88.5 -94t-130 -33q-122 0 -191 84
q-48 -38 -101 -61t-115 -23q-56 0 -101.5 20.5t-77.5 56.5t-50 84t-18 103q0 86 26.5 143.5t75.5 93.5t118 54.5t153 25.5q7 82 27 150t54 117.5t83.5 77t116.5 27.5t116.5 -27.5t83.5 -76.5t53.5 -117.5t27.5 -149.5q88 -6 161.5 -24t126.5 -54t82 -94t29 -146zM739 106
q51 0 83 27t50 74t25 110t7 135h-330q0 -72 7 -135t25.5 -110t50.5 -74t82 -27zM492 173q-20 55 -29 124.5t-9 149.5q-56 -5 -101.5 -16.5t-78 -34t-50.5 -58.5t-18 -89q0 -61 33 -102t93 -41q12 0 32 4.5t42 12.5t45 20.5t41 29.5zM899 572q-5 50 -15.5 94.5t-29.5 78
t-47 53t-68 19.5t-68.5 -19.5t-47.5 -53t-29.5 -78t-15.5 -94.5q40 1 81 1h163q39 0 77 -1zM1426 -427q0 -50 -19.5 -87t-53 -61.5t-78 -37t-93.5 -12.5q-58 0 -105 15.5t-80.5 45t-51.5 71t-18 92.5h111q0 -33 11.5 -54.5t30.5 -35t44.5 -19t52.5 -5.5q31 0 56.5 4t44 12.5
t28.5 22.5t10 34q0 41 -37.5 60.5t-107.5 30.5q-55 9 -100 23t-77 36.5t-49.5 54t-17.5 75.5q0 40 22 72.5t57.5 55.5t80.5 36t92 13q54 0 99.5 -14.5t78.5 -41t51 -64t18 -83.5h-105q0 42 -38.5 67.5t-105.5 25.5q-27 0 -52.5 -5.5t-45 -15.5t-31 -22.5t-11.5 -27.5
q0 -25 20.5 -41t47 -25.5t51.5 -13.5t34 -6l87.5 -22t75.5 -29.5t53 -48t20 -75.5z" />
    <glyph glyph-name="ml_k_ta" horiz-adv-x="2464" 
d="M2378 384q0 -106 -37.5 -207t-113.5 -192l-91 73q26 27 48.5 66.5t39 84.5t25.5 92t9 90q0 84 -21 161t-62 136t-100.5 94t-137.5 35q-13 0 -24 -1t-20 -3q85 -88 123.5 -199t38.5 -238q0 -81 -20 -152t-56 -124.5t-87 -84t-113 -30.5q-65 0 -118 29.5t-90.5 81.5
t-58 124t-20.5 156q0 57 10.5 116.5t32.5 116.5t54 109t76 95q-11 2 -19 4.5l-14 4.5q-77 -2 -141 -36t-109.5 -92.5t-70.5 -136t-25 -166.5q0 -42 9 -89.5t25.5 -92.5t38.5 -85t49 -67l-90 -72q-31 30 -58.5 78t-48.5 103t-33 112t-12 106q0 33 3 68h-144q-1 -105 -17 -191
t-50.5 -147.5t-88.5 -95t-130 -33.5q-122 0 -191 84q-48 -38 -101 -61t-115 -23q-56 0 -101.5 20.5t-77.5 56.5t-50 84t-18 103q0 86 26.5 143.5t75.5 93.5t118 54.5t153 25.5q7 82 27 150t54 117.5t83.5 77t116.5 27.5t116.5 -26.5t83.5 -75t53.5 -116t27.5 -148.5h171
q22 80 62 147.5t94.5 116t122 75.5t144.5 27q43 0 81.5 -9.5t76.5 -29.5q84 39 172 39q72 0 132.5 -23.5t109 -64t85.5 -95t61.5 -116t36 -127t9.5 -128.5zM1935 369q0 126 -39.5 228t-123.5 166q-38 -29 -67.5 -74t-50 -96.5t-31.5 -106t-10 -103.5q0 -57 11.5 -107.5
t33 -88t52.5 -59.5t69 -22q36 0 65 20.5t49.5 55.5t31 83t10.5 104zM739 106q51 0 83 27t50 74t25 110t7 135h-330q0 -72 7 -135t25.5 -110t50.5 -74t82 -27zM492 173q-20 55 -29 124.5t-9 149.5q-56 -5 -101.5 -16.5t-78 -34t-50.5 -58.5t-18 -89q0 -61 33 -102t93 -41
q12 0 32 4.5t42 12.5t45 20.5t41 29.5zM739 817q-40 0 -68.5 -19.5t-47.5 -53t-29.5 -78t-15.5 -94.5q40 1 81 1h163q39 0 77 -1q-5 50 -15.5 94.5t-29.5 78t-47 53t-68 19.5z" />
    <glyph glyph-name="ml_k_na" horiz-adv-x="1504" 
d="M1419 249q0 -53 -18.5 -100.5t-51 -84t-77 -58t-97.5 -21.5q-101 0 -193 80l80 90q27 -26 53 -37.5t52 -11.5q29 0 53 11.5t41.5 31t27 45.5t9.5 55q0 54 -20 90.5t-56 59.5t-86.5 34t-110.5 15q-1 -105 -17 -190t-50.5 -146t-88.5 -94t-130 -33q-122 0 -191 84
q-48 -38 -101 -61t-115 -23q-56 0 -101.5 20.5t-77.5 56.5t-50 84t-18 103q0 86 26.5 143.5t75.5 93.5t118 54.5t153 25.5q7 82 27 150t54 117.5t83.5 77t116.5 27.5t116.5 -27.5t83.5 -76.5t53.5 -117.5t27.5 -149.5q88 -6 161.5 -24t126.5 -54t82 -94t29 -146zM739 106
q51 0 83 27t50 74t25 110t7 135h-330q0 -72 7 -135t25.5 -110t50.5 -74t82 -27zM492 173q-20 55 -29 124.5t-9 149.5q-56 -5 -101.5 -16.5t-78 -34t-50.5 -58.5t-18 -89q0 -61 33 -102t93 -41q12 0 32 4.5t42 12.5t45 20.5t41 29.5zM899 572q-5 50 -15.5 94.5t-29.5 78
t-47 53t-68 19.5t-68.5 -19.5t-47.5 -53t-29.5 -78t-15.5 -94.5q40 1 81 1h163q39 0 77 -1zM1404 -275q0 -57 -9.5 -103t-29 -87t-49.5 -79.5t-71 -80.5l-54 95q52 53 77.5 111t25.5 139q0 38 -11 72t-30.5 59.5t-46.5 40t-60 14.5q-51 0 -75.5 -41.5t-24.5 -116.5v-358
h-110v358q0 74 -23 116t-74 42q-33 0 -61 -14.5t-47.5 -40t-30.5 -59.5t-11 -72q0 -81 25.5 -139t77.5 -111l-54 -95q-42 42 -72 80t-49.5 79t-28.5 87t-9 104q0 66 21.5 119.5t58 91.5t85 58.5t102.5 20.5q45 0 81 -15.5t65 -50.5q56 66 144 66q54 0 103 -23t85.5 -63
t58 -92.5t21.5 -111.5z" />
    <glyph glyph-name="ml_k_rr_rra" horiz-adv-x="1504" 
d="M1419 249q0 -53 -18.5 -100.5t-51 -84t-77 -58t-97.5 -21.5q-101 0 -193 80l80 90q27 -26 53 -37.5t52 -11.5q29 0 53 11.5t41.5 31t27 45.5t9.5 55q0 54 -20 90.5t-56 59.5t-86.5 34t-110.5 15q-1 -105 -17 -190t-50.5 -146t-88.5 -94t-130 -33q-122 0 -191 84
q-48 -38 -101 -61t-115 -23q-56 0 -101.5 20.5t-77.5 56.5t-50 84t-18 103q0 86 26.5 143.5t75.5 93.5t118 54.5t153 25.5q7 82 27 150t54 117.5t83.5 77t116.5 27.5t116.5 -27.5t83.5 -76.5t53.5 -117.5t27.5 -149.5q88 -6 161.5 -24t126.5 -54t82 -94t29 -146zM739 106
q51 0 83 27t50 74t25 110t7 135h-330q0 -72 7 -135t25.5 -110t50.5 -74t82 -27zM492 173q-20 55 -29 124.5t-9 149.5q-56 -5 -101.5 -16.5t-78 -34t-50.5 -58.5t-18 -89q0 -61 33 -102t93 -41q12 0 32 4.5t42 12.5t45 20.5t41 29.5zM899 572q-5 50 -15.5 94.5t-29.5 78
t-47 53t-68 19.5t-68.5 -19.5t-47.5 -53t-29.5 -78t-15.5 -94.5q40 1 81 1h163q39 0 77 -1zM1248 -543q30 29 50.5 56t33 54.5t18.5 57t6 65.5q0 51 -17.5 91t-48 67.5t-73.5 42t-94 14.5q-54 0 -98.5 -15t-76 -44.5t-48.5 -71.5t-17 -96q0 -35 5.5 -63t18.5 -54t33.5 -51.5
t49.5 -53.5l-62 -81q-78 65 -116.5 141t-38.5 168q0 76 26.5 137.5t73 104.5t109.5 66t137 23q75 0 138.5 -22t110 -63.5t72.5 -102t26 -137.5q0 -179 -154 -315zM535 -543q30 29 50.5 56t33 54.5t18.5 57t6 65.5q0 51 -17.5 91t-48 67.5t-73.5 42t-94 14.5q-54 0 -98.5 -15
t-76 -44.5t-48.5 -71.5t-17 -96q0 -35 5.5 -63t18.5 -54t33.5 -51.5t49.5 -53.5l-62 -81q-78 65 -116.5 141t-38.5 168q0 76 26.5 137.5t73 104.5t109.5 66t137 23q75 0 138.5 -22t110 -63.5t72.5 -102t26 -137.5q0 -179 -154 -315z" />
    <glyph glyph-name="ml_g_ga" horiz-adv-x="1334" 
d="M1249 467q0 -91 -26 -175.5t-71.5 -149t-107 -103.5t-133.5 -39v121q48 0 88 27.5t68.5 75t44.5 110t16 133.5q0 57 -11.5 118.5t-35.5 113t-61 85t-88 33.5q-67 0 -105 -38t-59 -97t-31 -130.5l-20 -137.5q-9 -54 -19 -106.5t-26 -100t-38.5 -88.5t-54.5 -70.5
t-76 -46.5t-103 -17q-71 0 -129 38t-99 104t-64 153.5t-23 186.5q0 54 9.5 110t28 107.5t45.5 96.5t63.5 77.5t81 50t97.5 14.5v-121q-43 -1 -80.5 -30.5t-65 -76t-43 -105t-15.5 -116.5q0 -69 14 -135t39.5 -117.5t61 -83.5t79.5 -32q62 0 99 30.5t59 80t32.5 112
t19.5 126.5q7 55 15.5 112t22 110.5t34.5 101t53.5 83t79 56t110.5 20.5q81 0 141.5 -40t101 -106t61 -150.5t20.5 -174.5zM1227 -307q0 -65 -26 -123t-70.5 -101.5t-104 -68.5t-127.5 -25v109q46 1 85.5 17.5t69 44.5t46.5 65.5t17 81.5q0 49 -13.5 88t-38.5 66.5
t-60.5 42.5t-78.5 15q-42 0 -74 -21t-56 -53.5t-41.5 -72t-31.5 -75.5q-23 -59 -49 -114.5t-61.5 -98.5t-84.5 -69t-118 -26q-73 0 -131.5 27t-99 71.5t-62 102.5t-21.5 120q0 69 27 128t73.5 102t108 67t130.5 22v-111q-50 0 -92 -15.5t-72.5 -43t-47.5 -66t-17 -83.5
q0 -44 16 -80.5t43.5 -63t65 -41.5t80.5 -15q46 0 79.5 22t58 56t42.5 74.5t32 78.5q13 36 33 85.5t54 94.5t86.5 76.5t131.5 31.5q85 0 142.5 -29.5t92 -76t49.5 -104t15 -112.5z" />
    <glyph glyph-name="ml_g_d_dha" horiz-adv-x="2204" 
d="M2119 -47q0 -90 -18.5 -170.5t-58 -141t-101 -96t-147.5 -35.5q-45 0 -84.5 11.5t-71 31t-54.5 44.5t-36 52q-28 -36 -58.5 -62.5t-66.5 -43.5t-80.5 -25t-100.5 -8q-71 0 -131.5 22.5t-104.5 65t-69 102.5t-25 135q0 52 9.5 93t31 73.5t56 58.5t84.5 49q46 21 76 36.5
t48 32t25 35t7 45.5q0 135 -271 135h-98v121l157 -1q110 -1 164.5 37.5t54.5 112.5q0 30 -14.5 58t-39 49t-58 33.5t-70.5 12.5q-68 0 -118.5 -18t-87.5 -48.5t-62 -70.5t-42 -84.5t-27.5 -91l-19.5 -89.5l-22 -106.5t-26.5 -100t-37.5 -88.5t-53.5 -70.5t-75 -46.5
t-102.5 -17q-71 0 -129 38t-99 104t-64 153.5t-23 186.5q0 54 9.5 110t28 107.5t45.5 96.5t63.5 77.5t81 50t97.5 14.5v-121q-43 -1 -80.5 -30.5t-65 -76t-43 -105t-15.5 -116.5q0 -69 14 -135t39.5 -117.5t61 -83.5t79.5 -32q62 0 97.5 31t56 80.5t31.5 112t25 125.5
q21 99 52.5 187t84 153.5t132.5 103.5t199 38q66 0 120.5 -24t94.5 -62t62 -85.5t22 -95.5q0 -72 -23.5 -124t-78.5 -90q96 -80 96 -205q0 -53 -12.5 -92t-35.5 -67.5t-56.5 -48.5t-75.5 -35q-29 -11 -55 -24t-46 -33t-31.5 -48t-11.5 -68q0 -50 18 -87.5t48 -63t68.5 -38
t79.5 -12.5q49 0 91.5 23t73.5 60t48.5 82.5t17.5 89.5v558h122v-558q0 -53 13 -100t36.5 -82t57 -55.5t75.5 -20.5q52 0 90 28t63 74.5t37 105.5t12 121q0 128 -39.5 221t-108.5 164l80 102q51 -57 87 -110t58.5 -110t33 -123.5t10.5 -150.5z" />
    <glyph glyph-name="ml_g_da" horiz-adv-x="1473" 
d="M1388 666q0 -72 -23 -124t-79 -90q50 -40 73 -90t23 -115q0 -47 -20 -91t-54.5 -79t-80 -56t-95.5 -21h-240v121l131 -1q120 -2 179 32.5t59 101.5q0 135 -277 135h-92v121l148 -1q115 -1 171.5 37.5t56.5 112.5q0 33 -16.5 61.5t-45 49t-65.5 32t-77 11.5
q-74 0 -125.5 -18.5t-87 -48t-57 -66.5t-34 -74.5t-19 -72.5t-12.5 -59q-10 -42 -20 -94t-25.5 -106.5t-37.5 -106.5t-56.5 -92.5t-82.5 -65t-115 -24.5q-85 0 -143.5 40.5t-95 108t-52.5 154.5t-16 179q0 88 19.5 172t59.5 150t101 105.5t144 39.5v-121q-43 -1 -80.5 -31.5
t-65 -78.5t-43 -108.5t-15.5 -120.5q0 -69 14 -135t40 -117.5t62.5 -83.5t81.5 -32q38 0 67.5 19.5t51.5 51t37 71.5t26 81.5t18.5 81t12.5 68.5q18 95 47 178.5t79 146t126.5 98.5t189.5 36q89 0 152 -23.5t102.5 -61.5t57.5 -87t18 -100z" />
    <glyph glyph-name="ml_g_na" horiz-adv-x="1771" 
d="M1686 494q0 -84 -11 -153.5t-34.5 -129.5t-61 -114t-91.5 -106l-62 100q139 140 139 396q0 59 -12 118t-36.5 106t-63.5 76.5t-93 29.5q-39 0 -72 -14.5t-56.5 -46t-37 -81t-13.5 -120.5v-555h-121v555q0 69 -8 118t-24.5 80t-42 46t-61.5 17q-43 -2 -73 -20t-50.5 -48
t-34 -70t-22 -84t-14.5 -90.5t-13 -89.5q-9 -54 -19 -106.5t-26 -100t-38.5 -88.5t-54.5 -70.5t-76 -46.5t-103 -17q-71 0 -129 38t-99 104t-64 153.5t-23 186.5q0 54 9.5 110t28 107.5t45.5 96.5t63.5 77.5t81 50t97.5 14.5v-121q-43 -1 -80.5 -30.5t-65 -76t-43 -105
t-15.5 -116.5q0 -69 14 -135t39.5 -117.5t61 -83.5t79.5 -32q62 0 99 30.5t59 80t32.5 112t19.5 126.5q7 55 16 112.5t23 111.5t35 101t53.5 82t77.5 55.5t107 20.5q59 0 115.5 -29t96.5 -77q43 51 96.5 78.5t117.5 27.5q90 0 154 -35.5t105 -96.5t60 -141.5t19 -170.5z" />
    <glyph glyph-name="ml_g_ma" horiz-adv-x="2196" 
d="M2111 532v-533h-983v468q0 57 -11.5 118.5t-35.5 113t-61 85t-88 33.5q-67 0 -105 -38t-59 -97t-31 -130.5l-20 -137.5q-9 -54 -19 -106.5t-26 -100t-38.5 -88.5t-54.5 -70.5t-76 -46.5t-103 -17q-71 0 -129 38t-99 104t-64 153.5t-23 186.5q0 54 9.5 110t28 107.5
t45.5 96.5t63.5 77.5t81 50t97.5 14.5v-121q-43 -1 -80.5 -30.5t-65 -76t-43 -105t-15.5 -116.5q0 -69 14 -135t39.5 -117.5t61 -83.5t79.5 -32q62 0 99 30.5t59 80t32.5 112t19.5 126.5q7 55 15.5 112t22 110.5t34.5 101t53.5 83t79 56t110.5 20.5q48 0 89 -14.5t74.5 -41
t60 -63t46.5 -80.5q34 48 82.5 84.5t104 62t116.5 38.5t121 13q58 0 117 -12t113.5 -36t102.5 -58.5t83 -79.5t55.5 -100t20.5 -119zM1990 490q0 83 -29 141t-74 96t-100 58t-107 27q26 -38 42 -85.5t16 -98.5q1 -48 -14 -88t-40.5 -75.5t-60.5 -68l-74 -66.5l-60 -50.5
t-56.5 -50.5t-42 -48.5t-16.5 -44.5q0 -16 41 -16h575v370zM1621 614q0 25 -6 52t-18 53t-30 49t-41 38q-49 -10 -98.5 -31t-89.5 -60.5t-65 -99.5t-25 -148v-282q22 37 47.5 66t52.5 54t55 48l56 47q33 27 60.5 52t49 50t35 52t17.5 60z" />
    <glyph glyph-name="ml_ng_ka" horiz-adv-x="1504" 
d="M1419 244q0 -53 -18 -100.5t-50.5 -82.5t-77.5 -55.5t-98 -20.5q-101 0 -193 80l80 90q27 -26 53 -37.5t52 -11.5q27 0 51 11.5t41.5 31.5t27.5 46t10 55q0 39 -20 75t-56 65.5t-85.5 50t-107.5 29.5q0 -14 0.5 -24t0.5 -20q0 -102 -18.5 -183.5t-54 -139t-88 -88
t-121.5 -30.5q-66 0 -115.5 23t-79.5 65q-49 -45 -99 -66.5t-104 -21.5q-56 0 -104 21.5t-83.5 57.5t-56 84.5t-20.5 102.5q0 58 21 115.5t63 99.5q-84 75 -84 197q0 55 22.5 104.5t61 87.5t88.5 60.5t105 22.5q114 0 196 -79q72 79 180 79q61 0 112.5 -27t89 -73.5
t59 -108.5t23.5 -132q81 -10 153 -43t126.5 -81t86 -107t31.5 -122zM906 492q-29 5 -68.5 7.5t-90.5 2.5q-55 0 -97 -2.5t-73 -8.5q-2 -16 -3 -37t-1 -49q0 -59 12.5 -113t34.5 -95t53 -66t67 -25q84 0 126 81t42 229v35q0 17 -2 41zM452 480q-55 -8 -100.5 -29t-77.5 -52
t-50 -70t-18 -82q0 -31 10.5 -57t28.5 -44.5t43 -29t54 -10.5q21 0 45 5t45.5 14t38 21t21.5 25q-20 57 -30 136.5t-10 172.5zM493 747q-53 68 -131 68q-31 0 -59.5 -12.5t-50 -34t-34 -49.5t-12.5 -58q0 -36 15 -67.5t47 -58.5q42 21 90.5 36.5t107.5 26.5q1 37 7 75t20 74
zM897 614q-2 41 -13 78t-30.5 64.5t-46 44t-58.5 16.5t-59 -16t-47 -44t-32 -64.5t-15 -77.5q40 5 75.5 6.5t70.5 1.5q66 0 155 -9z" />
    <glyph glyph-name="ml_ng_nga" horiz-adv-x="2377" 
d="M2280 644q0 -27 -5.5 -55t-16.5 -53t-27.5 -45t-37.5 -30q34 -25 54 -52.5t30 -55.5t12.5 -54t2.5 -48q0 -68 -21.5 -118t-58 -83t-85 -49t-101.5 -16q-32 0 -57.5 3.5t-48.5 12t-47 23t-54 35.5l58 109q35 -31 69 -46.5t61 -15.5q34 0 64.5 6.5t53.5 23t36.5 44
t13.5 69.5q0 30 -13.5 57t-41 47.5t-69 32t-96.5 11.5h-128v121h114q59 0 100.5 7t68 22t38.5 39t12 58q0 35 -11.5 66.5t-34 55.5t-57.5 38.5t-81 14.5q-63 0 -118 -38t-95.5 -99.5t-64 -138t-23.5 -154.5v-389h-120l-1 445q0 67 -28.5 134t-76.5 119.5t-109.5 85.5
t-127.5 33q-5 0 -11 -2t-12 -3q117 -87 117 -211q0 -75 -47 -150q45 -38 70.5 -88t25.5 -110q0 -62 -22 -111.5t-59.5 -84t-88 -53.5t-106.5 -19q-87 0 -151 37t-106 97.5t-62.5 138.5t-20.5 160q0 49 10.5 103t30 105.5t47.5 97.5t64 79q-14 3 -36 5.5t-45.5 4.5t-44.5 3
t-31 1q-93 -5 -177 -36.5t-150.5 -81t-113.5 -112.5t-67 -131q34 17 72.5 28t75.5 11q68 0 119.5 -20.5t86 -55t52 -79.5t17.5 -95q0 -57 -22.5 -105t-60 -82.5t-87 -53.5t-103.5 -19q-70 0 -124.5 24.5t-91.5 70t-56 110t-19 145.5q0 126 50.5 235.5t138 191.5t205.5 129
t254 47q96 0 172 -9t133 -29q77 38 172 38q62 0 124.5 -21t118 -57.5t100.5 -86.5t71 -107q16 43 44.5 91t72 88t102.5 66.5t135 26.5q59 0 113.5 -19.5t96.5 -57t67 -92.5t25 -125zM1039 764q-42 -23 -75 -62t-56.5 -86.5t-36 -100t-12.5 -102.5q0 -56 12.5 -110.5
t39.5 -98.5t69.5 -71t102.5 -27q30 0 57 9t47.5 27.5t32.5 46t12 64.5q0 62 -50 99t-133 37v117q27 1 51.5 9t43.5 21t30 30t11 35q0 24 -11.5 48t-31 46t-46 40t-57.5 29zM217 238q0 -27 13 -51t35 -42t51 -28.5t61 -10.5q29 0 56 10t48 27.5t33.5 42t12.5 54.5
q0 28 -12 52.5t-33 42.5t-48 28.5t-57 10.5q-32 0 -61 -10.5t-51 -28.5t-35 -43t-13 -54z" />
    <glyph glyph-name="ml_c_ca" horiz-adv-x="1641" 
d="M1556 923v-923h-1471v121h537q45 0 89.5 25.5t79.5 66t56.5 91.5t21.5 101q0 42 -11 77t-30.5 60.5t-47.5 40t-62 14.5q-32 0 -60.5 -12t-50.5 -33.5t-34.5 -50.5t-12.5 -62q0 -55 54 -92l-65 -91q-110 81 -110 190q0 57 20.5 106.5t57 86.5t86.5 58t108 21
q62 0 113.5 -23.5t88.5 -65t57.5 -99t20.5 -125.5q0 -163 -133 -284h577v802h121zM1556 184v-632h-1179v70l1058 459v103h121zM1435 -328v316l-731 -316h731z" />
    <glyph glyph-name="ml_c_cha" horiz-adv-x="1641" 
d="M1556 923v-923h-1471v121h537q45 0 89.5 25.5t79.5 66t56.5 91.5t21.5 101q0 42 -11 77t-30.5 60.5t-47.5 40t-62 14.5q-32 0 -60.5 -12t-50.5 -33.5t-34.5 -50.5t-12.5 -62q0 -55 54 -92l-65 -91q-110 81 -110 190q0 57 20.5 106.5t57 86.5t86.5 58t108 21
q62 0 113.5 -23.5t88.5 -65t57.5 -99t20.5 -125.5q0 -163 -133 -284h577v802h121zM524 -411q-42 34 -57 71.5t-15 73.5t15 67.5t40 55.5t57.5 38t67.5 14q38 0 71.5 -14.5t58 -39.5t38.5 -58t14 -70q0 -42 -12.5 -85t-36.5 -75h198q-11 29 -18 65.5t-7 62.5q0 68 25.5 126.5
t69.5 101.5t103 67.5t126 24.5q78 0 136 -30t96.5 -78.5t57.5 -109.5t19 -123q0 -46 -12 -89.5t-35.5 -77.5t-58.5 -54.5t-80 -20.5q-33 0 -63 13.5t-52 37t-35 53.5t-13 63t13 63.5t35.5 54t52 37t63.5 13.5q17 0 36.5 -4t33.5 -9q-6 25 -21.5 52t-40.5 49t-57 36t-71 14
q-44 0 -83.5 -17t-69.5 -45.5t-47.5 -67t-17.5 -80.5q0 -41 16 -76.5t49 -64.5v-107h-755v120h216q22 0 46 10.5t44 31t33 50.5t13 69q0 18 -7 31.5t-18.5 22t-25 13t-26.5 4.5q-39 0 -54.5 -21t-15.5 -48q0 -20 28 -57zM1444 -401q0 24 -15.5 39.5t-40.5 15.5
q-24 0 -40.5 -15t-16.5 -40q0 -23 16.5 -39.5t40.5 -16.5q25 0 40.5 15.5t15.5 40.5z" />
    <glyph glyph-name="ml_j_ja" horiz-adv-x="2265" 
d="M2180 672q0 -69 -24.5 -115.5t-68 -78t-103.5 -51.5t-130 -36l-200 -48q-28 -7 -65.5 -14.5t-77.5 -16.5t-79.5 -20.5t-70 -25t-49.5 -29.5t-19 -36q0 -43 29.5 -69t103.5 -26q35 0 73.5 10.5t78.5 29.5t78.5 44.5t73.5 54.5l62 49.5t64 44t63.5 32t58.5 12.5
q42 0 79 -17t64 -45.5t43 -66.5t16 -79q0 -43 -15 -78t-42 -60t-63 -38.5t-78 -13.5q-35 0 -66.5 13t-56 34t-40.5 49t-21 58q-106 -80 -197.5 -117t-178.5 -37q-126 0 -188 58t-62 158q0 43 17.5 75.5t48.5 56.5t74 41.5t93.5 31.5t107 26l114.5 25l209 47
q67 18 110.5 34.5t69 36t35 43t9.5 54.5t-11.5 57.5t-32 46t-48.5 30.5t-62 11q-79 0 -113 -55t-34 -179v-37h-121v111q0 32 -14 61t-37.5 51t-54.5 35t-65 13q-48 0 -83 -20q33 0 63 -15t53 -40t36.5 -57.5t13.5 -66.5q0 -36 -15.5 -68.5t-41 -58t-58 -40.5t-66.5 -15
q-38 0 -71.5 14.5t-59.5 40.5q-71 -141 -151 -231.5t-169 -147.5q-57 -36 -118.5 -60.5t-128.5 -39.5t-139 -21t-150 -6q-63 0 -117 15t-94 43t-63 68t-23 90q0 51 21 87t56.5 60.5t82 39t97 24t102 15.5t96.5 13q135 24 219.5 42t132 42t64.5 58t17 90q0 31 -11.5 57.5
t-32 46t-48.5 30.5t-62 11q-79 0 -113 -55t-34 -179v-57h-121v131q0 32 -14 61t-37.5 51t-54.5 35t-65 13q-48 0 -83 -20q33 0 63 -15t53 -40t36.5 -57.5t13.5 -66.5q0 -36 -15.5 -68.5t-41 -58t-58 -40.5t-66.5 -15q-42 0 -78.5 18t-62.5 49t-41 73t-15 90q0 54 23.5 103
t63.5 86.5t91.5 60t107.5 22.5q75 0 134.5 -27t103.5 -78q41 53 92 79t117 26q63 0 114 -18t87 -52.5t55 -84t19 -111.5q0 -71 -21 -121t-58 -85.5t-87 -58t-108.5 -37t-122.5 -24.5l-129 -20q-29 -5 -66.5 -9t-77.5 -10t-79 -14t-69.5 -20.5t-49.5 -30t-19 -41.5
q0 -21 14.5 -38.5t39 -30t57 -19.5t69.5 -7q62 0 122 4t118 15.5t113 32t108 53.5q90 56 172.5 153.5t156.5 253.5q-2 12 -3 23.5t-1 24.5q0 54 23.5 103t63.5 86.5t91.5 60t107.5 22.5q75 0 134.5 -27t103.5 -78q41 53 92 79t117 26q63 0 114 -18t87 -52.5t55 -84
t19 -111.5zM2062 181q0 16 -7 30.5t-18.5 26t-26.5 18.5t-31 7q-35 0 -72 -32q-3 -11 -4 -20.5t-1 -17.5q0 -39 21.5 -63.5t58.5 -24.5q36 0 58 19t22 57zM1429 620q0 26 -20 44t-43 18q-34 0 -59 -16q-2 -15 -4 -37q0 -31 19.5 -51t43.5 -21q19 0 31 5.5t19 14.5t10 20.5
t3 22.5zM342 620q0 26 -20 44t-43 18q-34 0 -59 -16q-2 -15 -4 -37q0 -31 19.5 -51t43.5 -21q19 0 31 5.5t19 14.5t10 20.5t3 22.5z" />
    <glyph glyph-name="ml_ny_ca" horiz-adv-x="2378" 
d="M2293 923v-923h-1249v121h592q75 69 108 154t33 198q0 62 -12 122t-42 107.5t-80.5 78t-126.5 35.5q50 -52 76 -120t26 -146q0 -49 -16 -101t-49.5 -95.5t-85 -71.5t-121.5 -28q-68 0 -119 26.5t-85.5 68t-52 92t-17.5 99.5q0 85 30 155t83 122q-79 0 -139.5 -33
t-101 -85t-61 -117t-20.5 -129l-2 -453h-121v453q0 76 -19 142t-53.5 115.5t-83.5 78t-108 28.5t-108.5 -33t-85.5 -86.5t-56.5 -122t-20.5 -140.5q0 -11 -1 -24q1 -12 2 -22q30 36 79 56.5t102 20.5q48 0 91.5 -19t76.5 -52t53 -77t20 -93q0 -47 -19 -90.5t-51.5 -76.5
t-75.5 -53t-91 -20q-69 0 -125.5 34.5t-96.5 94t-62 139.5t-22 171q0 98 30 190.5t82.5 164.5t124 115.5t154.5 43.5q53 0 101.5 -15.5t90.5 -44.5t76 -70t59 -92q22 43 56 83t80.5 71t108 49.5t139.5 18.5q87 0 162 -23q71 23 150 23q100 0 175 -37t124.5 -101.5t74 -150.5
t24.5 -183q0 -103 -27 -189.5t-77 -155.5h379v802h121zM1192 540q0 -20 8.5 -48t27 -54t47.5 -44.5t70 -18.5q44 0 73.5 20t47 47.5t25 57.5t7.5 50q0 47 -11.5 84.5t-31.5 66t-47.5 49.5t-59.5 35q-70 -33 -113 -96.5t-43 -148.5zM388 345q-47 0 -83 -27t-52 -71
q11 -63 47.5 -102t87.5 -39q24 0 45.5 9.5t38 26t26.5 38t10 45.5t-9.5 45.5t-26 38t-38.5 26.5t-46 10z" />
    <glyph glyph-name="ml_ny_cha" horiz-adv-x="3309" 
d="M1911 384q0 -138 -65 -263h407q-90 129 -90 287q0 109 43 204.5t116 167t170.5 113t205.5 41.5q109 0 204.5 -45t167 -120t113 -173.5t41.5 -206.5q0 -81 -22 -154t-61 -128.5t-92 -88.5t-116 -33q-58 0 -106.5 19t-84 52.5t-55 80.5t-19.5 103q0 51 20.5 97t55.5 81
t80.5 55.5t95.5 20.5q112 0 182 -74q-8 81 -41.5 152.5t-87.5 125t-124 84.5t-151 31q-83 0 -157.5 -31.5t-131.5 -86t-90.5 -127t-33.5 -154.5q0 -53 11.5 -103.5t32.5 -90.5t49.5 -67t62.5 -34v-119h-735v114q39 59 62 133.5t23 143.5q0 84 -24.5 161t-67.5 136t-101.5 94
t-127.5 35q-9 0 -19 -1t-22 -3q37 -41 66.5 -91.5t50 -106t31.5 -115t11 -119.5q0 -84 -19.5 -156t-55 -125.5t-85 -84t-109.5 -30.5q-66 0 -120.5 31.5t-94 85.5t-61 126t-21.5 153q0 129 42.5 240.5t127.5 195.5q-6 1 -11 0q-100 0 -163 -36.5t-98.5 -99t-47.5 -145
t-11 -174.5v-362h-121v453q0 76 -19 142t-53.5 115.5t-83.5 78t-108 28.5t-108.5 -33t-85.5 -86.5t-56.5 -122t-20.5 -140.5q0 -11 -1 -24q1 -12 2 -22q30 36 79 56.5t102 20.5q48 0 91.5 -19t76.5 -52t53 -77t20 -93q0 -47 -19 -90.5t-51.5 -76.5t-75.5 -53t-91 -20
q-69 0 -125.5 34.5t-96.5 94t-62 139.5t-22 171q0 98 30 190.5t82.5 164.5t124 115.5t154.5 43.5q53 0 101.5 -15.5t90.5 -44.5t76 -70t59 -92q21 51 55.5 92t79 70t97.5 44.5t112 15.5q40 0 80 -10t78 -29q84 39 172 39q71 0 130.5 -23.5t108 -64t85 -95t61 -116t37 -127
t12.5 -128.5zM1468 374q0 115 -41 215.5t-124 173.5q-73 -52 -113.5 -150t-40.5 -225q0 -60 11.5 -111.5t32.5 -89.5t51 -59.5t68 -21.5q36 0 64.5 20.5t49 56.5t31.5 85t11 106zM2921 106q29 0 55.5 13t47.5 35t34 51t15 60q-22 48 -61 78t-82 30q-64 0 -102.5 -37.5
t-38.5 -95.5q0 -28 10.5 -52.5t28.5 -42.5t42 -28.5t51 -10.5zM388 345q-47 0 -83 -27t-52 -71q11 -63 47.5 -102t87.5 -39q24 0 45.5 9.5t38 26t26.5 38t10 45.5t-9.5 45.5t-26 38t-38.5 26.5t-46 10z" />
    <glyph glyph-name="ml_ny_ja" horiz-adv-x="2237" 
d="M2152 672q0 -69 -24.5 -115.5t-68 -78t-103.5 -51.5t-130 -36l-200 -48q-28 -7 -65.5 -14.5t-77.5 -16.5t-79.5 -20.5t-70 -25t-49.5 -29.5t-19 -36q0 -43 29.5 -69t103.5 -26q35 0 73.5 10.5t78.5 29.5t78.5 44.5t73.5 54.5l62 49.5t64 44t63.5 32t58.5 12.5
q42 0 79 -17t64 -45.5t43 -66.5t16 -79q0 -43 -15 -78t-42 -60t-63 -38.5t-78 -13.5q-35 0 -66.5 13t-56 34t-40.5 49t-21 58q-106 -80 -197.5 -117t-178.5 -37q-126 0 -188 58t-62 158q0 43 17.5 75.5t48.5 56.5t74 41.5t93.5 31.5t107 26l114.5 25l209 47
q67 18 110.5 34.5t69 36t35 43t9.5 54.5t-11.5 57.5t-32 46t-48.5 30.5t-62 11q-79 0 -113 -55t-34 -179v-37h-121v111q0 32 -14 61t-37.5 51t-54.5 35t-65 13q13 -11 28 -30.5t27 -45.5t20 -57.5t8 -65.5q0 -36 -15.5 -68.5t-41 -58t-58 -40.5t-66.5 -15q-42 0 -78.5 18
t-62.5 49t-41 73t-15 90q0 40 13.5 78t36.5 70l-13 3q-100 0 -163 -36.5t-98.5 -99t-47.5 -145t-11 -174.5v-362h-121v453q0 76 -19 142t-53.5 115.5t-83.5 78t-108 28.5t-108.5 -33t-85.5 -86.5t-56.5 -122t-20.5 -140.5q0 -11 -1 -24q1 -12 2 -22q30 36 79 56.5t102 20.5
q48 0 91.5 -19t76.5 -52t53 -77t20 -93q0 -47 -19 -90.5t-51.5 -76.5t-75.5 -53t-91 -20q-69 0 -125.5 34.5t-96.5 94t-62 139.5t-22 171q0 98 30 190.5t82.5 164.5t124 115.5t154.5 43.5q53 0 101.5 -15.5t90.5 -44.5t76 -70t59 -92q21 51 55.5 92t79 70t97.5 44.5
t112 15.5q38 0 75.5 -9t73.5 -26q31 17 65 26t69 9q75 0 134.5 -27t103.5 -78q41 53 92 79t117 26q63 0 114 -18t87 -52.5t55 -84t19 -111.5zM388 345q-47 0 -83 -27t-52 -71q11 -63 47.5 -102t87.5 -39q24 0 45.5 9.5t38 26t26.5 38t10 45.5t-9.5 45.5t-26 38t-38.5 26.5
t-46 10zM1401 620q0 44 -18 79.5t-66 68.5l-18.5 -22t-17 -25t-12 -31t-4.5 -40q0 -15 5 -31.5t14.5 -30t23 -22.5t30.5 -9q37 0 50 20t13 43zM2034 181q0 16 -7 30.5t-18.5 26t-26.5 18.5t-31 7q-35 0 -72 -32q-3 -11 -4 -20.5t-1 -17.5q0 -39 21.5 -63.5t58.5 -24.5
q36 0 58 19t22 57z" />
    <glyph glyph-name="ml_ny_nya" horiz-adv-x="3047" 
d="M2962 384q0 -211 -151 -390l-91 73q27 29 49.5 67.5t38.5 81.5t25 88t9 87q0 84 -24.5 161t-67.5 136t-101.5 94t-127.5 35q-9 0 -19 -1t-22 -3q37 -41 66.5 -91.5t50 -106t31.5 -115t11 -119.5q0 -84 -19.5 -156t-55 -125.5t-85 -84t-109.5 -30.5q-66 0 -120.5 31.5
t-94 85.5t-61 126t-21.5 153q0 129 42.5 240.5t127.5 195.5q-6 1 -11 0q-100 0 -163 -36.5t-98.5 -99t-47.5 -145t-11 -174.5v-362h-121v391q0 84 -24.5 161t-67.5 136t-101.5 94t-127.5 35q-9 0 -19 -1t-22 -3q37 -41 66.5 -91.5t50 -106t31.5 -115t11 -119.5
q0 -84 -19.5 -156t-55 -125.5t-85 -84t-109.5 -30.5q-66 0 -120.5 31.5t-94 85.5t-61 126t-21.5 153q0 129 42.5 240.5t127.5 195.5q-6 1 -11 0q-100 0 -163 -36.5t-98.5 -99t-47.5 -145t-11 -174.5v-362h-121v453q0 76 -19 142t-53.5 115.5t-83.5 78t-108 28.5t-108.5 -33
t-85.5 -86.5t-56.5 -122t-20.5 -140.5q0 -11 -1 -24q1 -12 2 -22q30 36 79 56.5t102 20.5q48 0 91.5 -19t76.5 -52t53 -77t20 -93q0 -47 -19 -90.5t-51.5 -76.5t-75.5 -53t-91 -20q-69 0 -125.5 34.5t-96.5 94t-62 139.5t-22 171q0 98 30 190.5t82.5 164.5t124 115.5
t154.5 43.5q53 0 101.5 -15.5t90.5 -44.5t76 -70t59 -92q21 51 55.5 92t79 70t97.5 44.5t112 15.5q40 0 80 -10t78 -29q84 39 172 39q64 0 118.5 -19.5t100.5 -53.5t82 -80t62 -99q23 54 57 100t79 79.5t100.5 53t121.5 19.5q40 0 80 -10t78 -29q84 39 172 39
q71 0 130.5 -23.5t108 -64t85 -95t61 -116t37 -127t12.5 -128.5zM1468 374q0 115 -41 215.5t-124 173.5q-36 -26 -66 -64t-51 -86t-32.5 -105t-11.5 -120q0 -60 12.5 -111.5t35 -89.5t53.5 -59.5t69 -21.5q36 0 64.5 20.5t49 56.5t31.5 85t11 106zM2518 374q0 115 -43 215.5
t-126 173.5q-73 -52 -114 -150t-41 -225q0 -60 11.5 -111.5t33 -89.5t51.5 -59.5t68 -21.5q36 0 65.5 20.5t50.5 56.5t32.5 85t11.5 106zM388 345q-47 0 -83 -27t-52 -71q11 -63 47.5 -102t87.5 -39q24 0 45.5 9.5t38 26t26.5 38t10 45.5t-9.5 45.5t-26 38t-38.5 26.5
t-46 10z" />
    <glyph glyph-name="ml_tt_tta" horiz-adv-x="846" 
d="M761 645h-119q-2 38 -18 69.5t-43.5 54.5t-65.5 35.5t-85 12.5q-55 0 -97 -11.5t-70.5 -32t-43 -47t-14.5 -56.5q0 -45 20 -71.5t55 -41.5t81.5 -22.5l99.5 -15.5q69 -11 125 -30t95 -50t60 -75.5t21 -105.5q0 -39 -9 -70.5t-24.5 -57t-36.5 -45t-44 -33.5q48 -21 81 -65
t33 -118q0 -72 -31 -121t-80.5 -79t-111.5 -42.5t-123 -12.5q-107 0 -188 38.5t-143 110.5l88 71q27 -24 52.5 -42t53.5 -31t60.5 -19.5t73.5 -6.5q48 0 90 8.5t73 24.5t48.5 39.5t17.5 52.5q0 43 -23 68t-57 37.5t-72 16t-68 3.5q-76 0 -138 22.5t-106.5 63.5t-68.5 97
t-24 124h120q0 -44 17 -78.5t46.5 -58.5t67.5 -36.5t80 -12.5q45 0 85.5 11t71.5 31.5t49.5 48.5t18.5 61q0 31 -16.5 57.5t-47 46t-73 32.5t-93.5 17q-76 6 -136.5 23t-102.5 48t-64.5 77.5t-22.5 110.5q0 55 26 104t72.5 85.5t109.5 57.5t137 21q67 0 127 -22.5
t105.5 -62.5t72 -93.5t26.5 -114.5z" />
    <glyph glyph-name="ml_dd_dda" horiz-adv-x="1771" 
d="M1686 496q0 -118 -24 -212.5t-68 -161t-105.5 -102t-136.5 -35.5q-145 0 -234 101q-17 -24 -44 -42.5t-58 -31.5t-63.5 -20t-62.5 -7q-80 0 -132.5 28t-84.5 86.5t-47.5 150t-21.5 217.5q-2 54 -8 115t-22 113.5t-45.5 87t-78.5 34.5q-52 0 -97 -28t-78 -74.5t-51.5 -107
t-18.5 -126.5q0 -128 39 -224t106 -164l-67 -108q-100 100 -149 224.5t-49 271.5q0 48 9.5 100.5t28.5 103.5t48 97t68 81.5t88 56t109 20.5q81 0 133.5 -30t83.5 -89t44.5 -147t17.5 -205q3 -93 12.5 -161.5t29 -113.5t52 -66.5t81.5 -21.5q36 0 67 17t54.5 50t37 82.5
t13.5 114.5v553h120v-553q0 -131 46.5 -197.5t123.5 -66.5q49 0 88.5 26.5t67.5 77t43 122.5t15 162q0 106 -35 192.5t-108 148.5l67 105q196 -138 196 -444zM1317 0v-345q0 -78 25.5 -123.5t77.5 -45.5q63 0 94 61t31 169q0 71 -24.5 125t-70.5 101l62 83q143 -99 143 -308
q0 -75 -17.5 -137.5t-49 -108t-74.5 -71t-94 -25.5t-90 16t-69 51q-12 -14 -29 -26t-36.5 -21t-40 -14.5t-39.5 -5.5q-49 0 -82.5 15t-56 40t-35.5 57.5t-20.5 68.5t-11.5 72.5t-8 69.5q-3 29 -8 65t-16 67.5t-30 53t-50 21.5q-36 0 -64 -16t-47 -43t-29 -63t-10 -77
q0 -78 28 -133.5t76 -104.5l-58 -92q-72 71 -114 151t-42 179q0 53 14 108t45.5 99.5t80.5 73t120 28.5q48 0 81 -17t55 -44.5t34.5 -62t19.5 -68.5t10 -64.5t6 -50.5q5 -35 8.5 -74t14 -72t31 -54.5t58.5 -21.5q49 0 70 39t21 130v345h110z" />
    <glyph glyph-name="ml_dd_ddha" horiz-adv-x="1771" 
d="M1686 496q0 -118 -24 -212.5t-68 -161t-105.5 -102t-136.5 -35.5q-145 0 -234 101q-17 -24 -44 -42.5t-58 -31.5t-63.5 -20t-62.5 -7q-80 0 -132.5 28t-84.5 86.5t-47.5 150t-21.5 217.5q-2 54 -8 115t-22 113.5t-45.5 87t-78.5 34.5q-52 0 -97 -28t-78 -74.5t-51.5 -107
t-18.5 -126.5q0 -128 39 -224t106 -164l-67 -108q-100 100 -149 224.5t-49 271.5q0 48 9.5 100.5t28.5 103.5t48 97t68 81.5t88 56t109 20.5q81 0 133.5 -30t83.5 -89t44.5 -147t17.5 -205q3 -93 12.5 -161.5t29 -113.5t52 -66.5t81.5 -21.5q36 0 67 17t54.5 50t37 82.5
t13.5 114.5v553h120v-553q0 -131 46.5 -197.5t123.5 -66.5q49 0 88.5 26.5t67.5 77t43 122.5t15 162q0 106 -35 192.5t-108 148.5l67 105q196 -138 196 -444zM1665 -288q0 -85 -22 -148t-58 -105t-83.5 -63t-98.5 -21q-25 0 -56.5 5t-62.5 17.5t-58.5 34t-44.5 54.5
q-12 -30 -32.5 -51.5t-43.5 -34.5t-47 -19t-43 -6q-49 0 -82.5 15t-56 40t-35.5 57.5t-20.5 68.5t-11.5 72.5t-8 69.5q-3 29 -8 65t-16 67.5t-30 53t-50 21.5q-36 0 -64 -16t-47 -43t-29 -63t-10 -77q0 -78 28 -133.5t76 -104.5l-58 -92q-72 71 -114 151t-42 179
q0 53 14 108t45.5 99.5t80.5 73t120 28.5q48 0 81 -17t55 -44.5t34.5 -62t19.5 -68.5t10 -64.5t6 -50.5q5 -35 8.5 -74t14 -72t31 -54.5t58.5 -21.5q49 0 70 39t21 130v345h110v-345q0 -39 17 -70.5t43 -53t57.5 -33.5t61.5 -12q39 0 70.5 19t54 50t34.5 71t12 81v13
q-46 -41 -110 -41q-35 0 -65.5 12t-53.5 33.5t-36.5 52.5t-13.5 70q0 34 12.5 64.5t34.5 53.5t52.5 36.5t66.5 13.5q55 0 95.5 -27.5t66 -71t38 -97.5t12.5 -107zM1522 -153q0 25 -20 45.5t-46 20.5t-46.5 -20t-20.5 -46q0 -11 5 -23t13.5 -21.5t21 -15.5t27.5 -6
q26 0 46 20.5t20 45.5z" />
    <glyph glyph-name="ml_dd_rr_rra" horiz-adv-x="1771" 
d="M1686 496q0 -118 -24 -212.5t-68 -161t-105.5 -102t-136.5 -35.5q-145 0 -234 101q-17 -24 -44 -42.5t-58 -31.5t-63.5 -20t-62.5 -7q-80 0 -132.5 28t-84.5 86.5t-47.5 150t-21.5 217.5q-2 54 -8 115t-22 113.5t-45.5 87t-78.5 34.5q-52 0 -97 -28t-78 -74.5t-51.5 -107
t-18.5 -126.5q0 -128 39 -224t106 -164l-67 -108q-100 100 -149 224.5t-49 271.5q0 48 9.5 100.5t28.5 103.5t48 97t68 81.5t88 56t109 20.5q81 0 133.5 -30t83.5 -89t44.5 -147t17.5 -205q3 -93 12.5 -161.5t29 -113.5t52 -66.5t81.5 -21.5q36 0 67 17t54.5 50t37 82.5
t13.5 114.5v553h120v-553q0 -131 46.5 -197.5t123.5 -66.5q49 0 88.5 26.5t67.5 77t43 122.5t15 162q0 106 -35 192.5t-108 148.5l67 105q196 -138 196 -444zM1438 -543q30 29 50.5 56t33 54.5t18.5 57t6 65.5q0 51 -17.5 91t-48 67.5t-73.5 42t-94 14.5q-54 0 -98.5 -15
t-76 -44.5t-48.5 -71.5t-17 -96q0 -35 5.5 -63t18.5 -54t33.5 -51.5t49.5 -53.5l-62 -81q-78 65 -116.5 141t-38.5 168q0 76 26.5 137.5t73 104.5t109.5 66t137 23q75 0 138.5 -22t110 -63.5t72.5 -102t26 -137.5q0 -179 -154 -315zM626 -543q30 29 50.5 56t33 54.5t18.5 57
t6 65.5q0 51 -17.5 91t-48 67.5t-73.5 42t-94 14.5q-54 0 -98.5 -15t-76 -44.5t-48.5 -71.5t-17 -96q0 -35 5.5 -63t18.5 -54t33.5 -51.5t49.5 -53.5l-62 -81q-78 65 -116.5 141t-38.5 168q0 76 26.5 137.5t73 104.5t109.5 66t137 23q75 0 138.5 -22t110 -63.5t72.5 -102
t26 -137.5q0 -179 -154 -315z" />
    </font>
</defs>
</svg>
